<svg xmlns="http://www.w3.org/2000/svg" xmlns:xlink="http://www.w3.org/1999/xlink" width="484" height="424" viewBox="0 0 484 424">
  <defs>
    <clipPath id="clip-personal-assets-wealth-assets-security">
      <rect width="484" height="424"/>
    </clipPath>
  </defs>
  <g id="personal-assets-wealth-assets-security" clip-path="url(#clip-personal-assets-wealth-assets-security)">
    <rect id="Rectangle_2" data-name="Rectangle 2" width="484" height="424" rx="15" fill="#fff"/>
    <g id="Data_security_05-ai" transform="translate(-96.4 -103.6)">
      <g id="window" transform="translate(224.7 211.737)">
        <path id="_Path_" data-name="&lt;Path&gt;" d="M805.523,790.856H578.8V565H805.523Z" transform="translate(-578.8 -565)" fill="#aae0ff"/>
      </g>
      <g id="shadow" transform="translate(155.4 362.573)">
        <path id="shadow_1_" data-name="shadow 1 " d="M157.4,2235.494H520.249a2,2,0,1,0,0-3.994H157.4a2,2,0,1,0,0,3.994Z" transform="translate(-155.4 -2109.571)" fill="#2d5b98"/>
        <g id="plant" transform="translate(52.399)">
          <g id="_Group_" data-name="&lt;Group&gt;" transform="translate(24.856 58.128)">
            <g id="_Group_2" data-name="&lt;Group&gt;">
              <path id="_Path_2" data-name="&lt;Path&gt;" d="M661.379,1889.624a20.285,20.285,0,0,1-20.279-20.279V1841.7h40.559v27.645A20.285,20.285,0,0,1,661.379,1889.624Z" transform="translate(-638.858 -1841.7)" fill="#5896fa"/>
              <path id="_Path_3" data-name="&lt;Path&gt;" d="M629.642,2012.216H627.4V1969.3h2.242Z" transform="translate(-627.4 -1948.415)" fill="#0e0e0e"/>
              <path id="_Path_4" data-name="&lt;Path&gt;" d="M891.142,2012.216H888.9V1969.3h2.242Z" transform="translate(-846.099 -1948.415)" fill="#0e0e0e"/>
              <path id="_Path_5" data-name="&lt;Path&gt;" d="M786.042,2012.216H783.8V1969.3h2.242Z" transform="translate(-758.201 -1948.415)" fill="#0e0e0e"/>
            </g>
            <path id="_Path_6" data-name="&lt;Path&gt;" d="M627.4,2136.742V2134.5h42.9v2.242Z" transform="translate(-627.4 -2086.576)" fill="#0e0e0e"/>
          </g>
          <g id="_Group_3" data-name="&lt;Group&gt;" transform="translate(48.595 10.361)">
            <path id="_Path_7" data-name="&lt;Path&gt;" d="M802.793,1551.962c2.455,3.535-2.471,6.563-3.241,11.457-.769,4.877,4.828,7.627-1.113,14.027-3.65,3.944-6.727-1.293-9.706,4.747-2.963,6.039-.622,7.054-3.961,9.231-5.827,3.781-14.731-4.583-11.735-10.622,3-6.023,9.051-5.483,6.252-10.459-2.815-4.959-3.846-7.087.982-9.64,5.99-3.159,11.261-.262,11.735-4.878C792.5,1551.209,799.568,1547.3,802.793,1551.962Z" transform="translate(-772.437 -1549.861)" fill="#ffca59"/>
            <path id="_Path_8" data-name="&lt;Path&gt;" d="M796.515,1631l-1.015-.2c4.714-23.848,20.361-40.542,20.509-40.706l.753.7C816.6,1590.968,801.163,1607.466,796.515,1631Z" transform="translate(-791.725 -1583.514)" fill="#0e0e0e"/>
          </g>
          <g id="_Group_4" data-name="&lt;Group&gt;" transform="translate(0)">
            <path id="_Path_9" data-name="&lt;Path&gt;" d="M476.074,1490.216c-2.521,5.156,4.6,8.184,6.6,14.5,2,6.3-5.352,8.528,3.781,15.811,5.63,4.468,6.809,1.669,8.888,11.686,1.817,8.822,8.528.442,13.536,5.614,6.465,6.678,16.564-7.988,11.392-15.369-5.172-7.365-11.228-5.467-8.511-12.6,2.717-7.12-.524-12.488-7.431-14.895-8.56-2.979-11.621,4.206-13.192-1.817C489.561,1487.139,479.429,1483.391,476.074,1490.216Z" transform="translate(-475.54 -1486.559)" fill="#ed5a24"/>
            <path id="_Path_10" data-name="&lt;Path&gt;" d="M563.1,1587.9c-10.9-30.231-34.65-48.939-34.9-49.119l.851-1.08c.245.18,24.289,19.134,35.338,49.741Z" transform="translate(-519.581 -1529.329)" fill="#0e0e0e"/>
          </g>
        </g>
      </g>
      <g id="system" transform="translate(169.951 142.6)">
        <g id="_Group_5" data-name="&lt;Group&gt;" transform="translate(0 0)">
          <g id="_Group_6" data-name="&lt;Group&gt;">
            <path id="_Path_11" data-name="&lt;Path&gt;" d="M566.531,360.115A86.715,86.715,0,1,1,479.815,273.4,86.715,86.715,0,0,1,566.531,360.115Z" transform="translate(-368.745 -251.991)" fill="none" stroke="#2e77e6" stroke-miterlimit="10" stroke-width="2" stroke-dasharray="2 2"/>
            <path id="_Path_12" data-name="&lt;Path&gt;" d="M754.183,679.833a16.983,16.983,0,0,0,.147-2.062,15.286,15.286,0,0,0-29.363-5.941,10.677,10.677,0,0,0-17.775,7.971h-1.98a10.312,10.312,0,1,0,0,20.623h48.2a10.309,10.309,0,0,0,.769-20.59Z" transform="translate(-621.148 -577.405)" fill="#fff"/>
            <g id="_Group_7" data-name="&lt;Group&gt;" transform="translate(74.031 152.578)">
              <path id="_Path_13" data-name="&lt;Path&gt;" d="M765.082,1136.833H700.528a3.943,3.943,0,0,1-3.928-3.945v-54.144a3.943,3.943,0,0,1,3.928-3.945h64.554a3.947,3.947,0,0,1,3.945,3.945v54.144A3.947,3.947,0,0,1,765.082,1136.833Z" transform="translate(-696.6 -1074.8)" fill="#5896fa"/>
              <g id="_Group_8" data-name="&lt;Group&gt;" transform="translate(11.883 4.91)">
                <g id="_Group_9" data-name="&lt;Group&gt;">
                  <path id="_Path_14" data-name="&lt;Path&gt;" d="M815.455,1277.088H771.786a2.594,2.594,0,0,1,0-5.188h43.669a2.594,2.594,0,0,1,0,5.188Z" transform="translate(-769.2 -1244.55)" fill="#fff"/>
                  <path id="_Path_15" data-name="&lt;Path&gt;" d="M815.455,1328.188H771.786a2.594,2.594,0,0,1,0-5.188h43.669a2.594,2.594,0,0,1,0,5.188Z" transform="translate(-769.2 -1287.286)" fill="#fff"/>
                  <g id="_Group_10" data-name="&lt;Group&gt;" transform="translate(8.92 37.629)">
                    <path id="_Path_16" data-name="&lt;Path&gt;" d="M825.533,1335.617a.926.926,0,0,1-.917.917.917.917,0,1,1,0-1.833A.926.926,0,0,1,825.533,1335.617Z" transform="translate(-823.7 -1334.7)" fill="#80b2ff"/>
                    <path id="_Path_17" data-name="&lt;Path&gt;" d="M844.633,1335.617a.917.917,0,1,1-.916-.917A.915.915,0,0,1,844.633,1335.617Z" transform="translate(-839.674 -1334.7)" fill="#80b2ff"/>
                    <path id="_Path_18" data-name="&lt;Path&gt;" d="M863.833,1335.617a.917.917,0,1,1-.917-.917A.915.915,0,0,1,863.833,1335.617Z" transform="translate(-855.731 -1334.7)" fill="#80b2ff"/>
                    <path id="_Path_19" data-name="&lt;Path&gt;" d="M882.933,1335.617a.917.917,0,1,1-.917-.917A.915.915,0,0,1,882.933,1335.617Z" transform="translate(-871.705 -1334.7)" fill="#80b2ff"/>
                    <path id="_Path_20" data-name="&lt;Path&gt;" d="M902.133,1335.617a.917.917,0,1,1-.916-.917A.915.915,0,0,1,902.133,1335.617Z" transform="translate(-887.763 -1334.7)" fill="#80b2ff"/>
                    <path id="_Path_21" data-name="&lt;Path&gt;" d="M921.317,1335.617a.908.908,0,1,1-.917-.917A.915.915,0,0,1,921.317,1335.617Z" transform="translate(-903.82 -1334.7)" fill="#80b2ff"/>
                    <path id="_Path_22" data-name="&lt;Path&gt;" d="M940.433,1335.617a.917.917,0,1,1-.917-.917A.915.915,0,0,1,940.433,1335.617Z" transform="translate(-919.794 -1334.7)" fill="#80b2ff"/>
                    <path id="_Path_23" data-name="&lt;Path&gt;" d="M959.617,1335.617a.908.908,0,1,1-.9-.917A.912.912,0,0,1,959.617,1335.617Z" transform="translate(-935.851 -1334.7)" fill="#80b2ff"/>
                    <path id="_Path_24" data-name="&lt;Path&gt;" d="M978.733,1335.617a.917.917,0,1,1-.917-.917A.915.915,0,0,1,978.733,1335.617Z" transform="translate(-951.825 -1334.7)" fill="#80b2ff"/>
                  </g>
                  <g id="_Group_11" data-name="&lt;Group&gt;" transform="translate(14.403)">
                    <path id="_Path_25" data-name="&lt;Path&gt;" d="M877.267,1114.85a10.033,10.033,0,1,1-10.033-10.05A10.034,10.034,0,0,1,877.267,1114.85Z" transform="translate(-857.2 -1104.8)" fill="#fff"/>
                    <g id="_Group_12" data-name="&lt;Group&gt;" transform="translate(4.452 3.306)">
                      <g id="_Group_13" data-name="&lt;Group&gt;" transform="translate(2.422)">
                        <path id="_Path_26" data-name="&lt;Path&gt;" d="M902.375,1131.334a3.126,3.126,0,0,0,2.455-1.211,3.066,3.066,0,0,0,.687-1.948,3.159,3.159,0,1,0-6.318,0,3.066,3.066,0,0,0,.687,1.948A3.142,3.142,0,0,0,902.375,1131.334Z" transform="translate(-899.2 -1125)" fill="#005cea"/>
                      </g>
                      <path id="_Path_27" data-name="&lt;Path&gt;" d="M895.563,1173.82c0,2-11.163,2-11.163,0v-2.341c.442-3.175,10.246-3.306,11.163,0Z" transform="translate(-884.4 -1161.839)" fill="#005cea"/>
                    </g>
                  </g>
                  <path id="_Compound_Path_" data-name="&lt;Compound Path&gt;" d="M787.173,1329.962v1.85c0,.311-2.373.311-2.373,0v-1.85h.164v-.131a1.023,1.023,0,1,1,2.046,0v.131Zm-1.85,0h1.326v-.131a.663.663,0,1,0-1.326,0Zm.982.655a.327.327,0,1,0-.655,0,.338.338,0,0,0,.164.278v.524a.155.155,0,0,0,.164.164.168.168,0,0,0,.18-.164v-.524A.364.364,0,0,0,786.306,1330.617Z" transform="translate(-782.247 -1292.137)" fill="#5896fa" fill-rule="evenodd"/>
                  <g id="_Group_14" data-name="&lt;Group&gt;" transform="translate(2.553 28.414)">
                    <g id="_Group_15" data-name="&lt;Group&gt;">
                      <g id="_Group_16" data-name="&lt;Group&gt;" transform="translate(0.524)">
                        <path id="_Path_28" data-name="&lt;Path&gt;" d="M788.655,1279.742a.636.636,0,0,0,.524-.262.571.571,0,0,0,.147-.409.663.663,0,1,0-1.326,0,.645.645,0,0,0,.131.409A.659.659,0,0,0,788.655,1279.742Z" transform="translate(-788 -1278.4)" fill="#5896fa"/>
                      </g>
                      <path id="_Path_29" data-name="&lt;Path&gt;" d="M787.157,1288.756c0,.425-2.357.425-2.357,0v-.491c.1-.671,2.161-.7,2.357,0Z" transform="translate(-784.8 -1286.219)" fill="#5896fa"/>
                    </g>
                    <path id="_Path_30" data-name="&lt;Path&gt;" d="M832.728,1284.622h-9.575a.761.761,0,0,1,0-1.522h9.575a.761.761,0,0,1,0,1.522Z" transform="translate(-816.246 -1282.331)" fill="#80b2ff"/>
                    <path id="_Path_31" data-name="&lt;Path&gt;" d="M909.828,1284.622h-9.575a.761.761,0,0,1,0-1.522h9.575a.761.761,0,0,1,0,1.522Z" transform="translate(-880.726 -1282.331)" fill="#80b2ff"/>
                  </g>
                </g>
                <path id="_Path_32" data-name="&lt;Path&gt;" d="M882.3,1381.552h-8.675a2.226,2.226,0,1,1,0-4.452H882.3a2.226,2.226,0,0,1,0,4.452Z" transform="translate(-854.672 -1332.531)" fill="#1251b3"/>
              </g>
            </g>
            <g id="_Group_17" data-name="&lt;Group&gt;" transform="translate(0 104.376)">
              <g id="_Group_18" data-name="&lt;Group&gt;">
                <g id="_Group_19" data-name="&lt;Group&gt;">
                  <g id="_Group_20" data-name="&lt;Group&gt;">
                    <path id="_Path_33" data-name="&lt;Path&gt;" d="M244.6,850.115a.432.432,0,0,0,.016-.115C244.616,850.016,244.6,850.115,244.6,850.115Z" transform="translate(-244.551 -838.592)" fill="#d9ffff"/>
                    <path id="_Path_34" data-name="&lt;Path&gt;" d="M244.6,850.115a.432.432,0,0,0,.016-.115C244.616,850.016,244.6,850.115,244.6,850.115Z" transform="translate(-244.551 -838.592)" fill="#d9ffff"/>
                    <path id="_Path_35" data-name="&lt;Path&gt;" d="M505.4,851.315v0Z" transform="translate(-462.664 -839.595)" fill="#d9ffff"/>
                    <path id="_Path_36" data-name="&lt;Path&gt;" d="M505.4,851.315v0Z" transform="translate(-462.664 -839.595)" fill="#d9ffff"/>
                    <path id="_Path_37" data-name="&lt;Path&gt;" d="M265.789,780.3c-4.976,5.319-12.914,9.69-21.409,11.539,0,.573-.016,3.715-.082,18.2-.082,19.314,18.3,28.758,21.163,30.215,2.766-1.277,21.376-10.7,21.458-30.018.065-14.485.082-17.628.082-18.2C278.54,790.1,270.7,785.668,265.789,780.3Z" transform="translate(-244.298 -780.3)" fill="#fff"/>
                  </g>
                </g>
                <g id="_Group_21" data-name="&lt;Group&gt;" transform="translate(2.324 3.486)">
                  <g id="_Group_22" data-name="&lt;Group&gt;">
                    <path id="_Path_38" data-name="&lt;Path&gt;" d="M277.6,801.6a45.03,45.03,0,0,1-19.035,9.886l-.065,16.368c-.033,7.5,2.946,14.273,8.839,20.148a42.191,42.191,0,0,0,10.033,7.333c.082-.049.18-.1.278-.147V801.633A.19.19,0,0,0,277.6,801.6Z" transform="translate(-258.498 -801.6)" fill="#296acc"/>
                  </g>
                  <g id="_Group_23" data-name="&lt;Group&gt;" transform="translate(19.15 0.033)">
                    <path id="_Path_39" data-name="&lt;Path&gt;" d="M375.5,801.8v53.555a42.8,42.8,0,0,0,9.8-7.1c5.958-5.81,8.986-12.57,9.019-20.05l.082-16.368A45.179,45.179,0,0,1,375.5,801.8Z" transform="translate(-375.5 -801.8)" fill="#2e77e6"/>
                  </g>
                </g>
              </g>
              <g id="_Group_24" data-name="&lt;Group&gt;" transform="translate(12.849 18.25)">
                <path id="_Compound_Path_2" data-name="&lt;Compound Path&gt;" d="M340.051,946v12.685c0,1.408-17.251,1.408-17.251,0V946Zm-6.482,4.779a2.128,2.128,0,1,0-3.012,1.948v3.6a.876.876,0,0,0,1.751,0v-3.6A2.112,2.112,0,0,0,333.57,950.779Z" transform="translate(-322.8 -937.129)" fill="#fff" fill-rule="evenodd"/>
                <path id="_Path_40" data-name="&lt;Path&gt;" d="M346.307,899.771h-1.735V898.9a5.369,5.369,0,0,0-10.737,0v.867H332.1V898.9a7.1,7.1,0,1,1,14.207,0Z" transform="translate(-330.578 -891.8)" fill="#fff"/>
              </g>
            </g>
            <g id="_Group_25" data-name="&lt;Group&gt;" transform="translate(117.945)">
              <g id="_Group_26" data-name="&lt;Group&gt;">
                <path id="_Path_41" data-name="&lt;Path&gt;" d="M996.047,181.473H964.9V142.6h31.148Z" transform="translate(-964.9 -142.6)" fill="#296acc"/>
              </g>
              <g id="_Group_27" data-name="&lt;Group&gt;" transform="translate(4.043 4.01)">
                <path id="_Path_42" data-name="&lt;Path&gt;" d="M1020.747,205.973H989.6V167.1h31.147Z" transform="translate(-989.6 -167.1)" fill="#fff" stroke="#5896fa" stroke-miterlimit="10" stroke-width="1"/>
              </g>
              <g id="_Group_28" data-name="&lt;Group&gt;" transform="translate(9.182 7.955)">
                <path id="_Path_43" data-name="&lt;Path&gt;" d="M1052.131,230.073H1021V191.2h31.131Z" transform="translate(-1021 -191.2)" fill="#fff" stroke="#5896fa" stroke-miterlimit="10" stroke-width="1"/>
              </g>
              <g id="_Group_29" data-name="&lt;Group&gt;" transform="translate(12.914 11.965)">
                <path id="_Path_44" data-name="&lt;Path&gt;" d="M1074.931,254.573H1043.8V215.7h31.131Z" transform="translate(-1043.8 -215.7)" fill="#5896fa"/>
                <path id="_Path_45" data-name="&lt;Path&gt;" d="M1122.106,257.221H1106V254.7h16.106Z" transform="translate(-1095.819 -248.317)" fill="#005cea"/>
                <path id="_Path_46" data-name="&lt;Path&gt;" d="M1097.769,293.521H1076.9V291h20.869Z" transform="translate(-1071.482 -278.675)" fill="#005cea"/>
                <path id="_Path_47" data-name="&lt;Path&gt;" d="M1097.769,329.821H1076.9V327.3h20.869Z" transform="translate(-1071.482 -309.034)" fill="#005cea"/>
                <path id="_Path_48" data-name="&lt;Path&gt;" d="M1097.769,366.121H1076.9V363.6h20.869Z" transform="translate(-1071.482 -339.392)" fill="#005cea"/>
                <path id="_Path_49" data-name="&lt;Path&gt;" d="M1097.769,402.421H1076.9V399.9h20.869Z" transform="translate(-1071.482 -369.751)" fill="#005cea"/>
              </g>
            </g>
            <g id="_Group_30" data-name="&lt;Group&gt;" transform="translate(5.172 19.56)">
              <path id="_Path_50" data-name="&lt;Path&gt;" d="M502.3,344.9a11,11,0,1,1-11-11A11,11,0,0,1,502.3,344.9Z" transform="translate(-446.845 -322.148)" fill="#fff"/>
              <g id="_Group_31" data-name="&lt;Group&gt;" transform="translate(21.716)">
                <path id="_Compound_Path_3" data-name="&lt;Compound Path&gt;" d="M450.808,296.6a22.792,22.792,0,0,1-5.909,6.5l-1.489-2a20.492,20.492,0,0,1-7.218,3.421l.589,2.406a22.577,22.577,0,0,1-8.773.426l.082-.556.278-1.9a20.279,20.279,0,0,1-7.513-2.7l-1.277,2.128a22.624,22.624,0,0,1-6.514-5.909l2-1.489a20.046,20.046,0,0,1-3.4-7.218l-2.406.606a22.365,22.365,0,0,1-.426-8.789l.72.1,1.735.262a20.171,20.171,0,0,1,2.684-7.5l-2.128-1.293a22.464,22.464,0,0,1,5.925-6.514l1.489,2a19.973,19.973,0,0,1,7.2-3.4l-.606-2.406a22.678,22.678,0,0,1,8.789-.426l-.36,2.455a19.993,19.993,0,0,1,7.513,2.7l1.277-2.128a22.413,22.413,0,0,1,6.514,5.909l-2,1.489a20.1,20.1,0,0,1,3.4,7.2l2.406-.589a22.35,22.35,0,0,1,.426,8.789H453.8l-1.62-.246-.818-.115a20.02,20.02,0,0,1-2.7,7.5Zm-10.066-6.072a10.992,10.992,0,1,0-15.091,3.748A10.981,10.981,0,0,0,440.742,290.532Z" transform="translate(-408.576 -262.102)" fill="#005cea" fill-rule="evenodd"/>
              </g>
              <g id="_Group_32" data-name="&lt;Group&gt;" transform="translate(0 25.893)">
                <path id="_Compound_Path_4" data-name="&lt;Compound Path&gt;" d="M297.636,425.439a11.969,11.969,0,0,1,1.768,4.272l-1.293.262a11.02,11.02,0,0,1,0,4.206l1.277.246A11.984,11.984,0,0,1,297.6,438.7l-.245-.147-.835-.573a10.544,10.544,0,0,1-3,2.963l.737,1.1a12.008,12.008,0,0,1-4.288,1.751l-.262-1.277a10.619,10.619,0,0,1-4.19-.016l-.262,1.277a11.422,11.422,0,0,1-4.272-1.784l.213-.311.507-.769a10.7,10.7,0,0,1-2.963-2.979l-1.08.72a11.753,11.753,0,0,1-1.768-4.288l1.277-.245a10.7,10.7,0,0,1,.016-4.206l-1.277-.246a11.889,11.889,0,0,1,1.784-4.288l1.08.737a10.7,10.7,0,0,1,2.979-2.963l-.72-1.1a11.718,11.718,0,0,1,4.288-1.751l.246,1.277a10.7,10.7,0,0,1,4.206.016l.262-1.277a11.65,11.65,0,0,1,4.272,1.784l-.491.72-.229.36a10.866,10.866,0,0,1,2.946,2.979Zm-5.156,3.421a5.788,5.788,0,1,0-1.637,8.02A5.783,5.783,0,0,0,292.48,428.86Z" transform="translate(-275.9 -420.3)" fill="#1251b3" fill-rule="evenodd"/>
              </g>
            </g>
            <g id="_Group_33" data-name="&lt;Group&gt;" transform="translate(177.948 56.452)">
              <path id="_Path_51" data-name="&lt;Path&gt;" d="M1359.276,504.719h-26.745a1.027,1.027,0,0,1-1.031-1.031V488.515a1.024,1.024,0,0,1,1.031-1.015h26.745a1.02,1.02,0,0,1,1.015,1.015v15.173A1.024,1.024,0,0,1,1359.276,504.719Z" transform="translate(-1331.5 -487.5)" fill="#005cea"/>
              <path id="_Path_52" data-name="&lt;Path&gt;" d="M1360.291,510.363H1331.5V507.4h28.791Z" transform="translate(-1331.5 -504.143)" fill="#5896fa"/>
              <path id="_Path_53" data-name="&lt;Path&gt;" d="M1347.714,572.5h-4.223a.483.483,0,1,0,0,.966h4.223a.483.483,0,1,0,0-.966Z" transform="translate(-1341.118 -558.588)" fill="#d1f5ff"/>
              <path id="_Path_54" data-name="&lt;Path&gt;" d="M1387.43,572.5h-4.239a.483.483,0,1,0,0,.966h4.239a.483.483,0,1,0,0-.966Z" transform="translate(-1374.32 -558.588)" fill="#d1f5ff"/>
              <path id="_Path_55" data-name="&lt;Path&gt;" d="M1427.214,572.5h-4.223a.483.483,0,1,0,0,.966h4.223a.483.483,0,1,0,0-.966Z" transform="translate(-1407.606 -558.588)" fill="#d1f5ff"/>
              <path id="_Path_56" data-name="&lt;Path&gt;" d="M1467.014,572.5h-4.239a.483.483,0,0,0,0,.966h4.239a.483.483,0,1,0,0-.966Z" transform="translate(-1440.891 -558.588)" fill="#d1f5ff"/>
              <path id="_Path_57" data-name="&lt;Path&gt;" d="M1342.04,492.8a.545.545,0,0,0-.54.54v.2a.54.54,0,1,0,1.08,0v-.2A.545.545,0,0,0,1342.04,492.8Z" transform="translate(-1339.863 -491.933)" fill="#d1f5ff"/>
              <path id="_Path_58" data-name="&lt;Path&gt;" d="M1351.9,493.438a.636.636,0,0,0,.622.638h2.242a.638.638,0,0,0,0-1.277h-2.242A.636.636,0,0,0,1351.9,493.438Z" transform="translate(-1348.561 -491.933)" fill="#d1f5ff"/>
              <path id="_Path_59" data-name="&lt;Path&gt;" d="M1345.751,535.3h2.881a.842.842,0,0,1,.851.835v2.488a.845.845,0,0,1-.851.851h-2.881a.845.845,0,0,1-.851-.851v-2.488A.842.842,0,0,1,1345.751,535.3Z" transform="translate(-1342.707 -527.476)" fill="#5896fa"/>
            </g>
            <g id="_Group_34" data-name="&lt;Group&gt;" transform="translate(174.691 108.124)">
              <g id="_Group_35" data-name="&lt;Group&gt;" transform="translate(0 5.794)">
                <path id="_Path_60" data-name="&lt;Path&gt;" d="M1332.027,842.184V840.22a1.61,1.61,0,0,0-1.6-1.62H1313.2a1.61,1.61,0,0,0-1.6,1.62v34.748h44.5V842.184Z" transform="translate(-1311.6 -838.6)" fill="#1251b3"/>
                <path id="_Path_61" data-name="&lt;Path&gt;" d="M1357.953,867.8H1314.3l-2.7,31.589h44.291Z" transform="translate(-1311.6 -863.021)" fill="#fff"/>
                <path id="_Path_62" data-name="&lt;Path&gt;" d="M1356.1,893.284h-44.5l4.714-31.2a1.867,1.867,0,0,1,1.849-1.588H1358.9a1.87,1.87,0,0,1,1.849,2.144Z" transform="translate(-1311.6 -856.916)" fill="#3383ff"/>
              </g>
              <g id="_Group_36" data-name="&lt;Group&gt;" transform="translate(38.595)">
                <g id="_Group_37" data-name="&lt;Group&gt;">
                  <path id="_Path_63" data-name="&lt;Path&gt;" d="M1570.094,815.7a10.2,10.2,0,1,1-10.2-10.2A10.2,10.2,0,0,1,1570.094,815.7Z" transform="translate(-1549.323 -805.124)" fill="#005cea"/>
                  <path id="_Compound_Path_5" data-name="&lt;Compound Path&gt;" d="M1557.973,824.347a10.573,10.573,0,1,1,10.574-10.574A10.59,10.59,0,0,1,1557.973,824.347Zm0-20.394a9.82,9.82,0,1,0,9.821,9.82A9.828,9.828,0,0,0,1557.973,803.953Z" transform="translate(-1547.4 -803.2)" fill="#fff" fill-rule="evenodd"/>
                </g>
                <g id="_Group_38" data-name="&lt;Group&gt;" transform="translate(5.663 3.683)">
                  <path id="_Compound_Path_6" data-name="&lt;Compound Path&gt;" d="M1591.82,856.5v7.234c0,.8-9.821.8-9.821,0V856.5Zm-3.7,2.733a1.211,1.211,0,1,0-2.422,0,1.189,1.189,0,0,0,.72,1.1v2.062a.491.491,0,1,0,.982,0v-2.046A1.229,1.229,0,0,0,1588.121,859.233Z" transform="translate(-1582 -851.459)" fill="#fff" fill-rule="evenodd"/>
                  <path id="_Path_64" data-name="&lt;Path&gt;" d="M1595.3,830.234h-.982v-.491a3.061,3.061,0,0,0-6.122,0v.491h-1v-.491a4.051,4.051,0,0,1,8.1,0Z" transform="translate(-1586.349 -825.7)" fill="#fff"/>
                </g>
              </g>
            </g>
          </g>
          <path id="_Path_65" data-name="&lt;Path&gt;" d="M1379.607,326.4a3.9,3.9,0,1,1-3.912-3.9A3.912,3.912,0,0,1,1379.607,326.4Z" transform="translate(-1187.255 -293.055)" fill="#aae0ff"/>
          <path id="_Path_66" data-name="&lt;Path&gt;" d="M753.107,415.4a3.9,3.9,0,1,1-3.9-3.9A3.908,3.908,0,0,1,753.107,415.4Z" transform="translate(-663.298 -367.488)" fill="#aae0ff"/>
          <path id="_Path_67" data-name="&lt;Path&gt;" d="M1554.492,742.546a2.046,2.046,0,1,1-2.046-2.046A2.033,2.033,0,0,1,1554.492,742.546Z" transform="translate(-1336.623 -642.638)" fill="#fff"/>
          <path id="_Path_68" data-name="&lt;Path&gt;" d="M248.392,765.946a2.046,2.046,0,1,1-2.046-2.046A2.033,2.033,0,0,1,248.392,765.946Z" transform="translate(-244.3 -662.208)" fill="#aae0ff"/>
          <path id="_Path_69" data-name="&lt;Path&gt;" d="M436.007,1211.212a3.9,3.9,0,1,1-3.912-3.912A3.908,3.908,0,0,1,436.007,1211.212Z" transform="translate(-398.1 -1033.035)" fill="#aae0ff"/>
          <g id="_Group_39" data-name="&lt;Group&gt;" transform="translate(92.362 0.556)">
            <path id="_Path_70" data-name="&lt;Path&gt;" d="M831.371,154.593a.674.674,0,0,1-.671-.671v-7.251a.679.679,0,0,1,1.359,0v7.251A.678.678,0,0,1,831.371,154.593Z" transform="translate(-827.083 -146)" fill="#aae0ff"/>
            <path id="_Path_71" data-name="&lt;Path&gt;" d="M808.6,168.787a.678.678,0,0,1,.671-.687h7.251a.679.679,0,0,1,0,1.359h-7.251A.674.674,0,0,1,808.6,168.787Z" transform="translate(-808.6 -164.483)" fill="#aae0ff"/>
          </g>
          <g id="_Group_40" data-name="&lt;Group&gt;" transform="translate(169.355 93.557)">
            <path id="_Path_72" data-name="&lt;Path&gt;" d="M1301.871,722.793a.664.664,0,0,1-.671-.671v-7.234a.671.671,0,1,1,1.342,0v7.234A.664.664,0,0,1,1301.871,722.793Z" transform="translate(-1297.567 -714.2)" fill="#fff"/>
            <path id="_Path_73" data-name="&lt;Path&gt;" d="M1279,737.071a.678.678,0,0,1,.687-.671h7.234a.671.671,0,1,1,0,1.342h-7.234A.678.678,0,0,1,1279,737.071Z" transform="translate(-1279 -732.766)" fill="#fff"/>
          </g>
          <g id="_Group_41" data-name="&lt;Group&gt;" transform="translate(161.99 188.963)">
            <path id="_Path_74" data-name="&lt;Path&gt;" d="M1256.871,1305.693a.664.664,0,0,1-.671-.671v-7.251a.671.671,0,1,1,1.342,0v7.251A.664.664,0,0,1,1256.871,1305.693Z" transform="translate(-1252.567 -1297.1)" fill="#fff"/>
            <path id="_Path_75" data-name="&lt;Path&gt;" d="M1234,1319.871a.689.689,0,0,1,.688-.671h7.234a.679.679,0,1,1,0,1.359h-7.234A.692.692,0,0,1,1234,1319.871Z" transform="translate(-1234 -1315.583)" fill="#fff"/>
          </g>
          <path id="_Path_76" data-name="&lt;Path&gt;" d="M883.037,1008.26a2.169,2.169,0,1,1-2.161-2.161A2.159,2.159,0,0,1,883.037,1008.26Z" transform="translate(-774.864 -864.766)" fill="none" stroke="#fff" stroke-miterlimit="10" stroke-width="4.2"/>
        </g>
      </g>
      <g id="male" transform="translate(301.768 303.136)">
        <g id="_Group_42" data-name="&lt;Group&gt;" transform="translate(0 0)">
          <g id="_Group_43" data-name="&lt;Group&gt;" transform="translate(0 40.954)">
            <path id="_Path_77" data-name="&lt;Path&gt;" d="M1169.362,2137.13h-8.478L1160,2118.7h10.23Z" transform="translate(-1141.94 -1996.75)" fill="#0e0e0e"/>
            <path id="_Path_78" data-name="&lt;Path&gt;" d="M2069.246,2137.13h-8.462l-.884-18.43h10.23Z" transform="translate(-1894.548 -1996.75)" fill="#0e0e0e"/>
            <path id="_Path_79" data-name="&lt;Path&gt;" d="M1296.135,1463.6c-.933,2.913-1.948,5.876-3.061,8.937h-140.7s-18.152-73.916,0-87.419a11.621,11.621,0,0,1,1.67-1.015c24.453-12.57,122.495-15.517,142.4.638q.229.18.442.376C1304.22,1391.844,1310.587,1418.719,1296.135,1463.6Z" transform="translate(-1128.819 -1373.632)" fill="#ea7b00"/>
            <path id="_Path_80" data-name="&lt;Path&gt;" d="M1246.814,1713.2H1193.8l5.172-51.8C1208.22,1665.41,1232.82,1686.59,1246.814,1713.2Z" transform="translate(-1170.208 -1614.299)" fill="#982c20"/>
            <path id="_Path_81" data-name="&lt;Path&gt;" d="M1795.16,1701.423c-.933,2.913-1.948,5.876-3.061,8.937H1741c8.789-16.3,30.084-40.984,50.789-52.36Z" transform="translate(-1627.844 -1611.456)" fill="#982c20"/>
            <path id="_Path_82" data-name="&lt;Path&gt;" d="M1234.6,1657h-19.51a6.546,6.546,0,0,0-6.482,5.679l-6.22,47.041H1088.408l-6.22-47.041a6.546,6.546,0,0,0-6.481-5.679H1056.2a6.528,6.528,0,0,0-6.432,7.676l10.819,78.335h169.633l10.819-78.335A6.527,6.527,0,0,0,1234.6,1657Z" transform="translate(-1049.659 -1610.619)" fill="#ea7b00"/>
            <g id="_Group_44" data-name="&lt;Group&gt;" transform="translate(34.101 71.326)">
              <g id="_Group_45" data-name="&lt;Group&gt;">
                <path id="_Path_83" data-name="&lt;Path&gt;" d="M1375.507,1811.488c9.182,3.077,7.382,22.505,0,25.5H1264.159c-8.315-2.161-9.018-27.858,2.963-25.926C1340.53,1824.86,1344.081,1802.846,1375.507,1811.488Z" transform="translate(-1258.005 -1809.411)" fill="#f2b066"/>
              </g>
            </g>
          </g>
          <g id="_Group_46" data-name="&lt;Group&gt;" transform="translate(57.04)">
            <path id="_Path_84" data-name="&lt;Path&gt;" d="M1457.372,1393.933a100.987,100.987,0,0,0,.769,13.88h52.213l3.093-50.985c-3.11-18.61-11.588-23.127-25.026-23.127-12.03,0-20.05,9.8-24.911,22.947C1459.3,1367.99,1457.437,1381.82,1457.372,1393.933Z" transform="translate(-1447.674 -1299.282)" fill="#007880"/>
            <path id="_Path_85" data-name="&lt;Path&gt;" d="M1457.4,1512.167l18.888-1.129c-10.491-3.437-11.326-19.527-.655-29.544l-12.1-7.594C1459.331,1485.243,1457.466,1500.055,1457.4,1512.167Z" transform="translate(-1447.702 -1416.535)" fill="#005459"/>
            <path id="_Path_86" data-name="&lt;Path&gt;" d="M1435.4,1726.12h71.739V1701.7H1442.52Z" transform="translate(-1429.303 -1607.049)" fill="#0e0e0e"/>
            <g id="_Group_47" data-name="&lt;Group&gt;" transform="translate(52.695 94.502)">
              <g id="_Group_48" data-name="&lt;Group&gt;">
                <path id="_Path_87" data-name="&lt;Path&gt;" d="M1754.406,1717.619l-19.281,70H1720.1c4.763-29.789,3.7-49.152,8.167-73.9C1732.2,1693.411,1759.071,1698.8,1754.406,1717.619Z" transform="translate(-1720.1 -1700.792)" fill="#0e0e0e"/>
              </g>
              <g id="_Group_49" data-name="&lt;Group&gt;" transform="translate(0 73.453)">
                <path id="_Path_88" data-name="&lt;Path&gt;" d="M1778.916,2182.626a.533.533,0,0,0-.016-.131,9.4,9.4,0,0,1,18.806,0v.131Z" transform="translate(-1769.276 -2169.247)" fill="#b15626"/>
                <path id="_Path_89" data-name="&lt;Path&gt;" d="M1740.936,2153.578l-3.4-1.048c-2.259-4.436-11.883-3.879-10.541,1.522a7.091,7.091,0,0,1-5.761-1.326l-1.129,10.213h20.378Z" transform="translate(-1720.1 -2149.561)" fill="#b15626"/>
              </g>
            </g>
            <g id="_Group_50" data-name="&lt;Group&gt;" transform="translate(1.839 94.502)">
              <g id="_Group_51" data-name="&lt;Group&gt;">
                <path id="_Path_90" data-name="&lt;Path&gt;" d="M1409.931,1717.619l19.281,70h15.025c-4.763-29.789-3.7-49.152-8.167-73.9C1432.142,1693.411,1405.266,1698.8,1409.931,1717.619Z" transform="translate(-1409.389 -1700.792)" fill="#0e0e0e"/>
              </g>
              <g id="_Group_52" data-name="&lt;Group&gt;" transform="translate(6.418 73.453)">
                <path id="_Path_91" data-name="&lt;Path&gt;" d="M1467.39,2182.626a.539.539,0,0,0,.016-.131,9.4,9.4,0,0,0-18.806,0v.131Z" transform="translate(-1448.6 -2169.247)" fill="#b15626"/>
                <path id="_Path_92" data-name="&lt;Path&gt;" d="M1495,2153.578l3.4-1.048c2.259-4.436,11.883-3.879,10.541,1.522a7.091,7.091,0,0,0,5.761-1.326l1.129,10.213h-20.378Z" transform="translate(-1487.405 -2149.561)" fill="#b15626"/>
              </g>
            </g>
            <path id="_Path_93" data-name="&lt;Path&gt;" d="M1430.846,1343.7c7.054,4.272,8.053,16.973,4.436,22.031l-20.1,14.993,20.459,10.541-3.323,10.885s-21.36-1.735-31.819-12.472C1390.451,1379.381,1414.937,1349.118,1430.846,1343.7Z" transform="translate(-1398.152 -1307.645)" fill="#007880"/>
            <path id="_Path_94" data-name="&lt;Path&gt;" d="M1654.423,1364.683c-6.023-7.562-1.866-19.265,5.827-18.921,25.026,8.806,32.751,33.275,24.813,44.242-6.792,9.411-36.663,13.029-36.663,13.029v-10.3l20.754-4.485S1658.449,1371.672,1654.423,1364.683Z" transform="translate(-1607.44 -1309.364)" fill="#007880"/>
            <g id="_Group_53" data-name="&lt;Group&gt;" transform="translate(22.742 55.287)">
              <path id="_Path_95" data-name="&lt;Path&gt;" d="M1551.056,1633.663a7.923,7.923,0,0,1,6.825-8.707c9.051-1.637,12.341,3.322,13.192,6.891a1.456,1.456,0,1,1-2.848.589,3.535,3.535,0,0,0-1.588-2.455c.933,1.833.54,3.683-2.013,3.683Z" transform="translate(-1548.732 -1597.883)" fill="#f7a594"/>
              <g id="_Group_54" data-name="&lt;Group&gt;">
                <path id="_Path_96" data-name="&lt;Path&gt;" d="M1559.884,1496.963l7.136-35.763h1.522c-.491,2.455-7.513,38.251-7.726,39.364h-21.376l-2.34-3.6Z" transform="translate(-1537.1 -1461.2)" fill="#99c1ff"/>
                <path id="_Path_97" data-name="&lt;Path&gt;" d="M1689.725,1461.2h53.08l-7.856,39.364H1682Z" transform="translate(-1658.283 -1461.2)" fill="#fff"/>
              </g>
            </g>
            <g id="_Group_55" data-name="&lt;Group&gt;" transform="translate(38.701)">
              <g id="_Group_56" data-name="&lt;Group&gt;" transform="translate(0 22.895)">
                <path id="_Path_98" data-name="&lt;Path&gt;" d="M1634.6,1279.029c0,4.059,12.21,6.76,16.188,2.488a4.515,4.515,0,0,0,1.178-2.422l2.308-10.3-14.584-5.5-.425,1.342Z" transform="translate(-1634.6 -1263.3)" fill="#f7a594"/>
                <path id="_Path_99" data-name="&lt;Path&gt;" d="M1678.789,1288.211l2.308-10.3-13.8-3.715C1663.73,1284.823,1676.464,1293.3,1678.789,1288.211Z" transform="translate(-1661.422 -1272.416)" fill="#f4856d"/>
              </g>
              <path id="_Path_100" data-name="&lt;Path&gt;" d="M1658.848,1151.1c-.753,10.132,7.251,19.052,13.961,19.51,6.727.458,15.975-7.054,16.744-17.186s-5.483-18.872-13.961-19.51S1659.617,1140.965,1658.848,1151.1Z" transform="translate(-1654.838 -1132.162)" fill="#f7a594"/>
              <path id="_Path_101" data-name="&lt;Path&gt;" d="M1668.887,1125.935c9.28-5.892,14.4-.36,19.035,5.516,3.241,4.125,5.532,7.071,9.575,7.693-7.775,9.8-23.307,3.339-28.218-6.482-.475,5.6-7.071,10.23-11.637,9.69C1656.17,1136.132,1660.474,1123.546,1668.887,1125.935Z" transform="translate(-1653.633 -1123.417)" fill="#0e0e0e"/>
              <path id="_Path_102" data-name="&lt;Path&gt;" d="M1645.3,1219.243a4.043,4.043,0,1,0,4.043-4.043A4.031,4.031,0,0,0,1645.3,1219.243Z" transform="translate(-1643.549 -1200.177)" fill="#f7a594"/>
            </g>
          </g>
        </g>
      </g>
    </g>
  </g>
</svg>
