<svg xmlns="http://www.w3.org/2000/svg" xmlns:xlink="http://www.w3.org/1999/xlink" width="484" height="424" viewBox="0 0 484 424">
  <defs>
    <linearGradient id="linear-gradient" x1="-0.076" y1="-0.076" x2="-0.074" y2="-0.076" gradientUnits="objectBoundingBox">
      <stop offset="0" stop-color="#cce4fc"/>
      <stop offset="1" stop-color="#f6f9fe"/>
    </linearGradient>
    <linearGradient id="linear-gradient-2" x1="-0.968" y1="-0.291" x2="-0.965" y2="-0.291" xlink:href="#linear-gradient"/>
    <clipPath id="clip-check-your-well-being-wellness-checker-will-generator">
      <rect width="484" height="424"/>
    </clipPath>
  </defs>
  <g id="check-your-well-being-wellness-checker-will-generator" clip-path="url(#clip-check-your-well-being-wellness-checker-will-generator)">
    <rect id="Rectangle_2" data-name="Rectangle 2" width="484" height="424" rx="15" fill="#fff"/>
    <g id="OBJECTS" transform="translate(-3 -40.7)">
      <g id="_Group_" data-name="&lt;Group&gt;" transform="translate(48 65.7)">
        <g id="_Group_2" data-name="&lt;Group&gt;">
          <path id="_Path_" data-name="&lt;Path&gt;" d="M439.7,252.7a187,187,0,1,1-187-187A186.978,186.978,0,0,1,439.7,252.7Z" transform="translate(-58.079 -65.7)" fill="url(#linear-gradient)"/>
          <g id="_Group_3" data-name="&lt;Group&gt;" transform="translate(0 77.203)">
            <path id="_Path_2" data-name="&lt;Path&gt;" d="M824.577,277.825a3.179,3.179,0,0,1-3.186,3.186H768.429a3.216,3.216,0,0,1-3.229-3.186v-26.7a3.253,3.253,0,0,1,3.229-3.229h52.961a3.216,3.216,0,0,1,3.186,3.229Z" transform="translate(-456.387 -246.651)" fill="#ebf3fe" style="mix-blend-mode: multiply;isolation: isolate"/>
            <path id="_Path_3" data-name="&lt;Path&gt;" d="M165.212,280.7a6.432,6.432,0,0,1-6.416,6.416H101.616A6.432,6.432,0,0,1,95.2,280.7v-29.28A6.432,6.432,0,0,1,101.616,245H158.8a6.432,6.432,0,0,1,6.416,6.416Z" transform="translate(-74.877 -245)" fill="#ebf3fe" style="mix-blend-mode: multiply;isolation: isolate"/>
            <path id="_Path_4" data-name="&lt;Path&gt;" d="M894.563,314.132a5.3,5.3,0,0,1-5.339,5.3H846.6a5.292,5.292,0,0,1-5.3-5.3V291.1a5.292,5.292,0,0,1,5.3-5.3h42.628a5.3,5.3,0,0,1,5.339,5.3Z" transform="translate(-499.72 -268.232)" fill="#ebf3fe" style="mix-blend-mode: multiply;isolation: isolate"/>
            <path id="_Path_5" data-name="&lt;Path&gt;" d="M83.867,337.475a3.593,3.593,0,0,1-3.574,3.574H51.574A3.565,3.565,0,0,1,48,337.475v-15.5a3.565,3.565,0,0,1,3.574-3.574h28.72a3.593,3.593,0,0,1,3.574,3.574Z" transform="translate(-48 -286.795)" fill="#ebf3fe" style="mix-blend-mode: multiply;isolation: isolate"/>
          </g>
        </g>
        <g id="_Group_4" data-name="&lt;Group&gt;" transform="translate(17.352 38.279)">
          <g id="_Group_5" data-name="&lt;Group&gt;" transform="translate(84.997)">
            <g id="_Group_6" data-name="&lt;Group&gt;" transform="translate(13.994)">
              <path id="_Path_6" data-name="&lt;Path&gt;" d="M490.145,448.9a8.609,8.609,0,0,1-8.612,8.612H332.94c-4.779,0-14.64-4.823-14.64-12.7l6.028-276.519a8.582,8.582,0,0,1,8.612-8.612L476.022,154.6c8.052,0,14.123,8.913,14.123,13.692Z" transform="translate(-318.257 -154.6)" fill="#393280"/>
              <path id="_Path_7" data-name="&lt;Path&gt;" d="M484.017,443.821a8.637,8.637,0,0,1-8.612,8.612H326.812a8.609,8.609,0,0,1-8.612-8.612V163.212a8.582,8.582,0,0,1,8.612-8.612H475.405a8.609,8.609,0,0,1,8.612,8.612Z" transform="translate(-318.2 -154.6)" fill="#9c93ee"/>
              <path id="_Path_8" data-name="&lt;Path&gt;" d="M486.556,427.089a7.773,7.773,0,0,1-7.751,7.75H344.593a7.782,7.782,0,0,1-7.794-7.75v-243.8a7.792,7.792,0,0,1,7.794-7.794H478.806a7.782,7.782,0,0,1,7.751,7.794Z" transform="translate(-328.791 -166.501)" fill="url(#linear-gradient-2)"/>
              <path id="_Path_9" data-name="&lt;Path&gt;" d="M506.094,798.776A10.1,10.1,0,1,1,495.976,788.7,10.107,10.107,0,0,1,506.094,798.776Z" transform="translate(-413.691 -515.668)" fill="#adafec" style="mix-blend-mode: screen;isolation: isolate"/>
              <path id="_Compound_Path_" data-name="&lt;Compound Path&gt;" d="M486.556,380.365v6.545h-9.817v24.845q0,.9-.086,1.765a2.518,2.518,0,0,1-.086.56,7.548,7.548,0,0,1-.172,1.163,4.271,4.271,0,0,1-.129.646l-.258,1.033q-.129.344-.258.646-.129.474-.3.947-.172.344-.3.646l-.431.861a2.8,2.8,0,0,1-.344.646,7.6,7.6,0,0,1-.474.818,7.1,7.1,0,0,1-.388.6q-.3.388-.56.775a4.435,4.435,0,0,1-.474.56,7.854,7.854,0,0,1-.646.732c-.172.172-.3.344-.474.517a3.756,3.756,0,0,1-.431.344,14.378,14.378,0,0,0,1.722,4.736c1.722,2.5.344,3.832-1.938,4.349a4.231,4.231,0,0,1-3.143,1.421H453.832a3.412,3.412,0,0,1,.043.56v.431a2,2,0,0,0,.043.387v.947a7.412,7.412,0,0,1,.043.818v.215c.388,8.525,1.163,24.328,1.163,24.328-.3.172-.6.388-.9.56l.6,10.119c.431-.172.818-.3,1.076-.388.9-.258,2.583,3.143,2.368,5.468a1.337,1.337,0,0,1,.775,2.5q-.818.431-1.593.818a3.22,3.22,0,0,1,1.378,2.627,3.253,3.253,0,0,1-3.229,3.229H431.183q-.861.517-1.679,1.033a78.3,78.3,0,0,1-9.473,4.736,1.337,1.337,0,0,1-1.679-1.851c-.172-2.024,1.464-5.641,3.143-8.741a.292.292,0,0,1-.215-.086h-.043l-.086-.086a.651.651,0,0,1-.129-.818,3.943,3.943,0,0,1,1.938-1.679q.344-.56.6-1.033a.388.388,0,0,1-.258-.258c-.172-.9.474-1.593,1.421-2.067a3.858,3.858,0,0,1,2.54-4.134q-.56-.775-1.163-1.593l-.431-.517a.5.5,0,0,0-.086-.129,3.927,3.927,0,0,0-.3-.431.674.674,0,0,1-.129-.172,2.813,2.813,0,0,0-.258-.3l-.172-.258a2.816,2.816,0,0,1-.258-.3,1.412,1.412,0,0,1-.172-.215l-.172-.172a12.745,12.745,0,0,1-2.024.215c-7.449-9.688-15.2-26.093-19.548-37.245v50.034a6.055,6.055,0,0,1-6.028,6.071H348.77V380.365h10.592a2.019,2.019,0,0,1-1.421-.56,6.055,6.055,0,0,1-3.531-5.468v-4.521H336.8V299.2h64.372a6.882,6.882,0,0,1,6.889,6.889v56.837a6.91,6.91,0,0,1-6.889,6.889H379.04v4.521c0,2.11,1.076,1.722,6.631,1.722a2.168,2.168,0,0,1,1.895,1.206h10.377c3.4-2.627,10.463-8.181,14.467-11.712,1.033-.861,2.11-1.852,3.186-2.885a10.822,10.822,0,0,1-3.057-2.842c-6.889-9.774-.388-16.405,2.5-21.744s2.885-13.434,2.2-15.975c-4.306-1.938-3.789-11.281,5.9-14.209,6.889-2.067,23.294-3.186,26.911,6.416a31.35,31.35,0,0,1,1.851,8.482v.043c.172,1.378.258,2.67.344,3.918a2,2,0,0,0,.043.388v.431l.086.861a.382.382,0,0,0,.043.172,5.907,5.907,0,0,0,.043.732.708.708,0,0,1,.043.215,6.971,6.971,0,0,0,.129.818v.086a5.806,5.806,0,0,1,.129.689.382.382,0,0,1,.043.172,6.34,6.34,0,0,0,.215.689h0a5.058,5.058,0,0,0,.215.6.5.5,0,0,1,.086.129,4.325,4.325,0,0,0,.258.517l.043.043a2.266,2.266,0,0,0,.344.431l.086.086a1.27,1.27,0,0,0,.431.344v.043a4.321,4.321,0,0,0,.517.258.331.331,0,0,1,.129.043q.258.086.6.172.215.043.474.086a.33.33,0,0,1,.129.043l.344.086a.708.708,0,0,0,.215.043q.172.043.3.086a.124.124,0,0,0,.086.043h1.292a18.174,18.174,0,0,1,18.171,18.171v12.616c3.789,6.071,5.684,11.583,4.048,13.434a5.87,5.87,0,0,1-2.67,1.076Zm-65.707,6.545h-18.3v29.15A29.89,29.89,0,0,1,407.286,413h0a1.683,1.683,0,0,0,.388-.215,3.013,3.013,0,0,0,.431-.215q.474-.215.99-.431l.517-.258q.258-.129.56-.258a1.085,1.085,0,0,0,.258-.129,3.022,3.022,0,0,1-2.2.344h0q-.215-.086-.129-.344v-.043a2.11,2.11,0,0,1,.129-.215v-.086l.258-.258.043-.043a2.824,2.824,0,0,1,.431-.344l.086-.086a3.916,3.916,0,0,0,.431-.3.54.54,0,0,0,.215-.129,4.809,4.809,0,0,0,.517-.3,1.67,1.67,0,0,0,.215-.086q.431-.215.9-.431c2.54-1.12,6.545-2.583,9.516-3.789Zm0-10.808c-.947.388-1.981.775-3.014,1.163h3.014Zm17.18,79.1c-1.076-6.588-2.024-13.52-2.67-19.678H422.615c4.047,8.784,10.42,27.643,10.42,27.643a.693.693,0,0,0-.172.3l4.478,8.439a1.787,1.787,0,0,0,.344-.258.325.325,0,0,1,.344-.043Zm6.2,16.233c-.172-.947-.431-2.024-.646-3.143l-.431-1.895q-.646-.086-1.163-.172v7.32A3.72,3.72,0,0,1,444.23,471.432Z" transform="translate(-328.791 -236.938)" fill="#ebf5ff" fill-rule="evenodd" style="mix-blend-mode: multiply;isolation: isolate"/>
            </g>
            <g id="_Group_7" data-name="&lt;Group&gt;" transform="translate(0 68.118)">
              <g id="_Group_8" data-name="&lt;Group&gt;" transform="translate(69.237 7.31)">
                <g id="_Group_9" data-name="&lt;Group&gt;" transform="translate(16.233 28.558)">
                  <g id="_Group_10" data-name="&lt;Group&gt;" transform="translate(10.033 96.364)">
                    <path id="_Path_10" data-name="&lt;Path&gt;" d="M544.1,672.431a1.981,1.981,0,0,0,3.961,0v-50.55a1.981,1.981,0,0,0-3.961,0Z" transform="translate(-528.341 -619.9)" fill="#8bced1"/>
                    <path id="_Path_11" data-name="&lt;Path&gt;" d="M544.056,739.929a3.216,3.216,0,0,1-3.229,3.186h-30.1a3.208,3.208,0,1,1,0-6.416h30.1A3.225,3.225,0,0,1,544.056,739.929Z" transform="translate(-507.5 -686.408)" fill="#fff"/>
                    <path id="_Path_12" data-name="&lt;Path&gt;" d="M544.1,635.3v45.9a1.981,1.981,0,0,0,3.961,0V636.247q-1.981-.517-3.961-.947Z" transform="translate(-528.341 -628.669)" fill="#fff"/>
                  </g>
                  <g id="_Group_11" data-name="&lt;Group&gt;" transform="translate(8.612)">
                    <path id="_Path_13" data-name="&lt;Path&gt;" d="M560.132,414.27a18.174,18.174,0,0,0-18.17-18.171H522.37A18.174,18.174,0,0,0,504.2,414.27v58.516a18.174,18.174,0,0,0,18.171,18.171h19.591a18.174,18.174,0,0,0,18.17-18.171Z" transform="translate(-504.2 -396.1)" fill="#adafec"/>
                    <path id="_Path_14" data-name="&lt;Path&gt;" d="M550.332,396.1H530.741a18.047,18.047,0,0,0-11.841,4.435,18.063,18.063,0,0,1,3.057-.258h19.548a18.174,18.174,0,0,1,18.171,18.171v58.516A18.111,18.111,0,0,1,553.39,490.7,18.187,18.187,0,0,0,568.5,472.786V414.271A18.174,18.174,0,0,0,550.332,396.1Z" transform="translate(-512.57 -396.1)" fill="#393280" opacity="0.5" style="mix-blend-mode: multiply;isolation: isolate"/>
                  </g>
                  <path id="_Path_15" data-name="&lt;Path&gt;" d="M543.706,614.434a4.135,4.135,0,0,1-4.134,4.134H488.334a4.134,4.134,0,1,1,0-8.267h51.239A4.135,4.135,0,0,1,543.706,614.434Z" transform="translate(-484.2 -518.07)" fill="#adafec"/>
                </g>
                <g id="_Group_12" data-name="&lt;Group&gt;">
                  <g id="_Group_13" data-name="&lt;Group&gt;" transform="translate(3.04 98.743)">
                    <g id="_Group_14" data-name="&lt;Group&gt;" transform="translate(0 0.796)">
                      <g id="_Group_15" data-name="&lt;Group&gt;" transform="translate(19.173 55.352)">
                        <g id="_Group_16" data-name="&lt;Group&gt;" transform="translate(2.847)">
                          <path id="_Path_16" data-name="&lt;Path&gt;" d="M504.7,693.418s7.794,9.258,8.181,11.023c0,0,4.306,1.033,8.784-3.1L515.378,689.5Z" transform="translate(-504.7 -689.5)" fill="#ffd5cf"/>
                          <path id="_Path_17" data-name="&lt;Path&gt;" d="M518.479,695.356l-3.1-5.856L504.7,693.418s2.756,3.272,5.081,6.286a28.482,28.482,0,0,0,7.492-3.574C517.574,695.916,518.005,695.657,518.479,695.356Z" transform="translate(-504.7 -689.5)" fill="#ffbdae"/>
                        </g>
                        <g id="_Group_17" data-name="&lt;Group&gt;" transform="translate(0 10.215)">
                          <g id="_Group_18" data-name="&lt;Group&gt;" transform="translate(0.161)">
                            <path id="_Path_18" data-name="&lt;Path&gt;" d="M521.428,719.844c-9.344,8.31-22.649,14.812-22.649,14.812-1.938-2.842,5.6-14.424,6.071-15.458-.9-4.995,6.8-6.459,7.707-3.014,2.153.043,4.22-2.153,5.21-2.885C518.8,712.524,523.8,717.863,521.428,719.844Z" transform="translate(-498.462 -713.223)" fill="#30393e"/>
                            <path id="_Path_19" data-name="&lt;Path&gt;" d="M530.887,713.3c-.431.3-1.076.9-1.851,1.507-.732,3.057-2.885,6.028-4.607,8.482a17.762,17.762,0,0,0-2.928,6.028,97.814,97.814,0,0,0,13.047-9.473C536.915,717.863,531.92,712.524,530.887,713.3Z" transform="translate(-511.58 -713.223)" fill="#1a1f21"/>
                          </g>
                          <g id="_Group_19" data-name="&lt;Group&gt;" transform="translate(0 4.229)">
                            <path id="_Path_20" data-name="&lt;Path&gt;" d="M509.374,736.373a75.151,75.151,0,0,1-9.473,4.779,1.344,1.344,0,0,1-.99-2.5c.172-.043,14.166-5.684,22.39-15.156a1.329,1.329,0,0,1,2.024,1.722A56.725,56.725,0,0,1,509.374,736.373Z" transform="translate(-498.087 -723.044)" fill="#fff"/>
                          </g>
                          <g id="_Group_20" data-name="&lt;Group&gt;" transform="translate(5.054 4.901)">
                            <path id="_Path_21" data-name="&lt;Path&gt;" d="M510.331,727.7c.431-.172.689-.517,1.12-.732a7.491,7.491,0,0,1,1.679-.474c1.12-.172,2.411.215,3.488-.086a.832.832,0,0,0,.129-1.507c-1.507-.818-7.406.043-6.889,2.584a.367.367,0,0,0,.474.215Z" transform="translate(-509.826 -724.606)" fill="#fff"/>
                          </g>
                          <g id="_Group_21" data-name="&lt;Group&gt;" transform="translate(2.732 8.311)">
                            <path id="_Path_22" data-name="&lt;Path&gt;" d="M504.762,735.83a.038.038,0,0,0,.043.043.59.59,0,0,0,.646-.043,9.92,9.92,0,0,1,6.889-1.378c.775.086,1.249-.947.517-1.335-2.282-1.206-7.018-.56-8.353,1.852a.724.724,0,0,0,.129.818A.33.33,0,0,0,504.762,735.83Z" transform="translate(-504.431 -732.526)" fill="#fff"/>
                          </g>
                        </g>
                      </g>
                      <g id="_Group_22" data-name="&lt;Group&gt;">
                        <path id="_Path_23" data-name="&lt;Path&gt;" d="M483.373,561.013s-25.189,4.392-29.753,14.123c-1.033,2.282,11.367,33.887,23.036,49.043,0,0,7.148.129,10.894-6.071,0,0-7.664-22.821-11.583-29.968,0,0,14.855-.431,18.515-1.335S513.9,559.463,483.373,561.013Z" transform="translate(-453.56 -560.948)" fill="#9b68c4"/>
                        <path id="_Path_24" data-name="&lt;Path&gt;" d="M494.272,561.013s-12.573,2.2-21.572,6.932c5.425-1.206,10.98-1.765,16.061-.388,7.88,1.808,4.521,6.329.3,10.291-4.564,4.22-9.387,7.234-6.674,13.908,2.411,6.674,6.373,11.5,7.88,18.773.818,4.177,1.249,8.482,1.852,12.745a12.141,12.141,0,0,0,6.33-5.167s-7.664-22.821-11.583-29.968c0,0,14.855-.431,18.515-1.335S524.8,559.463,494.272,561.013Z" transform="translate(-464.458 -560.948)" fill="#633870"/>
                        <path id="_Path_25" data-name="&lt;Path&gt;" d="M531.912,576.927c.086-5.727,5.3-7.363,8.224-11.2q-.689-.388-1.464-.732c-4,1.249-7.88,2.842-9.387,6.588-1.033,2.454-.474,7.578-.388,10.162.129,2.627,1.981,8.095,2.584,8.052s1.177-.1,1.722-.129C533.72,585.5,531.869,581.147,531.912,576.927Z" transform="translate(-496.328 -563.255)" fill="#4b2b56"/>
                      </g>
                    </g>
                    <g id="_Group_23" data-name="&lt;Group&gt;" transform="translate(31.146)">
                      <g id="_Group_24" data-name="&lt;Group&gt;" transform="translate(0 53.392)">
                        <g id="_Group_25" data-name="&lt;Group&gt;" transform="translate(11.8)">
                          <path id="_Path_26" data-name="&lt;Path&gt;" d="M553.3,685.856s2.713,11.367,2.8,13.176c0,0,5.124,5.511,10.2,2.11L565.227,683.1Z" transform="translate(-553.3 -683.1)" fill="#ffd5cf"/>
                          <path id="_Path_27" data-name="&lt;Path&gt;" d="M565.873,693.865l-.646-10.765L553.3,685.856s.861,3.531,1.593,6.975A37.333,37.333,0,0,0,565.873,693.865Z" transform="translate(-553.3 -683.1)" fill="#ffbdae"/>
                        </g>
                        <g id="_Group_26" data-name="&lt;Group&gt;" transform="translate(0 12.568)">
                          <path id="_Path_28" data-name="&lt;Path&gt;" d="M553.181,722.025c-11.669,4.478-26.438,5.813-26.438,5.813-.818-3.359,10.377-11.5,11.152-12.272.9-4.995,8.655-3.66,8.31-.129,1.981.818,4.693-.474,5.9-.861C553.31,714.231,556.109,721.034,553.181,722.025Z" transform="translate(-526.354 -712.288)" fill="#30393e"/>
                          <g id="_Group_27" data-name="&lt;Group&gt;" transform="translate(0 7.775)">
                            <path id="_Path_29" data-name="&lt;Path&gt;" d="M537.781,738.334a77.978,77.978,0,0,1-10.549,1.12,1.341,1.341,0,0,1-1.335-1.335,1.279,1.279,0,0,1,1.292-1.335c.129,0,15.286-.3,26.309-6.286a1.339,1.339,0,0,1,1.249,2.368,58.016,58.016,0,0,1-16.965,5.468Z" transform="translate(-525.895 -730.344)" fill="#fff"/>
                          </g>
                          <g id="_Group_28" data-name="&lt;Group&gt;" transform="translate(9.555 2.948)">
                            <path id="_Path_30" data-name="&lt;Path&gt;" d="M548.437,721.015c.474-.043.818-.3,1.292-.3a6,6,0,0,1,1.766.129c1.119.258,2.153,1.076,3.272,1.163a.83.83,0,0,0,.646-1.378c-1.12-1.292-6.889-2.583-7.32,0-.043.172.172.387.344.387Z" transform="translate(-548.087 -719.136)" fill="#fff"/>
                          </g>
                          <g id="_Group_29" data-name="&lt;Group&gt;" transform="translate(6.142 5.483)">
                            <path id="_Path_31" data-name="&lt;Path&gt;" d="M540.306,726.865h0a.711.711,0,0,0,.646.215,9.993,9.993,0,0,1,6.932,1.12c.689.388,1.507-.388.947-1.033-1.722-1.938-6.373-3.014-8.439-1.249a.738.738,0,0,0-.172.818.5.5,0,0,1,.086.129Z" transform="translate(-540.159 -725.023)" fill="#fff"/>
                          </g>
                        </g>
                      </g>
                      <g id="_Group_30" data-name="&lt;Group&gt;" transform="translate(4.265)">
                        <path id="_Path_32" data-name="&lt;Path&gt;" d="M545.876,560.908s-8.138,4.091-9.688,9.99c-1.507,5.9,1.636,31.346,5.124,48.742a17.151,17.151,0,0,0,15.156-2.584s-1.378-28.117-1.292-29.667c.086-1.507,10.033-.732,11.8-3.445,1.765-2.756,3.1-17.74,0-24.844Z" transform="translate(-535.801 -559.1)" fill="#9b68c4"/>
                        <path id="_Path_33" data-name="&lt;Path&gt;" d="M567.088,559.1l-21.1,1.808S537.852,565,536.3,570.9a17.583,17.583,0,0,0-.3,2.11c2.11.99,6.846.431,7.88.431,3.918,0,12.1,2.756,10.291,8.181-.6,1.808-2.756,2.411-3.057,3.961-.6,2.11,1.249,4.22,1.852,6.028,1.765,4.047,2.067,8.095,2.971,11.97-.344-7.449-.689-15.372-.646-16.19.086-1.507,10.033-.732,11.8-3.445,1.765-2.756,3.1-17.74,0-24.845Z" transform="translate(-535.914 -559.1)" fill="#633870"/>
                      </g>
                    </g>
                  </g>
                  <g id="_Group_31" data-name="&lt;Group&gt;" transform="translate(13.506)">
                    <path id="_Path_34" data-name="&lt;Path&gt;" d="M485.589,345.373c-4.306-1.938-3.789-11.238,5.9-14.166,6.932-2.11,23.294-3.186,26.954,6.373,3.617,9.6.474,19.462,5.641,20.367,5.167.947,16.448,7.018,4.866,20.625-11.626,13.606-41.207,14.338-48.053,4.521-6.846-9.774-.344-16.405,2.54-21.7,2.842-5.339,2.885-13.477,2.153-16.018Z" transform="translate(-477.868 -329.776)" fill="#633870"/>
                    <path id="_Path_35" data-name="&lt;Path&gt;" d="M526.7,384.513a8.11,8.11,0,0,0-4.306-4.306c-5.382-.388-9.688-16.147-9.688-16.147-2.842-1.033-15.63-3.66-15.63-3.66-2.54,2.239-2.067,7.191-2.067,10.119,0,4.823-2.024,10.377-.3,15.027,1.119,3.014,6.243,5.038,4.435,8.569-1.421,2.842-3.918,5.038-5.468,7.88a11.365,11.365,0,0,0-.775,1.636c7.062,4.349,20.5,4.779,31.6.818,1.12-5.9,3.143-17.525,2.2-19.936Z" transform="translate(-486.427 -347.214)" fill="#4b2b56"/>
                    <path id="_Path_36" data-name="&lt;Path&gt;" d="M575.265,377.833c-3.832-.689-3.1-6.33-3.961-13.133-.775,2.11-1.722,4.177-2.411,6.416-.9,3.057-2.5,8.095,1.119,9.9,3.531,1.722,7.277,2.11,10.291,4.866a8.632,8.632,0,0,1,2.8,8.439C589.345,383.6,579.872,378.694,575.265,377.833Z" transform="translate(-529.049 -349.662)" fill="#4b2b56"/>
                    <g id="_Group_32" data-name="&lt;Group&gt;" transform="translate(2.24 1.859)">
                      <g id="_Group_33" data-name="&lt;Group&gt;" transform="translate(5.456)">
                        <path id="_Path_37" data-name="&lt;Path&gt;" d="M496.628,345.377c-.689-3.875,1.765-7.018,4.995-8.784,2.411-1.335,5.425-1.507,8.095-2.067a.22.22,0,0,0-.086-.431c-3.617.258-7.363.56-10.42,2.756-2.842,2.024-4.306,5.425-2.971,8.612A.2.2,0,1,0,496.628,345.377Z" transform="translate(-495.742 -334.093)" fill="#8a41b6"/>
                      </g>
                      <g id="_Group_34" data-name="&lt;Group&gt;" transform="translate(0 31.608)">
                        <path id="_Path_38" data-name="&lt;Path&gt;" d="M487.562,407.5c-1.55,2.8-4.349,5.6-4.478,8.956-.129,2.713.732,5.6,3.186,7.018.344.172.775-.215.56-.517-1.981-2.54-3.315-4.779-2.54-8.138.6-2.54,2.454-4.779,3.315-7.32h-.043Z" transform="translate(-483.071 -407.5)" fill="#8a41b6"/>
                      </g>
                      <g id="_Group_35" data-name="&lt;Group&gt;" transform="translate(24.629 0.186)">
                        <path id="_Path_39" data-name="&lt;Path&gt;" d="M540.413,334.557c-.99,4.779,3.4,9.559,7.363,11.669a.294.294,0,0,0,.344-.474c-3.272-3.186-7.793-5.942-7.621-11.2C540.5,334.514,540.413,334.514,540.413,334.557Z" transform="translate(-540.271 -334.525)" fill="#8a41b6"/>
                      </g>
                      <g id="_Group_36" data-name="&lt;Group&gt;" transform="translate(16.059 0.511)">
                        <path id="_Path_40" data-name="&lt;Path&gt;" d="M526.668,335.289a7.655,7.655,0,0,0-4.564,2.756c-1.033,1.378-2.067,3.4-1.636,5.167a.378.378,0,0,0,.689.086c.689-1.464.689-3.014,1.55-4.478a8.591,8.591,0,0,1,4-3.4C526.754,335.375,526.711,335.245,526.668,335.289Z" transform="translate(-520.367 -335.28)" fill="#8a41b6"/>
                      </g>
                    </g>
                  </g>
                  <g id="_Group_37" data-name="&lt;Group&gt;" transform="translate(0 38.514)">
                    <path id="_Path_41" data-name="&lt;Path&gt;" d="M521.34,431.666c-.344,3.7-2.024,47.192-2.756,50.034-.689,2.842,29.064,3.746,32.121,0,3.014-3.746-3.66-56.794-10.119-58.9-6.459-2.153-18.558.775-19.247,8.87Z" transform="translate(-487.539 -420.869)" fill="#30393e"/>
                    <g id="_Group_38" data-name="&lt;Group&gt;" transform="translate(0 3.004)">
                      <path id="_Path_42" data-name="&lt;Path&gt;" d="M485.338,439.419c-.086-6.243-.9-13.219-.9-13.219-2.411,1.033-8.181,3.832-8.956,4.823a2.079,2.079,0,0,0-.3.9c-2.153,2.239-7.923,8.052-12.228,11.841C457.48,448.5,446.5,456.987,446.5,456.987a17.505,17.505,0,0,0,7.75,2.627c3.574.172,18.386-5.77,22.347-7.363-.086,11.583-.99,28.461-1.335,29.28-.517,1.076-9.085,3.918-13.434,5.813-4.349,1.938-4.047,3.66-.818,2.325,3.229-1.292,18.989-3.617,20.453-7.234,1.507-3.66,3.961-36.729,3.875-43.015Z" transform="translate(-446.5 -426.2)" fill="#fff9f3"/>
                      <path id="_Path_43" data-name="&lt;Path&gt;" d="M485.042,503.873c.9-5.9,1.033-11.884,1.851-17.74.431-3.057-.775-12.444-2.5-12.142a40.362,40.362,0,0,0-11.41,4.22c-5.21,2.5-10.248,5.3-15.286,8.138a15.406,15.406,0,0,0,2.928.474c3.574.172,18.386-5.77,22.347-7.363-.086,11.583-.99,28.461-1.335,29.28-.517,1.076-9.085,3.918-13.434,5.813-2.8,1.249-3.66,2.368-3.057,2.713,4.564-1.808,9.171-3.531,13.606-5.554,3.617-1.765,5.727-3.875,6.286-7.837Z" transform="translate(-452.878 -453.409)" fill="#eadfd3"/>
                    </g>
                    <g id="_Group_39" data-name="&lt;Group&gt;" transform="translate(38.212 0.507)">
                      <path id="_Path_44" data-name="&lt;Path&gt;" d="M545.689,420.4s-.56,24.8-.6,32.164-1.765,27.557-4.177,29.581-5.985,5.942-5.641,11.109c.086,1.593,1.895.3,3.315-1.636,1.421-1.895,9.387-4.521,14.64-.215,5.253,4.349,8.267,15.544,12.1,17.094,3.832,1.507,11.626.775,8.4-3.832-3.229-4.65-1.938-17.266-6.157-23.251-2.842-4-2.11-27.213-3.359-36.427C563,435.815,556.2,420.787,545.689,420.4Z" transform="translate(-535.246 -420.4)" fill="#fff9f3"/>
                      <path id="_Path_45" data-name="&lt;Path&gt;" d="M570.846,459.866c2.325.3,4.693.6,7.018.9-.172-5.3-.388-10.291-.818-13.563-.947-7.406-5.641-18.644-12.917-22.907,1.938,3.143,3.875,6.373,5.6,9.645,1.335,2.54,2.842,5.3,3.143,8.181.517,4.952-4.779,6.545-8.569,7.793-2.11.646-4.22,1.206-6.329,1.808,0,1.206-.043,2.239-.043,3.057,0,1.12-.043,2.54-.129,4.177,1.464,0,2.928.043,4.392.043A74.551,74.551,0,0,1,570.846,459.866Z" transform="translate(-548.089 -422.621)" fill="#f4ebe4"/>
                      <path id="_Path_46" data-name="&lt;Path&gt;" d="M577.44,518.86q-.086-2.024-.172-4.09c-3.531,0-7.062.129-10.592.172-2.842,0-6.76-.56-9.86.215q-.086,1.292-.215,2.627c2.713.947,6.286.732,8.87.818C569.474,518.731,573.436,518.86,577.44,518.86Z" transform="translate(-547.405 -474.122)" fill="#eadfd3"/>
                      <path id="_Path_47" data-name="&lt;Path&gt;" d="M564.931,554.367c-.474-.129-.99-.129-1.507-.3-2.454-.818-13.908-.258-16.75-1.507a.28.28,0,0,0-.344.431,6.763,6.763,0,0,0,4.478,2.11c-1.12.3-2.2.689-3.229,1.076-4.607,1.852-7.793,4.909-9.085,9.731-.043.172.215.344.344.172,2.842-3.574,5.985-6.5,10.291-8.138a32.977,32.977,0,0,1,7.664-1.722c2.713-.3,5.511,0,8.138-.646A.617.617,0,0,0,564.931,554.367Z" transform="translate(-537.093 -495.636)" fill="#eadfd3"/>
                    </g>
                    <g id="_Group_40" data-name="&lt;Group&gt;" transform="translate(46.675)">
                      <g id="_Group_41" data-name="&lt;Group&gt;" transform="translate(1.116 0.797)">
                        <path id="_Path_48" data-name="&lt;Path&gt;" d="M561.543,421.172c-.9,3.186.3,6.674-.215,9.946-.258,1.507-.646,2.928-.775,4.478-.172,2.11.517,4.349.646,6.416.258,4.392-1.249,8.87-2.024,13.133a94.674,94.674,0,0,0-1.679,10.377c-.043.172.3.215.3.043,1.464-7.664,5.3-14.554,5.856-22.476a31.7,31.7,0,0,0-.258-5.339,34.226,34.226,0,0,1,.344-6.286c.3-3.445-.818-7.1-1.981-10.291-.043-.129-.215-.129-.215,0Z" transform="translate(-557.491 -421.075)" fill="#f4ebe4"/>
                      </g>
                      <path id="_Path_49" data-name="&lt;Path&gt;" d="M556.278,419.73s-.388,42.111-1.378,50.464c0,0,4.047-16.276,5.081-23.553a47.27,47.27,0,0,0,0-13,15.736,15.736,0,0,0,1.55-5.554c.172-2.583-.861-7.88-1.765-8.353A3.28,3.28,0,0,0,556.278,419.73Z" transform="translate(-554.9 -419.223)" fill="#fff9f3"/>
                    </g>
                    <g id="_Group_42" data-name="&lt;Group&gt;" transform="translate(31.867 2.535)">
                      <g id="_Group_43" data-name="&lt;Group&gt;" transform="translate(0 1.749)">
                        <path id="_Path_50" data-name="&lt;Path&gt;" d="M523.089,429.269c-1.507,1.938-1.938,4.22-2.454,6.545-.56,2.67.9,4.995,1.636,7.535.99,3.574.6,7.621.775,11.281a79.767,79.767,0,0,0,1.163,10.162c.043.215.344.172.388-.043a69.939,69.939,0,0,0-.388-9c-.215-3.186.258-6.373.344-9.559a14.758,14.758,0,0,0-1.421-6.5c-1.507-3.4-.215-6.631.474-10.119C523.649,429.313,523.3,429.011,523.089,429.269Z" transform="translate(-520.51 -429.171)" fill="#f4ebe4"/>
                      </g>
                      <path id="_Path_51" data-name="&lt;Path&gt;" d="M528.619,425.364s1.464,37.159-1.981,49.258l-1.421-34.7a15.736,15.736,0,0,1-1.55-5.554c-.215-2.584,1.033-7.621,1.722-8.353A2.869,2.869,0,0,1,528.619,425.364Z" transform="translate(-522.294 -425.109)" fill="#fff9f3"/>
                    </g>
                    <g id="_Group_44" data-name="&lt;Group&gt;" transform="translate(32.653 28.513)">
                      <g id="_Group_45" data-name="&lt;Group&gt;" transform="translate(0 2.183)">
                        <path id="_Path_52" data-name="&lt;Path&gt;" d="M522.406,495.157c.646,1.249,8.353,1.033,12.616,1.033,3.316,0,3.574-5.253-.99-5.641C529.468,490.119,521.5,493.434,522.406,495.157Z" transform="translate(-522.335 -490.511)" fill="#5b6d75"/>
                        <path id="_Path_53" data-name="&lt;Path&gt;" d="M536.859,490.554a19.5,19.5,0,0,0-9.559,2.325c.9,1.292,4.435.474,5.641.431a4.475,4.475,0,0,1,2.971,1.119,3.3,3.3,0,0,1,1.076,1.765h.861C541.165,496.194,541.423,490.941,536.859,490.554Z" transform="translate(-525.162 -490.515)" fill="#5b6d75" opacity="0.3" style="mix-blend-mode: multiply;isolation: isolate"/>
                      </g>
                      <path id="_Path_54" data-name="&lt;Path&gt;" d="M543.435,486.07s-7.148-.775-8.612-.6-5.339,2.928-5.425,3.789c-.043.9,1.12.9,1.765.56.6-.3,2.756-1.895,3.7-1.938.99-.043,3.918,3.832,8.741,2.153,1.076-.387,1.55-3.229-.172-3.961Z" transform="translate(-526.357 -485.442)" fill="#ffd5cf"/>
                      <path id="_Path_55" data-name="&lt;Path&gt;" d="M559.025,486.558s-.947-.129-2.239-.258v1.679c0,.99-.043,1.981.043,2.971a6.909,6.909,0,0,0,2.368-.431c1.076-.388,1.55-3.229-.172-3.961Z" transform="translate(-541.946 -485.931)" fill="#ffbdae"/>
                    </g>
                    <g id="_Group_46" data-name="&lt;Group&gt;" transform="translate(48.501 1.012)">
                      <path id="_Path_56" data-name="&lt;Path&gt;" d="M563.953,421.8c-2.024.431,17.008,23.251,15.544,24.242-1.507.99-19.678,1.679-20.194,2.583-.56.947.689,6.889,0,7.794-.732.947,33.112,1.765,36.126-1.593,4.435-4.866-16.405-36.212-31.475-33.026Z" transform="translate(-559.149 -421.573)" fill="#fff9f3"/>
                      <path id="_Path_57" data-name="&lt;Path&gt;" d="M565.582,449.878c4.134-1.722,8.784-1.507,13.219-1.808,2.454-.129,6.889-.431,5.081-4a26.164,26.164,0,0,0-4.306-5.21c-2.024-2.11-4.134-4.22-6.028-6.459a23.288,23.288,0,0,1-5.684-10.678,10.881,10.881,0,0,0-3.918.086c-2.024.431,17.008,23.251,15.544,24.242-1.507.99-19.678,1.679-20.194,2.583-.474.775.3,4.909.215,6.889A13.771,13.771,0,0,1,565.582,449.878Z" transform="translate(-559.141 -421.577)" fill="#fff"/>
                    </g>
                    <g id="_Group_47" data-name="&lt;Group&gt;" transform="translate(68.628 83.498)">
                      <g id="_Group_48" data-name="&lt;Group&gt;">
                        <path id="_Path_58" data-name="&lt;Path&gt;" d="M605.891,613.64c.517,2.584,6.459,4.349,7.32,1.292a1.432,1.432,0,0,0-.947-1.722c-.99-.258-1.938.3-2.928.3s-2.067-.474-3.057-.344A.389.389,0,0,0,605.891,613.64Z" transform="translate(-605.885 -613.142)" fill="#eadfd3"/>
                      </g>
                    </g>
                  </g>
                  <g id="_Group_49" data-name="&lt;Group&gt;" transform="translate(21.354 12.815)">
                    <g id="_Group_50" data-name="&lt;Group&gt;" transform="translate(16.968 21.685)">
                      <path id="_Path_59" data-name="&lt;Path&gt;" d="M535.5,412.268s.947,7.277.947,8.784c-.043,1.507,8.353.431,8.439-2.024.086-2.411-2.928-9.128-2.928-9.128Z" transform="translate(-535.5 -409.9)" fill="#ffd5cf"/>
                      <path id="_Path_60" data-name="&lt;Path&gt;" d="M543.423,413.431c-.732-1.938-1.464-3.531-1.464-3.531l-6.459,2.368s.388,2.885.646,5.425a21.943,21.943,0,0,0,5.382-2.756C542.174,414.464,542.777,413.947,543.423,413.431Z" transform="translate(-535.5 -409.9)" fill="#ffbdae"/>
                    </g>
                    <g id="_Group_51" data-name="&lt;Group&gt;" transform="translate(0.559)">
                      <path id="_Path_61" data-name="&lt;Path&gt;" d="M499.634,359.909s-5.555,13.736.818,22.692c6.33,8.956,21.314,1.852,23.079-2.282,0,0-2.2-1.808-2.756-7.363s-2.5-15.458-21.142-13.047Z" transform="translate(-497.391 -359.537)" fill="#ffd5cf"/>
                      <path id="_Path_62" data-name="&lt;Path&gt;" d="M514.648,363.87a16.545,16.545,0,0,1,4.607,4c1.679,2.2,3.574,7.191,4.134,7.621-.043-.431-.344-2.067-.388-2.54-.56-5.555-2.5-15.458-21.142-13.047,0,0-.258.6-.56,1.593,4.607-.387,9.387-.086,13.348,2.368Z" transform="translate(-499.617 -359.537)" fill="#ffbdae"/>
                    </g>
                    <g id="_Group_52" data-name="&lt;Group&gt;" transform="translate(0 7.606)">
                      <path id="_Path_63" data-name="&lt;Path&gt;" d="M515.532,404.056a5.849,5.849,0,0,0-.129,1.249,3.12,3.12,0,0,1-.775,1.55c-.689.732-2.024.818-2.971.9-.043,0-.043.043,0,.086a3.507,3.507,0,0,0,3.488-.344,2.818,2.818,0,0,0,.818-3.488c-.086-.215-.344-.172-.431.043Z" transform="translate(-504.937 -392.387)" fill="#ff8f8f"/>
                      <g id="_Group_53" data-name="&lt;Group&gt;" transform="translate(2.052 4.548)">
                        <path id="_Path_64" data-name="&lt;Path&gt;" d="M524.206,388.123a.261.261,0,0,0-.474-.215,2.789,2.789,0,0,1-1.722,1.55c-.258.086-.689.215-.818-.086a4.03,4.03,0,0,1-.3-.947.15.15,0,0,0-.215-.043,1.892,1.892,0,0,0-.258,1.421,1.221,1.221,0,0,0,1.206.732C522.828,390.621,524.034,389.2,524.206,388.123Z" transform="translate(-511.96 -387.763)" fill="#4b2b56"/>
                        <path id="_Path_65" data-name="&lt;Path&gt;" d="M503.245,388.5a2.24,2.24,0,0,1-1.464,1.249c-.56.172-.56-.732-.56-1.076,0-.043-.043-.043-.043,0-.388.6-.56,1.464.3,1.765,1.076.344,1.938-.818,2.282-1.636C503.891,388.456,503.417,388.154,503.245,388.5Z" transform="translate(-500.86 -388.095)" fill="#4b2b56"/>
                      </g>
                      <path id="_Path_66" data-name="&lt;Path&gt;" d="M529.2,392.107a6,6,0,0,0-1.292.646,4.9,4.9,0,0,0-.818.517,1.535,1.535,0,0,0,.56,2.627,3.457,3.457,0,0,0,2.5-.517,2.445,2.445,0,0,0,1.722-2.067c.043-1.335-1.722-1.55-2.67-1.206Z" transform="translate(-513.44 -385.606)" fill="#ff8f8f"/>
                      <path id="_Path_67" data-name="&lt;Path&gt;" d="M497.259,391.691c-.689-.086-1.206.689-1.163,1.335l.043.043a.124.124,0,0,1-.043.086,1.778,1.778,0,0,0,.818,1.464,1.522,1.522,0,0,0,.818.258,1.327,1.327,0,0,0,1.077-.6,1.5,1.5,0,0,0-.172-1.722A1.847,1.847,0,0,0,497.259,391.691Z" transform="translate(-496.093 -385.448)" fill="#ff8f8f"/>
                      <path id="_Path_68" data-name="&lt;Path&gt;" d="M524.04,377.545a1.664,1.664,0,0,1,1.12,0,2.065,2.065,0,0,1,.861.732c.129.129.388,0,.344-.172A1.9,1.9,0,0,0,524,377.33c-.129.043-.086.258.043.215Z" transform="translate(-511.938 -377.201)" fill="#4b2b56"/>
                      <path id="_Path_69" data-name="&lt;Path&gt;" d="M503.719,378.845a1.8,1.8,0,0,0-1.163.043c-.388.129-.56.431-.818.732-.129.129-.388-.043-.344-.215a1.9,1.9,0,0,1,2.368-.775C503.891,378.673,503.848,378.888,503.719,378.845Z" transform="translate(-499.109 -377.941)" fill="#4b2b56"/>
                      <g id="_Group_54" data-name="&lt;Group&gt;" transform="translate(3.931 6.492)">
                        <path id="_Path_70" data-name="&lt;Path&gt;" d="M507.625,392.5c-.086.517-.6,2.8-1.679,3.315a1.309,1.309,0,0,0,.344,2.454c1.378.388,2.67-.947,2.627-2.713s-1.076-4-1.292-3.057Z" transform="translate(-505.224 -392.277)" fill="#ff8f8f"/>
                        <path id="_Path_71" data-name="&lt;Path&gt;" d="M509.393,392.4a7.588,7.588,0,0,1-1.593,5.942c1.378.344,2.627-.99,2.583-2.713A6.3,6.3,0,0,0,509.393,392.4Z" transform="translate(-506.691 -392.347)" fill="#ea8686"/>
                        <g id="_Group_55" data-name="&lt;Group&gt;" transform="translate(0.141 3.816)">
                          <path id="_Path_72" data-name="&lt;Path&gt;" d="M506.132,402.07c.086-.3.258-.431.215-.732a.185.185,0,0,0-.172-.172c-.56-.172-.732.56-.56.947A.277.277,0,0,0,506.132,402.07Z" transform="translate(-505.552 -401.14)" fill="#ffa4a4"/>
                        </g>
                        <g id="_Group_56" data-name="&lt;Group&gt;" transform="translate(1.032 3.153)">
                          <path id="_Path_73" data-name="&lt;Path&gt;" d="M508.214,400.117c.043-.086.086-.129.086-.215a.229.229,0,0,0-.215-.3.622.622,0,0,0-.3.086C507.353,399.9,507.87,400.59,508.214,400.117Z" transform="translate(-507.62 -399.6)" fill="#ffa4a4"/>
                        </g>
                      </g>
                    </g>
                    <g id="_Group_57" data-name="&lt;Group&gt;" transform="translate(21.661 15.442)">
                      <path id="_Path_74" data-name="&lt;Path&gt;" d="M555.012,399.663a4.306,4.306,0,1,1-4.306-4.263A4.319,4.319,0,0,1,555.012,399.663Z" transform="translate(-546.4 -395.4)" fill="#ffd5cf"/>
                      <path id="_Path_75" data-name="&lt;Path&gt;" d="M552.977,402.116a2.535,2.535,0,0,0-.646.258,3.011,3.011,0,0,1,.215-.431,3.269,3.269,0,0,1,2.713-1.249c.043,0,.086-.129,0-.129a2.858,2.858,0,0,0-2.971.861,3.407,3.407,0,0,0-.56,4,.282.282,0,0,0,.517-.215V405a5.513,5.513,0,0,0,.129-.732,1.372,1.372,0,0,1,.775-1.076c.732-.344,1.765-.129,1.895.732.086.474.818.344.818-.086C555.862,402.331,554.269,401.857,552.977,402.116Z" transform="translate(-549.188 -398.283)" fill="#ffbdae"/>
                    </g>
                  </g>
                </g>
              </g>
              <g id="_Group_58" data-name="&lt;Group&gt;">
                <g id="_Group_59" data-name="&lt;Group&gt;">
                  <g id="_Group_60" data-name="&lt;Group&gt;">
                    <path id="_Path_76" data-name="&lt;Path&gt;" d="M367.037,376.526a6.882,6.882,0,0,1-6.889,6.889H292.589a6.882,6.882,0,0,1-6.889-6.889V319.689a6.91,6.91,0,0,1,6.889-6.889h67.558a6.91,6.91,0,0,1,6.889,6.889Z" transform="translate(-285.7 -312.8)" fill="#5b6d75"/>
                    <path id="_Path_77" data-name="&lt;Path&gt;" d="M356.186,328.646A6.845,6.845,0,0,0,349.3,321.8H286.432a6.5,6.5,0,0,0-.732,3.014v56.837a6.882,6.882,0,0,0,6.889,6.889H355.5a7.038,7.038,0,0,0,.689-3.014Z" transform="translate(-285.7 -317.925)" fill="#5b6d75" opacity="0.3" style="mix-blend-mode: multiply;isolation: isolate"/>
                    <g id="_Group_61" data-name="&lt;Group&gt;" transform="translate(21.443 21.271)">
                      <path id="_Path_78" data-name="&lt;Path&gt;" d="M363.1,376.022A13.8,13.8,0,1,1,349.322,362.2,13.764,13.764,0,0,1,363.1,376.022Z" transform="translate(-335.5 -362.2)" fill="#6d8189"/>
                      <path id="_Path_79" data-name="&lt;Path&gt;" d="M363.348,379.241h-4.263v-4.263a1.4,1.4,0,0,0-1.421-1.378h-3.746a1.36,1.36,0,0,0-1.378,1.378v4.263h-4.263a1.36,1.36,0,0,0-1.378,1.378v3.746a1.36,1.36,0,0,0,1.378,1.378h4.263v4.263a1.36,1.36,0,0,0,1.378,1.378h3.746a1.4,1.4,0,0,0,1.421-1.378v-4.263h4.263a1.387,1.387,0,0,0,1.378-1.378v-3.746A1.387,1.387,0,0,0,363.348,379.241Z" transform="translate(-341.991 -368.691)" fill="#5b6d75" opacity="0.3" style="mix-blend-mode: multiply;isolation: isolate"/>
                    </g>
                  </g>
                  <g id="_Group_62" data-name="&lt;Group&gt;" transform="translate(51.497 78.107)">
                    <path id="_Path_80" data-name="&lt;Path&gt;" d="M453.913,495.75a1.544,1.544,0,0,1-1.55,1.55H406.85a1.55,1.55,0,1,1,0-3.1h45.512A1.544,1.544,0,0,1,453.913,495.75Z" transform="translate(-405.3 -494.2)" fill="#5b6d75"/>
                    <path id="_Path_81" data-name="&lt;Path&gt;" d="M424.547,495.319H453.87a1.538,1.538,0,0,0-1.507-1.12H406.85a1.55,1.55,0,1,0,0,3.1h16.233a1.152,1.152,0,0,1-.086-.431A1.544,1.544,0,0,1,424.547,495.319Z" transform="translate(-405.3 -494.2)" fill="#5b6d75" opacity="0.3" style="mix-blend-mode: multiply;isolation: isolate"/>
                  </g>
                  <path id="_Path_82" data-name="&lt;Path&gt;" d="M381.217,473.748c-5.511,0-6.588.344-6.588-1.765v-5.511a6.064,6.064,0,0,0-6.071-6.071h-12.53A6.028,6.028,0,0,0,350,466.471v5.511a6.079,6.079,0,0,0,3.488,5.511,2.208,2.208,0,0,0,1.464.56h26.265a2.153,2.153,0,0,0,0-4.306Z" transform="translate(-322.314 -396.846)" fill="#5b6d75"/>
                  <path id="_Path_83" data-name="&lt;Path&gt;" d="M367.094,476.526v-5.555a6.064,6.064,0,0,0-6.071-6.071h-9.43A6.1,6.1,0,0,0,350,469.034v5.511a6.079,6.079,0,0,0,3.488,5.511,2.208,2.208,0,0,0,1.464.56h20.883c0-.086-8.741-1.033-8.741-4.091Z" transform="translate(-322.314 -399.409)" fill="#5b6d75" opacity="0.3" style="mix-blend-mode: multiply;isolation: isolate"/>
                </g>
                <g id="_Group_63" data-name="&lt;Group&gt;" transform="translate(22.046 81.208)">
                  <path id="_Path_84" data-name="&lt;Path&gt;" d="M336.9,506.3h53.78v99.593a6.028,6.028,0,0,1-6.071,6.028H336.9Z" transform="translate(-336.9 -504.19)" fill="#adafec"/>
                  <path id="_Path_85" data-name="&lt;Path&gt;" d="M336.9,506.3h53.78v99.593a6.028,6.028,0,0,1-6.071,6.028H373.241a6.018,6.018,0,0,0,3.359-5.382V515.256H336.9Z" transform="translate(-336.9 -504.19)" fill="#393280" opacity="0.5" style="mix-blend-mode: multiply;isolation: isolate"/>
                  <path id="_Path_86" data-name="&lt;Path&gt;" d="M336.9,501.4H486.613v6.545H336.9Z" transform="translate(-336.9 -501.4)" fill="#adafec"/>
                </g>
              </g>
            </g>
          </g>
          <g id="_Group_64" data-name="&lt;Group&gt;" transform="translate(0 140.757)">
            <g id="_Group_65" data-name="&lt;Group&gt;">
              <path id="_Path_87" data-name="&lt;Path&gt;" d="M169.594,522.922a7.461,7.461,0,0,1-7.449,7.492h-66.4a7.461,7.461,0,0,1-7.449-7.492V488.949a7.424,7.424,0,0,1,7.449-7.449h66.4a7.424,7.424,0,0,1,7.449,7.449Z" transform="translate(-88.3 -481.5)" fill="#fff" opacity="0.8"/>
              <g id="_Group_66" data-name="&lt;Group&gt;" transform="translate(11.41 8.095)">
                <path id="_Path_88" data-name="&lt;Path&gt;" d="M137.664,532.981a1.106,1.106,0,0,1-1.076-.9l-1.895-9.258H115.876a1.1,1.1,0,0,1,0-2.2H135.6a1.068,1.068,0,0,1,1.076.861l.99,4.823,5.21-25.1a1.106,1.106,0,0,1,1.076-.9h.043a1.187,1.187,0,0,1,1.076.99l2.67,19.764,4.091-11.066a1.221,1.221,0,0,1,1.206-.732,1.188,1.188,0,0,1,.99.99l1.335,10.377H172.2a1.1,1.1,0,1,1,0,2.2H154.37a1.115,1.115,0,0,1-1.119-.947l-.861-6.889L148.3,526.006a1.187,1.187,0,0,1-1.206.689,1.1,1.1,0,0,1-.99-.947l-2.368-17.7-4.952,24.026a1.153,1.153,0,0,1-1.12.9Z" transform="translate(-114.8 -500.3)" fill="#393280"/>
              </g>
            </g>
            <g id="_Group_67" data-name="&lt;Group&gt;" transform="translate(262.913 9.903)">
              <path id="_Path_89" data-name="&lt;Path&gt;" d="M785.447,554.146a5.338,5.338,0,0,1-5.339,5.339H704.239a5.311,5.311,0,0,1-5.339-5.339V509.839a5.311,5.311,0,0,1,5.339-5.339h75.868a5.338,5.338,0,0,1,5.339,5.339Z" transform="translate(-698.9 -504.5)" fill="#fff" opacity="0.8"/>
              <path id="_Path_90" data-name="&lt;Path&gt;" d="M738.034,519.7a13.228,13.228,0,0,1,11.238,6.114,13.445,13.445,0,0,1,24.715,7.32,13.123,13.123,0,0,1-1.722,5.9h16.879a1.36,1.36,0,0,1,1.378,1.378,1.387,1.387,0,0,1-1.378,1.378H765.936a1.362,1.362,0,0,1-1.206-.732l-2.626-5.038-2.842,10.549a1.425,1.425,0,0,1-1.206,1.033h-.129a1.482,1.482,0,0,1-1.249-.818l-3.057-6.846-.775,1.206a1.413,1.413,0,0,1-1.163.646h-8.009a1.387,1.387,0,0,1-1.378-1.378,1.36,1.36,0,0,1,1.378-1.378h7.277l1.722-2.713a1.29,1.29,0,0,1,1.249-.6,1.265,1.265,0,0,1,1.163.775l2.54,5.684,2.756-10.248a1.451,1.451,0,0,1,1.163-.99,1.4,1.4,0,0,1,1.378.732l3.832,7.363h2.368a11.7,11.7,0,0,0,2.11-5.9,10.7,10.7,0,0,0-20.668-3.875,1.344,1.344,0,0,1-2.54,0,10.7,10.7,0,0,0-20.668,3.875c0,7.535,15.113,20.323,21.917,25.4,1.636-1.206,5.469-4.177,9.516-7.837a1.315,1.315,0,0,1,1.895.086,1.366,1.366,0,0,1-.086,1.938c-5.382,4.866-10.463,8.569-10.506,8.612a1.325,1.325,0,0,1-.818.258,1.389,1.389,0,0,1-.775-.258c-.99-.689-23.9-17.4-23.9-28.2A13.451,13.451,0,0,1,738.034,519.7Z" transform="translate(-713.534 -513.155)" fill="#393280"/>
            </g>
            <g id="_Group_68" data-name="&lt;Group&gt;" transform="translate(40.647 40.819)">
              <path id="_Path_91" data-name="&lt;Path&gt;" d="M271.184,623.363a8.839,8.839,0,0,1-8.827,8.827H191.527a8.839,8.839,0,0,1-8.827-8.827V585.127a8.839,8.839,0,0,1,8.827-8.827h70.831a8.839,8.839,0,0,1,8.827,8.827Z" transform="translate(-182.7 -576.3)" fill="#fff" opacity="0.8"/>
              <g id="_Group_69" data-name="&lt;Group&gt;" transform="translate(25.878 9.602)">
                <path id="_Path_92" data-name="&lt;Path&gt;" d="M279.529,616.943A18.364,18.364,0,1,1,261.186,598.6,18.367,18.367,0,0,1,279.529,616.943Z" transform="translate(-242.8 -598.6)" fill="#393280"/>
                <path id="_Path_93" data-name="&lt;Path&gt;" d="M275.511,615.423h-6.243V609.18a4.8,4.8,0,0,0-9.6,0v6.243h-6.243a4.823,4.823,0,0,0,0,9.645h6.243v6.243a4.8,4.8,0,0,0,9.6,0v-6.243h6.243a4.823,4.823,0,0,0,0-9.645Z" transform="translate(-246.103 -601.903)" fill="#fff"/>
              </g>
            </g>
            <g id="_Group_70" data-name="&lt;Group&gt;" transform="translate(237.293 56.105)">
              <path id="_Path_94" data-name="&lt;Path&gt;" d="M681.037,633.932a4.172,4.172,0,0,1-4.177,4.134H643.534a4.135,4.135,0,0,1-4.134-4.134v-18a4.135,4.135,0,0,1,4.134-4.134h33.327a4.172,4.172,0,0,1,4.177,4.134Z" transform="translate(-639.4 -611.8)" fill="#fff" opacity="0.8"/>
              <g id="_Group_71" data-name="&lt;Group&gt;" transform="translate(12.099 10.721)">
                <path id="_Path_95" data-name="&lt;Path&gt;" d="M672.366,639.111a2.433,2.433,0,1,1-2.411-2.411A2.407,2.407,0,0,1,672.366,639.111Z" transform="translate(-667.5 -636.7)" fill="#393280"/>
                <path id="_Path_96" data-name="&lt;Path&gt;" d="M686.966,639.111a2.444,2.444,0,0,1-2.454,2.411,2.411,2.411,0,1,1,0-4.822A2.444,2.444,0,0,1,686.966,639.111Z" transform="translate(-675.813 -636.7)" fill="#393280"/>
                <path id="_Path_97" data-name="&lt;Path&gt;" d="M701.466,639.111a2.407,2.407,0,0,1-2.411,2.411,2.412,2.412,0,1,1,0-4.822A2.407,2.407,0,0,1,701.466,639.111Z" transform="translate(-684.07 -636.7)" fill="#393280"/>
              </g>
            </g>
          </g>
        </g>
      </g>
    </g>
  </g>
</svg>
