<svg xmlns="http://www.w3.org/2000/svg" xmlns:xlink="http://www.w3.org/1999/xlink" width="484" height="424" viewBox="0 0 484 424">
  <defs>
    <clipPath id="clip-safe-secure-digital-locker-for-will-assets-management">
      <rect width="484" height="424"/>
    </clipPath>
  </defs>
  <g id="safe-secure-digital-locker-for-will-assets-management" clip-path="url(#clip-safe-secure-digital-locker-for-will-assets-management)">
    <rect id="Rectangle_2" data-name="Rectangle 2" width="484" height="424" rx="15" fill="#fff"/>
    <g id="obejct" transform="translate(-123.9 -279.905)">
      <g id="_Group_" data-name="&lt;Group&gt;" transform="translate(155.9 355.905)">
        <g id="_Group_2" data-name="&lt;Group&gt;" transform="translate(0 8.8)">
          <g id="_Group_3" data-name="&lt;Group&gt;">
            <path id="_Path_" data-name="&lt;Path&gt;" d="M155.9,454.867V513.14a2.408,2.408,0,0,0,3.634,2.086l2.519-1.487L250.66,461.7V408.22a9.681,9.681,0,0,0-14.578-8.342l-73.367,43.1a13.765,13.765,0,0,0-6.814,11.894Z" transform="translate(-155.9 -398.519)" fill="#ea7a00"/>
            <path id="_Path_2" data-name="&lt;Path&gt;" d="M161.3,948.72l9.5,7.393,6.876-3.325L163.386,944.9Z" transform="translate(-160.185 -832.076)" fill="#ea7a00"/>
            <path id="_Path_3" data-name="&lt;Path&gt;" d="M185.7,473.719v55.505l88.606-52.036V423.706a5.68,5.68,0,0,0-8.569-4.873l-73.223,42.992A13.809,13.809,0,0,0,185.7,473.719Z" transform="translate(-179.546 -414.005)" fill="#ff9d33"/>
            <path id="_Path_4" data-name="&lt;Path&gt;" d="M190.573,516.147l29.012-16.994a14.731,14.731,0,0,0,6.773-8.776l.558-2a15.935,15.935,0,0,1,7.454-9.519l34.237-19.534a8.586,8.586,0,0,1,12.844,7.454V517.1a12.812,12.812,0,0,1-6.339,11.068L202.571,570.62a11.2,11.2,0,0,1-16.871-9.664v-36.3a9.89,9.89,0,0,1,4.873-8.508Z" transform="translate(-179.547 -445.86)" fill="#2ea8e1"/>
            <path id="_Path_5" data-name="&lt;Path&gt;" d="M216.373,529.684l28.166-16.5a14.722,14.722,0,0,0,6.711-8.528l.434-1.466a15.949,15.949,0,0,1,7.372-9.272l35.393-20.174a4.992,4.992,0,0,1,7.475,4.336v51.045a12.431,12.431,0,0,1-6.174,10.758L223.208,582.36a7.794,7.794,0,0,1-11.708-6.732V538.191a9.89,9.89,0,0,1,4.873-8.508Z" transform="translate(-200.019 -457.683)" fill="#2ecde1"/>
          </g>
        </g>
        <g id="_Group_4" data-name="&lt;Group&gt;" transform="translate(4.579 72.718)">
          <path id="_Path_6" data-name="&lt;Path&gt;" d="M588.424,842.126l-25.977,15.219-.62.351-43.756,25.626-.6.351-37.912,22.2a11.517,11.517,0,0,1-11.564.041l-40.865-23.437-.619-.351L391,861.763a11.549,11.549,0,0,0-11.419-.021l-4.006,2.251-.413.227-33.018,18.688-.083.041-.537.31-38.366,21.682a11.537,11.537,0,0,1-11.44-.062l-37.52-21.661-.619-.351-44.665-25.791-.619-.351L183.841,842.6a11.534,11.534,0,0,1,.021-19.989l26.349-15.157.619-.372,42.889-24.7.619-.351,43.611-25.11.6-.33h.021L342.7,731.177l.619-.351L380.175,709.6a11.564,11.564,0,0,1,11.481-.021l37.128,21.248.62.372,44.85,25.688.619.33,43.178,24.717.62.372,41.3,23.623.619.372,27.732,15.879a11.522,11.522,0,0,1,.1,19.947Z" transform="translate(-178.075 -708.062)" fill="#f9f8ff"/>
          <g id="_Group_5" data-name="&lt;Group&gt;" transform="translate(32.136 99.021)" opacity="0.3">
            <path id="_Path_7" data-name="&lt;Path&gt;" d="M465.773,1263.507l-.165.1-.062-.145-.537.31-43.446-25.089-.62-.351-44.665-25.791-.619-.372-41.959-24.2.619-.372,41.959,24.222.62.372,44.665,25.791.619.351,43.26,24.986.186.1Z" transform="translate(-333.7 -1187.6)" fill="#908abc"/>
          </g>
          <g id="_Group_6" data-name="&lt;Group&gt;" transform="translate(75.644 73.974)" opacity="0.3">
            <path id="_Path_8" data-name="&lt;Path&gt;" d="M683.99,1146.543l-.31.537-7.64-4.419-.619-.351-42.971-24.821-.62-.351-44.665-25.791-.62-.351L544.4,1066.651l.62-.351,42.145,24.346.6.351,44.685,25.791.6.351,42.992,24.82.62.351Z" transform="translate(-544.4 -1066.3)" fill="#908abc"/>
          </g>
          <g id="_Group_7" data-name="&lt;Group&gt;" transform="translate(119.875 48.534)" opacity="0.3">
            <path id="_Path_9" data-name="&lt;Path&gt;" d="M978.722,1069.825l-.6.351-45.965-26.534-.619-.351-41.113-23.747-.619-.351-42.992-24.821-.6-.351h-.021L801.53,968.23l-.619-.351L758.6,943.431l.6-.33h.021l42.311,24.428.62.351,44.665,25.791.619.351,42.992,24.821.619.351,41.113,23.747.62.351Z" transform="translate(-758.6 -943.1)" fill="#908abc"/>
          </g>
          <g id="_Group_8" data-name="&lt;Group&gt;" transform="translate(164.622 22.763)" opacity="0.3">
            <path id="_Path_10" data-name="&lt;Path&gt;" d="M1195.05,944.819l-.62.351-45.387-26.2-.619-.351-41.113-23.747-.619-.351L1063.7,869.7l-.6-.351-44.685-25.791-.62-.372-42.5-24.531.62-.351,42.5,24.531.62.372,44.685,25.791.6.351,42.992,24.82.62.351,41.113,23.747.62.351Z" transform="translate(-975.3 -818.3)" fill="#908abc"/>
          </g>
          <g id="_Group_9" data-name="&lt;Group&gt;" transform="translate(30.215 22.763)" opacity="0.3">
            <path id="_Path_11" data-name="&lt;Path&gt;" d="M545.513,818.672,502.542,843.2l-.619.351-44.313,25.3-.619.351-43.8,25.006-.6.351-43.075,24.593-.619.351L325.02,944.55l-.619-.351,43.88-25.068.62-.351,43.075-24.573.62-.351L456.37,868.85l.62-.351L501.3,843.183l.62-.351L544.894,818.3Z" transform="translate(-324.4 -818.3)" fill="#908abc"/>
          </g>
          <g id="_Group_10" data-name="&lt;Group&gt;" transform="translate(75.499 48.823)" opacity="0.3">
            <path id="_Path_12" data-name="&lt;Path&gt;" d="M765,944.83l-43.157,24.655-.619.351-44.313,25.3-.62.351-43.8,25.006-.6.351-43.074,24.593-.62.351-43.88,25.048-.619-.351,43.88-25.048.62-.351,43.075-24.593.619-.351,43.777-25.006h.021l.6-.351,44.334-25.3.619-.351L764.38,944.5Z" transform="translate(-543.7 -944.5)" fill="#908abc"/>
          </g>
          <g id="_Group_11" data-name="&lt;Group&gt;" transform="translate(163.754 73.871)" opacity="0.3">
            <path id="_Path_13" data-name="&lt;Path&gt;" d="M1147.941,1066.172,1104.6,1090.91l-.62.351-44.314,25.3-.619.351-43.8,25.006-.62.351-9.788,5.6-.413.227-32.874,18.77-.165.1-.062-.144-.1-.145-.124-.248,42.909-24.511.62-.351,43.8-25.006.62-.351,44.313-25.3.62-.351,43.343-24.759Z" transform="translate(-971.1 -1065.8)" fill="#908abc"/>
          </g>
          <g id="_Group_12" data-name="&lt;Group&gt;" transform="translate(248.437 97.865)" opacity="0.3">
            <path id="_Path_14" data-name="&lt;Path&gt;" d="M1515.276,1182.372l-43.529,24.841-.619.351-44.314,25.3-.619.351-44.375,25.337-.62-.351,44.375-25.337.62-.351,44.313-25.3.62-.351L1514.657,1182Z" transform="translate(-1381.2 -1182)" fill="#908abc"/>
          </g>
        </g>
        <g id="_Group_13" data-name="&lt;Group&gt;" transform="translate(195.24)">
          <g id="_Group_14" data-name="&lt;Group&gt;">
            <path id="_Path_15" data-name="&lt;Path&gt;" d="M1335.575,457.912V563.43a4.367,4.367,0,0,1-6.566,3.758l-4.584-2.705L1164,470.281v-96.8a17.517,17.517,0,0,1,26.411-15.115l132.837,78.013A25.007,25.007,0,0,1,1335.575,457.912Z" transform="translate(-1151.074 -355.905)" fill="#63a1fc"/>
            <path id="_Path_16" data-name="&lt;Path&gt;" d="M1871.232,1351.938l-17.18,13.381-12.452-6.009,25.874-14.31Z" transform="translate(-1688.754 -1140.758)" fill="#63a1fc"/>
            <path id="_Path_17" data-name="&lt;Path&gt;" d="M1324.425,492.066V592.525L1164,498.323v-96.8a10.322,10.322,0,0,1,15.549-8.838L1312.1,470.508A25.022,25.022,0,0,1,1324.425,492.066Z" transform="translate(-1151.074 -383.947)" fill="#4987f3"/>
            <path id="_Path_18" data-name="&lt;Path&gt;" d="M1265.913,568.868,1213.4,538.1a26.844,26.844,0,0,1-12.266-15.9l-1.012-3.614a28.744,28.744,0,0,0-13.463-17.242l-62.01-35.372A15.551,15.551,0,0,0,1101.4,479.5v91.064a23.223,23.223,0,0,0,11.5,20.051l131.309,76.857a20.287,20.287,0,0,0,30.54-17.511V584.273A17.849,17.849,0,0,0,1265.913,568.868Z" transform="translate(-1101.4 -441.607)" fill="#76beff"/>
            <path id="_Path_19" data-name="&lt;Path&gt;" d="M1256.27,593.351l-50.983-29.859a26.74,26.74,0,0,1-12.142-15.446l-.805-2.664a28.808,28.808,0,0,0-13.319-16.788l-64.075-36.529a9.052,9.052,0,0,0-13.546,7.867v92.385a22.573,22.573,0,0,0,11.171,19.493l131.351,76.877a14.081,14.081,0,0,0,21.186-12.162V608.755a17.849,17.849,0,0,0-8.838-15.4Z" transform="translate(-1101.4 -462.992)" fill="#5ca8fd"/>
          </g>
        </g>
        <g id="_Group_15" data-name="&lt;Group&gt;" transform="translate(68.143 47.726)">
          <path id="_Path_20" data-name="&lt;Path&gt;" d="M647,904.727l78.385-44.541.97-58.087-78.385,44.541Z" transform="translate(-613.734 -757.69)" fill="#d1cfe2"/>
          <path id="_Path_21" data-name="&lt;Path&gt;" d="M520.137,940.274,486.891,920.1l-.991,59.078,33.266,19.183Z" transform="translate(-485.9 -851.324)" fill="#b2b1c9"/>
          <path id="_Path_22" data-name="&lt;Path&gt;" d="M802.443,982.229l.826,15.652-3.3,1.858-7.145,3.985,1.342-17.676a5.765,5.765,0,0,1-3.944-1.487c-2.932-2.767-2.127-8.4,1.8-12.575a16.306,16.306,0,0,1,1.425-1.342c3.779-3.056,8.425-3.655,11.027-1.2,2.953,2.767,2.148,8.4-1.8,12.575a2.284,2.284,0,0,1-.227.207Z" transform="translate(-725.979 -889.272)" fill="#b2b1c9"/>
          <path id="_Path_23" data-name="&lt;Path&gt;" d="M799.139,991.8l.826,15.528-7.145,3.985,1.342-17.676a5.764,5.764,0,0,1-3.944-1.487c-2.932-2.767-2.127-8.4,1.8-12.575a16.3,16.3,0,0,1,1.425-1.342c2.911-1.177,5.844-.991,7.723.785,2.932,2.767,2.127,8.4-1.8,12.575a1.08,1.08,0,0,0-.227.207Z" transform="translate(-725.979 -896.865)" fill="#a2a2ba" opacity="0.6"/>
          <path id="_Path_24" data-name="&lt;Path&gt;" d="M602.33,723.3l-32.357-20.5L490.7,747.671l33.246,20.174Z" transform="translate(-489.709 -678.895)" fill="#eceaf6"/>
          <path id="_Path_25" data-name="&lt;Path&gt;" d="M577.1,845.637l11.688,7,6.732-15.549L584.988,829.2Z" transform="translate(-558.268 -779.194)" fill="#2ea8e1"/>
          <g id="_Group_16" data-name="&lt;Group&gt;" transform="translate(18.832)">
            <path id="_Path_26" data-name="&lt;Path&gt;" d="M577.1,653.475l13.071-6.938.33-19.638c6.381-8.735,4.935-16.251,12.513-20.174l11.832-6.112a5.652,5.652,0,0,1,8.239,5.121l-.413,24.222,13.05-6.938.289-17.077a18.573,18.573,0,0,0-27.092-16.809l-11.853,6.112a36.019,36.019,0,0,0-19.514,31.428Z" transform="translate(-577.1 -587.032)" fill="#2ea8e1"/>
          </g>
          <path id="_Path_27" data-name="&lt;Path&gt;" d="M797.8,694.442l11.688,7,5.823-15.983-5.823-17.16-11.275,1.92Z" transform="translate(-733.395 -651.519)" fill="#2ea8e1"/>
          <path id="_Path_28" data-name="&lt;Path&gt;" d="M805.23,603.911s-8.446-7.207-17.345-10.511l-4.584,4.274,16.4,9.623Z" transform="translate(-721.889 -592.085)" fill="#2ea8e1"/>
          <g id="_Group_17" data-name="&lt;Group&gt;" transform="translate(30.52 7)">
            <path id="_Path_29" data-name="&lt;Path&gt;" d="M633.7,687.375l13.071-6.938.33-19.637a23.067,23.067,0,0,1,12.513-20.154l11.832-6.112a5.633,5.633,0,0,1,8.239,5.1l-.413,24.222,13.05-6.938.289-17.077a18.573,18.573,0,0,0-27.092-16.809l-11.853,6.112a36.026,36.026,0,0,0-19.514,31.449Z" transform="translate(-633.7 -620.932)" fill="#2ecde1"/>
          </g>
        </g>
        <path id="_Path_30" data-name="&lt;Path&gt;" d="M1094.069,1105.715c.31,3.325-.227,5-2.127,5.6-2.664.826-4.44-.723-5.369-2.87-.124-.289-.289-.785-.475-1.4-.289-.991-.64-2.333-1.012-3.9-.31-1.26-.64-2.664-.95-4.151-.805-3.8-1.611-8.012-2.044-11.275a75.133,75.133,0,0,1,.124-15.941l5.885-.867s4.749,5.059,5.823,11.4c1.177,6.9-1.28,15.239-.62,18.646C1093.677,1102.824,1093.945,1104.393,1094.069,1105.715Z" transform="translate(-890.529 -923.258)" fill="#422b9d"/>
        <path id="_Path_31" data-name="&lt;Path&gt;" d="M1053.075,1073.2a75.654,75.654,0,0,0-2.994,15.652c-.33,7.145.144,18.936.681,21.207s2,4.13,4.77,3.779c2.746-.33,3.283-3.242,3.2-9.932-.041-3.49,1.4-11.46,1.487-18.461a58.632,58.632,0,0,0-1.218-12.059Z" transform="translate(-865.351 -925.083)" fill="#422b9d"/>
        <path id="_Path_32" data-name="&lt;Path&gt;" d="M1053.095,1230.574s.041-4.419,4.006-4.729,4.068,4.46,4.006,7.516c-.083,3.077-1.962,19.225-2.251,21.455-.351,2.664-3.386,3.531-3.676.723-.145-1.507-.268-3.139-.5-5.617C1053.983,1242.963,1053.054,1233.217,1053.095,1230.574Z" transform="translate(-867.829 -1046.197)" fill="#422b9d"/>
        <path id="_Path_33" data-name="&lt;Path&gt;" d="M1103.6,1230.633s-2.313-3.779.888-6.133c3.2-2.375,5.823,1.59,7.393,4.233,1.569,2.622,8.569,17.283,9.54,19.348,1.115,2.416-.991,4.791-2.726,2.561-.929-1.2-1.9-2.519-3.428-4.481C1110.967,1240.627,1104.979,1232.884,1103.6,1230.633Z" transform="translate(-907.262 -1044.563)" fill="#422b9d"/>
        <path id="_Path_34" data-name="&lt;Path&gt;" d="M1114.368,974.4c-2.106,2.251-8.9,9.705-12.369,11.089-3.469,1.363-5.038-2.127-3.614-4.316,1.425-2.209,9.664-7.454,12.348-8.982C1113.583,970.539,1116.164,972.46,1114.368,974.4Z" transform="translate(-903.352 -844.435)" fill="#2ecde1"/>
        <path id="_Path_35" data-name="&lt;Path&gt;" d="M1166.28,930.525c.248.62,1.095,2,2.478.991,2.251-1.631,4.44-11.5,3.944-12.885-.5-1.363-1.322-1.156-2.664,1.115C1168.716,922.038,1165.164,927.716,1166.28,930.525Z" transform="translate(-957.473 -801.756)" fill="#2ecde1"/>
        <path id="_Path_36" data-name="&lt;Path&gt;" d="M1188.781,905.244c-.021.578,1.4,1.239,2.086.6.661-.661,2.189-3.985,1.858-4.6s-2.086-.31-3.18,2.086c0,0,.186-1.549-.516-1.26C1188.677,902.208,1188.8,903.427,1188.781,905.244Z" transform="translate(-975.493 -788.411)" fill="#ffcebd"/>
        <path id="_Path_37" data-name="&lt;Path&gt;" d="M1065.908,930.809c-1.115,3.758-4.419,6.112-7.392,5.224-2.974-.867-4.481-4.625-3.386-8.4,1.115-3.758,4.419-6.092,7.392-5.224C1065.5,923.293,1067.024,927.051,1065.908,930.809Z" transform="translate(-869.161 -805.283)" fill="#ffcebd"/>
        <path id="_Path_38" data-name="&lt;Path&gt;" d="M1081.169,978.882h-2.643a.828.828,0,0,1-.826-.826v-7.33a.828.828,0,0,1,.826-.826h2.643a.833.833,0,0,1,.847.826v7.33A.833.833,0,0,1,1081.169,978.882Z" transform="translate(-887.354 -843.114)" fill="#ffcebd"/>
        <path id="_Path_39" data-name="&lt;Path&gt;" d="M1067.265,1017.51a12.629,12.629,0,0,1-10.015-.413s-.186-.62-.454-1.549c-.268-.95-.6-2.251-.888-3.572-.578-2.6-1.012-5.348-.413-6.133a12.04,12.04,0,0,1,4.006-2.664c.578-.289.991-.454.991-.454a20.4,20.4,0,0,1,4.151-.227c1.673.1,3.448.516,4.44,1.673,2.23,2.6-1.817,13.339-1.817,13.339Z" transform="translate(-869.506 -868.96)" fill="#2ecde1"/>
        <path id="_Path_40" data-name="&lt;Path&gt;" d="M986.037,994.638c2.416,1.92,10.1,7.764,13.732,8.611,3.634.867,5-3.242,3.263-5.2s-10.862-5-13.711-6.133C986.223,990.714,983.972,992.986,986.037,994.638Z" transform="translate(-813.987 -860.315)" fill="#2ecde1"/>
        <path id="_Path_41" data-name="&lt;Path&gt;" d="M971.653,956.959c-.165.661-.805,2.148-2.313,1.342-2.457-1.28-6.092-10.717-5.8-12.142s1.136-1.363,2.788.7S972.334,954.027,971.653,956.959Z" transform="translate(-796.753 -823.503)" fill="#2ecde1"/>
        <path id="_Path_42" data-name="&lt;Path&gt;" d="M955.532,933.8c.1.578-1.218,1.445-1.982.909-.764-.558-2.746-3.614-2.519-4.274.227-.681,2.024-.619,3.469,1.59,0,0-.413-1.507.31-1.322C955.161,930.783,955.243,932.021,955.532,933.8Z" transform="translate(-786.827 -811.492)" fill="#ffcebd"/>
        <path id="_Path_43" data-name="&lt;Path&gt;" d="M1039.92,1366s-5.493,1.012-5.988,2.457c-.5,1.425,9.458,2.065,9.994,1.363.516-.723-.31-3.614-.31-3.614S1042.274,1368.354,1039.92,1366Z" transform="translate(-852.609 -1157.422)"/>
        <path id="_Path_44" data-name="&lt;Path&gt;" d="M1163.077,1343.917s-4.109,3.779-3.758,5.245c.351,1.487,9.106-3.263,9.168-4.151s-2.168-2.911-2.168-2.911,0,2.54-3.242,1.817Z" transform="translate(-952.102 -1138.457)"/>
        <path id="_Path_45" data-name="&lt;Path&gt;" d="M1055.124,926.434a3.78,3.78,0,0,1-2,.124c-6.587-1.239-4.543-4.419-4.543-4.419s-7.867-1.507-6.959-6.546c.764-4.233,4.089-2,4.089-2s3.593-4.378,8.838-2q.124.062.227.1C1059.213,914.044,1059.564,924.8,1055.124,926.434Z" transform="translate(-858.666 -796.282)" fill="#664fc6"/>
        <path id="_Path_46" data-name="&lt;Path&gt;" d="M1074.174,955.459c-.847-.434-2.024.165-2.643,1.363-.64,1.2-.454,2.519.392,2.973.847.434,2.024-.186,2.643-1.383C1075.207,957.234,1075.021,955.892,1074.174,955.459Z" transform="translate(-882.156 -831.543)" fill="#ffcebd"/>
        <path id="_Path_47" data-name="&lt;Path&gt;" d="M1093.781,929.544c-2.086-1.776-3.758-6.277-3.49-10.077a5.13,5.13,0,0,1,3.139-4.667c4.44,2.354,4.791,13.112.351,14.744Z" transform="translate(-897.323 -799.392)" fill="#422b9d"/>
        <path id="_Path_48" data-name="&lt;Path&gt;" d="M1096.067,916.485c-.083-2.148.33-5.864,5.823-5.555,5.472.31,2.643,8.466,9.189,9.189,8.012.888,9.561,9.6,5.472,14.1-4.068,4.5-11.873,4.089-13.2-3.139S1096.356,925.034,1096.067,916.485Z" transform="translate(-901.922 -796.307)" fill="#664fc6"/>
        <path id="_Path_49" data-name="&lt;Path&gt;" d="M1081.142,1002.5c-1.611,2.106-4.44.991-5.142.681.578-.289.991-.454.991-.454A20.4,20.4,0,0,1,1081.142,1002.5Z" transform="translate(-886.005 -868.96)" fill="#ffcebd"/>
        <g id="_Group_18" data-name="&lt;Group&gt;" transform="translate(186.402 142.521)" opacity="0.3">
          <path id="_Path_50" data-name="&lt;Path&gt;" d="M1059.653,1046.1l-.165,4.068c-.269-.95-.6-2.251-.888-3.572Z" transform="translate(-1058.6 -1046.1)"/>
        </g>
        <g id="_Group_19" data-name="&lt;Group&gt;" transform="translate(193.608 159.205)" opacity="0.3">
          <path id="_Path_51" data-name="&lt;Path&gt;" d="M1097.176,1138.608a32.119,32.119,0,0,0-2.726,8.962c-.31-1.26-.64-2.664-.95-4.151a.389.389,0,0,0,.021-.124s.971-2,3.077-7a15.44,15.44,0,0,0,.888-9.4C1097.527,1126.983,1100.211,1132.021,1097.176,1138.608Z" transform="translate(-1093.5 -1126.9)"/>
        </g>
        <g id="_Group_20" data-name="&lt;Group&gt;" transform="translate(20.443 170.397)">
          <path id="_Path_52" data-name="&lt;Path&gt;" d="M254.9,1192.56l19.865-11.46,58.355,33.7L314,1226.384Z" transform="translate(-254.9 -1181.1)" fill="#eceaf6"/>
          <path id="_Path_53" data-name="&lt;Path&gt;" d="M282.8,1206.526l14.1-7.826,51.623,29.8-12.947,7.6Z" transform="translate(-277.039 -1195.066)" fill="#cdcadd"/>
          <path id="_Path_54" data-name="&lt;Path&gt;" d="M255.313,1259.314,254.9,1236.6l59.1,33.824-.33,22.425Z" transform="translate(-254.9 -1225.14)" fill="#b5b3c9"/>
          <path id="_Path_55" data-name="&lt;Path&gt;" d="M539.5,1378.31l19.452-11.4V1344.3l-19.121,11.584Z" transform="translate(-480.732 -1310.6)" fill="#cdcadd"/>
          <path id="_Path_56" data-name="&lt;Path&gt;" d="M296.842,1197.2l-.207,15.9-13.835-7.764Z" transform="translate(-277.039 -1193.875)" fill="#b7b5c9"/>
        </g>
        <path id="_Path_57" data-name="&lt;Path&gt;" d="M308.1,1231.915l8.735-4.915,46.812,26.865-7.991,4.688Z" transform="translate(-276.672 -1047.125)" fill="#2ecde1"/>
        <g id="_Group_21" data-name="&lt;Group&gt;" transform="translate(32.75 136.305)">
          <path id="_Path_58" data-name="&lt;Path&gt;" d="M363.182,1068.491s-4.357-42.373,6.67-52.491c0,0-16.685,10.8-12.472,51.293Z" transform="translate(-347.985 -1016)" fill="#2ecde1"/>
          <path id="_Path_59" data-name="&lt;Path&gt;" d="M319.642,1138.9s3.345-26.8-5.142-33.2c0,0,12.844,6.835,9.6,32.461Z" transform="translate(-314.5 -1087.177)" fill="#2ea8e1"/>
          <path id="_Path_60" data-name="&lt;Path&gt;" d="M397.583,1090.091s-4.357-42.372,6.67-52.491c0,0-16.685,10.8-12.472,51.293Z" transform="translate(-375.281 -1033.14)" fill="#2ea8e1"/>
          <path id="_Path_61" data-name="&lt;Path&gt;" d="M354.042,1160.5s3.345-26.8-5.142-33.2c0,0,12.844,6.835,9.6,32.461Z" transform="translate(-341.797 -1104.317)" fill="#2ea8e1"/>
          <path id="_Path_62" data-name="&lt;Path&gt;" d="M428.527,1104.011s-4.357-42.393,6.67-52.511c0,0-16.685,10.8-12.493,51.314Z" transform="translate(-399.824 -1044.169)" fill="#2ea8e1"/>
          <path id="_Path_63" data-name="&lt;Path&gt;" d="M384.942,1174.425s3.345-26.824-5.142-33.225c0,0,12.844,6.835,9.623,32.461Z" transform="translate(-366.316 -1115.347)" fill="#2ecde1"/>
          <path id="_Path_64" data-name="&lt;Path&gt;" d="M414.523,1118.711s3.779-42.372-5.823-52.511c0,0,14.537,10.82,10.862,51.314Z" transform="translate(-389.248 -1055.834)" fill="#2ecde1"/>
          <path id="_Path_65" data-name="&lt;Path&gt;" d="M462.618,1189.125s-2.912-26.823,4.46-33.225c0,0-11.171,6.835-8.342,32.461Z" transform="translate(-428.588 -1127.012)" fill="#2ea8e1"/>
          <path id="_Path_66" data-name="&lt;Path&gt;" d="M449.4,1137.011s3.8-42.393-5.8-52.511c0,0,14.537,10.8,10.862,51.314Z" transform="translate(-416.942 -1070.355)" fill="#2ecde1"/>
          <path id="_Path_67" data-name="&lt;Path&gt;" d="M497.462,1207.425s-2.932-26.823,4.46-33.225c0,0-11.171,6.835-8.363,32.461Z" transform="translate(-456.226 -1141.533)" fill="#2ea8e1"/>
          <path id="_Path_68" data-name="&lt;Path&gt;" d="M531.838,1158.191s-4.006-42.372,6.174-52.491c0,0-15.4,10.8-11.522,51.293Z" transform="translate(-482.217 -1087.178)" fill="#2ecde1"/>
          <path id="_Path_69" data-name="&lt;Path&gt;" d="M491.729,1228.6s3.1-26.8-4.729-33.2c0,0,11.832,6.835,8.859,32.461Z" transform="translate(-451.38 -1158.355)" fill="#2ea8e1"/>
        </g>
        <path id="_Path_70" data-name="&lt;Path&gt;" d="M317.358,1233.3l46.482,25.791-1.92,3.3L316.8,1237.636Z" transform="translate(-283.575 -1052.124)" fill="#2ecde1"/>
        <g id="_Group_22" data-name="&lt;Group&gt;" transform="translate(230.075 192.059)">
          <path id="_Path_71" data-name="&lt;Path&gt;" d="M1270.1,1297.481,1289.944,1286l58.376,33.7-19.121,11.584Z" transform="translate(-1270.1 -1286)" fill="#eceaf6"/>
          <path id="_Path_72" data-name="&lt;Path&gt;" d="M1298,1311.447l14.083-7.847,51.644,29.818-12.968,7.6Z" transform="translate(-1292.239 -1299.966)" fill="#cdcadd"/>
          <path id="_Path_73" data-name="&lt;Path&gt;" d="M1270.492,1364.294l-.392-22.694,59.1,33.8-.33,22.425Z" transform="translate(-1270.1 -1330.119)" fill="#b5b3c9"/>
          <path id="_Path_74" data-name="&lt;Path&gt;" d="M1554.7,1483.209l19.452-11.4V1449.2l-19.121,11.584Z" transform="translate(-1495.932 -1415.5)" fill="#cdcadd"/>
          <path id="_Path_75" data-name="&lt;Path&gt;" d="M1312.021,1302.2l-.207,15.879L1298,1310.336Z" transform="translate(-1292.239 -1298.855)" fill="#b7b5c9"/>
        </g>
        <path id="_Path_76" data-name="&lt;Path&gt;" d="M1323.2,1336.894l8.735-4.894,46.833,26.844-8.012,4.708Z" transform="translate(-1082.16 -1130.443)" fill="#2ecde1"/>
        <g id="_Group_23" data-name="&lt;Group&gt;" transform="translate(242.361 157.966)">
          <path id="_Path_77" data-name="&lt;Path&gt;" d="M1378.306,1173.391s-4.336-42.372,6.69-52.49c0,0-16.685,10.8-12.493,51.313Z" transform="translate(-1363.109 -1120.9)" fill="#2ecde1"/>
          <path id="_Path_78" data-name="&lt;Path&gt;" d="M1334.742,1243.8s3.345-26.8-5.142-33.2c0,0,12.844,6.835,9.6,32.461Z" transform="translate(-1329.6 -1192.078)" fill="#2ea8e1"/>
          <path id="_Path_79" data-name="&lt;Path&gt;" d="M1412.685,1194.991s-4.357-42.372,6.69-52.491c0,0-16.705,10.8-12.493,51.293Z" transform="translate(-1390.384 -1138.04)" fill="#2ea8e1"/>
          <path id="_Path_80" data-name="&lt;Path&gt;" d="M1369.142,1265.4s3.345-26.8-5.142-33.2c0,0,12.844,6.835,9.6,32.461Z" transform="translate(-1356.897 -1209.217)" fill="#2ea8e1"/>
          <path id="_Path_81" data-name="&lt;Path&gt;" d="M1443.682,1208.911s-4.357-42.372,6.67-52.511c0,0-16.685,10.82-12.472,51.314Z" transform="translate(-1414.98 -1149.069)" fill="#2ea8e1"/>
          <path id="_Path_82" data-name="&lt;Path&gt;" d="M1400.142,1279.325s3.345-26.8-5.142-33.225c0,0,12.844,6.835,9.6,32.481Z" transform="translate(-1381.495 -1220.247)" fill="#2ecde1"/>
          <path id="_Path_83" data-name="&lt;Path&gt;" d="M1429.7,1223.611s3.8-42.372-5.8-52.511c0,0,14.516,10.82,10.861,51.314Z" transform="translate(-1404.428 -1160.734)" fill="#2ecde1"/>
          <path id="_Path_84" data-name="&lt;Path&gt;" d="M1477.742,1294.025s-2.911-26.8,4.481-33.225c0,0-11.171,6.855-8.363,32.481Z" transform="translate(-1443.712 -1231.912)" fill="#2ea8e1"/>
          <path id="_Path_85" data-name="&lt;Path&gt;" d="M1464.523,1241.911s3.779-42.393-5.823-52.511c0,0,14.537,10.8,10.882,51.314Z" transform="translate(-1432.042 -1175.255)" fill="#2ecde1"/>
          <path id="_Path_86" data-name="&lt;Path&gt;" d="M1512.621,1312.325s-2.911-26.823,4.481-33.225c0,0-11.192,6.835-8.363,32.461Z" transform="translate(-1471.384 -1246.433)" fill="#2ea8e1"/>
          <path id="_Path_87" data-name="&lt;Path&gt;" d="M1547.035,1263.091s-4.027-42.372,6.153-52.491c0,0-15.384,10.8-11.5,51.314Z" transform="translate(-1497.394 -1192.078)" fill="#2ecde1"/>
          <path id="_Path_88" data-name="&lt;Path&gt;" d="M1506.849,1333.525s3.077-26.824-4.749-33.225c0,0,11.832,6.835,8.859,32.461Z" transform="translate(-1466.48 -1263.255)" fill="#2ea8e1"/>
        </g>
        <path id="_Path_89" data-name="&lt;Path&gt;" d="M1332.458,1338.2l46.482,25.791-1.92,3.3-45.119-24.759Z" transform="translate(-1089.064 -1135.363)" fill="#2ecde1"/>
        <g id="_Group_24" data-name="&lt;Group&gt;" transform="translate(163.523 35.96)">
          <path id="_Path_90" data-name="&lt;Path&gt;" d="M978.118,560.624l3.448-1.3L971.572,532.5,968,533.8Z" transform="translate(-963.83 -531.994)" fill="#2ea8e1"/>
          <path id="_Path_91" data-name="&lt;Path&gt;" d="M967.732,537.968c-.31,6.876,3.51,15.053,8.508,18.254,5.018,3.221,9.354.248,9.664-6.628.31-6.856-3.49-15.033-8.508-18.254-5.018-3.2-9.334-.248-9.664,6.628Z" transform="translate(-963.603 -530.049)" fill="#2ea8e1"/>
          <path id="_Path_92" data-name="&lt;Path&gt;" d="M947.823,545.411c-.33,6.876,3.49,15.053,8.508,18.254,5,3.221,9.333.248,9.643-6.608.31-6.876-3.49-15.053-8.508-18.254C952.449,535.582,948.133,538.556,947.823,545.411Z" transform="translate(-947.804 -535.964)" fill="#2ecde1"/>
          <path id="_Path_93" data-name="&lt;Path&gt;" d="M974.936,584.039l-1.115-2.746a1.268,1.268,0,0,0-1.652-.681l-3.861,1.569-1.673-4.089a1.81,1.81,0,1,0-3.345,1.383l1.652,4.068,1.673,4.089a1.089,1.089,0,0,0,1.4.6l6.215-2.54a1.3,1.3,0,0,0,.7-1.652Z" transform="translate(-959.987 -567.281)" fill="#fff"/>
        </g>
        <g id="_Group_25" data-name="&lt;Group&gt;" transform="translate(162.868 2.961)">
          <path id="_Path_94" data-name="&lt;Path&gt;" d="M975.205,400.807l3.469-1.239L969.093,372.6l-3.593,1.239Z" transform="translate(-961.191 -372.113)" fill="#ea7a00"/>
          <path id="_Path_95" data-name="&lt;Path&gt;" d="M964.767,378.082c-.434,6.856,3.263,15.095,8.218,18.378,4.956,3.3,9.333.392,9.746-6.463.434-6.856-3.242-15.095-8.218-18.4C969.558,368.314,965.2,371.205,964.767,378.082Z" transform="translate(-960.582 -370.244)" fill="#ea7a00"/>
          <path id="_Path_96" data-name="&lt;Path&gt;" d="M944.666,385.225c-.434,6.856,3.242,15.095,8.219,18.378,4.956,3.3,9.333.413,9.747-6.463.434-6.856-3.242-15.095-8.219-18.378C949.457,375.457,945.079,378.369,944.666,385.225Z" transform="translate(-944.632 -375.921)" fill="#ff9d33"/>
          <path id="_Path_97" data-name="&lt;Path&gt;" d="M971.608,424.048l-1.074-2.767a1.241,1.241,0,0,0-1.631-.7l-3.882,1.507-1.59-4.109a1.818,1.818,0,0,0-3.386,1.322l1.611,4.109,1.59,4.109a1.049,1.049,0,0,0,1.383.6l6.277-2.437A1.248,1.248,0,0,0,971.608,424.048Z" transform="translate(-956.768 -407.207)" fill="#fff"/>
        </g>
        <g id="_Group_26" data-name="&lt;Group&gt;" transform="translate(389.594 137.111)">
          <path id="_Path_98" data-name="&lt;Path&gt;" d="M2073.018,1050.5l3.448-1.3-10.015-26.8-3.552,1.28Z" transform="translate(-2058.711 -1021.884)" fill="#2ea8e1"/>
          <path id="_Path_99" data-name="&lt;Path&gt;" d="M2062.632,1027.811c-.31,6.876,3.49,15.053,8.507,18.254,5.018,3.221,9.334.248,9.664-6.608.31-6.876-3.49-15.053-8.508-18.254C2067.279,1017.982,2062.942,1020.956,2062.632,1027.811Z" transform="translate(-2058.485 -1019.903)" fill="#2ea8e1"/>
          <path id="_Path_100" data-name="&lt;Path&gt;" d="M2042.632,1035.268c-.31,6.855,3.49,15.033,8.508,18.254,5.018,3.2,9.333.248,9.664-6.628.31-6.876-3.49-15.033-8.507-18.254C2047.278,1025.439,2042.962,1028.392,2042.632,1035.268Z" transform="translate(-2042.614 -1025.811)" fill="#2ecde1"/>
          <path id="_Path_101" data-name="&lt;Path&gt;" d="M2069.782,1073.874l-1.115-2.726a1.238,1.238,0,0,0-1.631-.7l-3.861,1.569-1.673-4.068a1.806,1.806,0,0,0-3.345,1.363l1.652,4.089,1.673,4.089a1.064,1.064,0,0,0,1.384.578l6.236-2.54a1.262,1.262,0,0,0,.681-1.652Z" transform="translate(-2054.835 -1057.129)" fill="#fff"/>
        </g>
        <g id="_Group_27" data-name="&lt;Group&gt;" transform="translate(388.94 104.113)">
          <path id="_Path_102" data-name="&lt;Path&gt;" d="M2070.085,890.628l3.469-1.26-9.581-26.968-3.573,1.239Z" transform="translate(-2056.073 -861.925)" fill="#ea7a00"/>
          <path id="_Path_103" data-name="&lt;Path&gt;" d="M2059.667,867.925c-.434,6.876,3.242,15.095,8.218,18.4,4.956,3.283,9.313.392,9.747-6.484.433-6.856-3.262-15.095-8.219-18.378C2064.457,858.157,2060.08,861.069,2059.667,867.925Z" transform="translate(-2055.464 -860.098)" fill="#ea7a00"/>
          <path id="_Path_104" data-name="&lt;Path&gt;" d="M2039.478,875.059c-.413,6.876,3.263,15.095,8.219,18.4,4.976,3.283,9.333.392,9.767-6.463.434-6.876-3.263-15.115-8.219-18.4S2039.912,868.2,2039.478,875.059Z" transform="translate(-2039.447 -865.767)" fill="#ff9d33"/>
          <path id="_Path_105" data-name="&lt;Path&gt;" d="M2066.466,913.885l-1.074-2.746a1.258,1.258,0,0,0-1.631-.723l-3.882,1.507-1.611-4.089a1.8,1.8,0,1,0-3.366,1.3l1.59,4.109,1.611,4.109a1.069,1.069,0,0,0,1.384.619l6.257-2.457A1.25,1.25,0,0,0,2066.466,913.885Z" transform="translate(-2051.608 -897.055)" fill="#fff"/>
        </g>
      </g>
    </g>
  </g>
</svg>
