<svg xmlns="http://www.w3.org/2000/svg" xmlns:xlink="http://www.w3.org/1999/xlink" width="484" height="424" viewBox="0 0 484 424">
  <defs>
    <clipPath id="clip-create-will-in-india-will-registration">
      <rect width="484" height="424"/>
    </clipPath>
  </defs>
  <g id="create-will-in-india-will-registration" clip-path="url(#clip-create-will-in-india-will-registration)">
    <rect id="Rectangle_2" data-name="Rectangle 2" width="484" height="424" rx="15" fill="#fff"/>
    <g id="Group_136" data-name="Group 136" transform="translate(-2.088 -42.68)">
      <g id="_4772093-ai" data-name="4772093-ai" transform="translate(56.088 107.68)">
        <g id="Floor" transform="translate(0 77.407)">
          <path id="Floor_7_" data-name="Floor 7 " d="M77.682,591.079c-73.442-42.395-73.442-111.188,0-153.583,73.482-42.395,192.55-42.395,266.032,0,73.442,42.395,73.442,111.188,0,153.583-73.482,42.395-192.55,42.395-266.032,0Z" transform="translate(-22.6 -405.7)" fill="#fafafa"/>
        </g>
        <g id="Shadows" transform="translate(15.248 42.735)">
          <path id="Shadow_34_" data-name="Shadow 34 " d="M349.831,343.586,244.2,404.578l-44.8-25.886L305.033,317.7Z" transform="translate(-144.988 -317.7)" fill="#ebebeb"/>
          <path id="Shadow_33_" data-name="Shadow 33 " d="M130.175,835.9a3.6,3.6,0,0,1-2.8-1.1,2.369,2.369,0,0,0-1.812-.67,1.3,1.3,0,0,0-.315.039l-1.458.118H123.4a3.515,3.515,0,0,1-2.758-1.1,1.465,1.465,0,0,1-.315-1.3.6.6,0,0,0-.079-.315,2.576,2.576,0,0,0-1.852-.63,1.3,1.3,0,0,0-.315.04h-.394a3.53,3.53,0,0,1-2.8-1.1,1.541,1.541,0,0,1-.276-1.3.425.425,0,0,0-.079-.276,2.552,2.552,0,0,0-1.852-.63h-.709a3.646,3.646,0,0,1-2.8-1.064,1.5,1.5,0,0,1-.276-1.34.37.37,0,0,0-.118-.276,2.375,2.375,0,0,0-1.812-.63h-.315a2,2,0,0,1-.394.039,3.665,3.665,0,0,1-2.8-1.1,1.647,1.647,0,0,1-.315-1.34c.039-.039.039-.158-.079-.276a2.375,2.375,0,0,0-1.812-.63h-.315a2.22,2.22,0,0,1-.433.039,3.514,3.514,0,0,1-2.758-1.1,1.465,1.465,0,0,1-.315-1.3l.2-.827c.079-.276-.315-.63-1.024-.827-1.537-.394-2.049-1.3-2.009-2.009.079-.985,1.064-1.773,2.522-1.931l.591-.079a2.117,2.117,0,0,0,1.379-.63c.118-.118.118-.2.079-.236L99.049,811a1.449,1.449,0,0,1,.394-1.221,3.65,3.65,0,0,1,2.719-1.024h.2l1.379.079a2.632,2.632,0,0,0,1.812-.591.5.5,0,0,0,.118-.315l-.079-.67a1.491,1.491,0,0,1,.394-1.261,3.651,3.651,0,0,1,2.719-1.024l.2.039,1.379.039a2.713,2.713,0,0,0,1.812-.591.5.5,0,0,0,.118-.315l-.118-.67a1.764,1.764,0,0,1,.433-1.261,3.762,3.762,0,0,1,2.679-.985h.236l1.379.039a2.521,2.521,0,0,0,1.812-.591.511.511,0,0,0,.118-.276l-.118-.709a1.606,1.606,0,0,1,.433-1.261,3.762,3.762,0,0,1,2.679-.985h.236l1.379.039a2.521,2.521,0,0,0,1.812-.591.426.426,0,0,0,.118-.276l-.118-.709a1.481,1.481,0,0,1,.433-1.221,3.556,3.556,0,0,1,2.679-1.024h.236l2.128.118a2.089,2.089,0,0,0,1.891-.788l.118-.355c.433-1.1,1.931-1.537,3.034-1.537a3.438,3.438,0,0,1,2.8,1.143,2.413,2.413,0,0,0,1.852.63h.315l1.418-.118a2.206,2.206,0,0,1,.433-.039,3.514,3.514,0,0,1,2.758,1.1,1.465,1.465,0,0,1,.315,1.3c-.039.079-.039.158.079.315a2.375,2.375,0,0,0,1.812.63h.315a2.649,2.649,0,0,1,.433-.039,3.514,3.514,0,0,1,2.758,1.1,1.465,1.465,0,0,1,.315,1.3c-.039.079-.039.158.079.315a2.539,2.539,0,0,0,1.812.63,1.291,1.291,0,0,0,.315-.039h.433a3.514,3.514,0,0,1,2.758,1.1,1.465,1.465,0,0,1,.315,1.3.6.6,0,0,0,.079.315,2.576,2.576,0,0,0,1.852.63,1.29,1.29,0,0,0,.315-.039h.394a3.5,3.5,0,0,1,2.758,1.064,1.544,1.544,0,0,1,.315,1.34.425.425,0,0,0,.079.276,2.414,2.414,0,0,0,1.852.63h.709a3.647,3.647,0,0,1,2.8,1.064,1.627,1.627,0,0,1,.276,1.34l-.2.827c-.039.236.315.63,1.064.788,1.537.394,2.009,1.3,1.97,2.009-.039,1.024-1.024,1.773-2.522,1.97l-.591.079a2.044,2.044,0,0,0-1.379.591.47.47,0,0,0-.079.237l.158,1.143a1.585,1.585,0,0,1-.394,1.221,3.714,3.714,0,0,1-2.719,1.024h-.236l-1.379-.079a2.337,2.337,0,0,0-1.773.63c-.158.158-.118.236-.118.276l.079.709a1.585,1.585,0,0,1-.394,1.221,3.65,3.65,0,0,1-2.719,1.024h-.236l-1.34-.079a2.554,2.554,0,0,0-1.812.591.333.333,0,0,0-.118.315l.079.67a1.491,1.491,0,0,1-.394,1.261,3.651,3.651,0,0,1-2.719,1.024l-.236-.04-1.34-.039a2.631,2.631,0,0,0-1.812.591.333.333,0,0,0-.118.315l.079.67a1.53,1.53,0,0,1-.394,1.261,3.634,3.634,0,0,1-2.719.985h-.2l-1.379-.039a2.451,2.451,0,0,0-1.812.591.511.511,0,0,0-.118.276l.079.709a1.57,1.57,0,0,1-.394,1.261,3.8,3.8,0,0,1-2.719.985h-.2l-2.128-.079c-.985,0-1.773.394-1.891.748l-.158.355c-.394,1.143-1.891,1.537-3.034,1.537Z" transform="translate(-81.476 -604.578)" fill="#ebebeb"/>
          <path id="Shadow_20_" data-name="Shadow 20 " d="M507.366,543.7l89.045-51.418c2.325-1.34,2.325-3.467,0-4.807L464.538,411.355a9.02,9.02,0,0,0-8.274,0l-89.045,51.418c-2.325,1.3-2.325,3.467,0,4.767L499.092,543.7A9.263,9.263,0,0,0,507.366,543.7Z" transform="translate(-245.629 -373.845)" fill="#ebebeb"/>
          <path id="Shadow_41_" data-name="Shadow 41 " d="M227.727,666.868,61.3,570.771,198.926,491.3l166.467,96.1Z" transform="translate(-61.3 -422.901)" fill="#ebebeb"/>
          <path id="Shadow_42_" data-name="Shadow 42 " d="M666.042,868.61c4.964.433,9.929.67,14.736.906,14.145.67,30.614-.2,44.365-3.152,9.141-1.97,19.543-7.919,20.488-18.794,1.379-15.839-16.43-27.62-30.693-27.777-5.595-.079-13.475.749-15.642,7.013-3.625,10.323-12.451,12.845-21.867,13.435-3.231.237-6.54.237-9.732.237-7.171,0-14.3.394-21.513.749-5.674.315-10.717.512-15.209,4.295-2.285,1.931-4.176,5.753-3.073,8.511,1.261,3.191,3.822,6.265,12.254,9.338A100.057,100.057,0,0,0,666.042,868.61Z" transform="translate(-404.463 -621.963)" fill="#ebebeb"/>
        </g>
        <g id="Pot" transform="translate(26.609 35.002)">
          <g id="Pot_1_" data-name="Pot 1 ">
            <g id="_Group_" data-name="&lt;Group&gt;" transform="translate(0 30.004)">
              <path id="_Path_" data-name="&lt;Path&gt;" d="M101.447,470.155c-12.1,7.013-12.1,18.321,0,25.3,12.057,6.974,31.678,6.974,43.774,0s12.1-18.282,0-25.3C133.125,463.182,113.5,463.182,101.447,470.155Z" transform="translate(-91.492 -429.189)" fill="#e0e0e0"/>
              <path id="_Path_2" data-name="&lt;Path&gt;" d="M141.932,443.068c10.678-10.914,16.942-38.1,6.54-46.768H95.479c-10.441,8.668-4.137,35.854,6.5,46.729l.315.315a2.262,2.262,0,0,0,.355.355q.473.433.985.867a1.567,1.567,0,0,0,.236.2c.276.2.512.394.827.591a11.326,11.326,0,0,0,1.379.906c8.786,5.083,23.01,5.083,31.8,0a11.326,11.326,0,0,0,1.379-.906A5.244,5.244,0,0,0,140,444.8l.315-.236q.512-.433.946-.827a3.379,3.379,0,0,1,.433-.433l.236-.236Z" transform="translate(-90.134 -387.602)" fill="#ebebeb"/>
              <path id="_Path_3" data-name="&lt;Path&gt;" d="M101.447,379.455c-12.1,6.974-12.1,18.282,0,25.3,12.057,6.974,31.678,6.974,43.774,0,12.1-7.013,12.1-18.321,0-25.3S113.5,372.481,101.447,379.455Z" transform="translate(-91.492 -374.225)" fill="#fafafa"/>
              <path id="_Path_4" data-name="&lt;Path&gt;" d="M128.6,395.191c-7.368,4.216-7.368,11.111,0,15.366s19.306,4.255,26.635,0c7.368-4.255,7.368-11.15,0-15.366C147.907,390.936,135.969,390.936,128.6,395.191Z" transform="translate(-110.096 -384.997)" fill="#ebebeb"/>
              <path id="_Path_5" data-name="&lt;Path&gt;" d="M156.948,413.691c-7.328-4.255-19.267-4.255-26.635,0a12.3,12.3,0,0,0-4.413,4.019,12.033,12.033,0,0,0,4.413,4.058c7.368,4.255,19.306,4.255,26.635,0a12.033,12.033,0,0,0,4.413-4.058A12.3,12.3,0,0,0,156.948,413.691Z" transform="translate(-111.808 -396.207)" fill="#e0e0e0"/>
            </g>
            <g id="_Group_2" data-name="&lt;Group&gt;" transform="translate(6.278)">
              <path id="_Path_6" data-name="&lt;Path&gt;" d="M129.642,351.945a21.517,21.517,0,0,1-15.13-8.668,60.258,60.258,0,0,1-4.216-6.5c-4.452-7.841-5.28-18.4-2.994-19.7,2.325-1.3,11.663,9.22,11.663,9.22a56.976,56.976,0,0,1-.985-13.436c.394-7.013,2.128-13.4,4.137-14.657,2.009-1.3,6.5,7.565,8.392,13.948,1.931,6.422,3.113,11.663,3.113,11.663a99.692,99.692,0,0,1,3.428-14.736c2.325-6.659,4.452-8.156,6.107-7.486s2.719,3.743,3.191,12.608a84.989,84.989,0,0,1-.394,12.687s3.31-3.625,6.974-7.132c4.019-3.9,5.752-4.413,6.9-3.664,1.143.709,1.458,6.738-4.767,18.006a70.962,70.962,0,0,1-6.5,9.771A21.461,21.461,0,0,1,130,351.945Z" transform="translate(-106.068 -298.074)" fill="#ba68c8"/>
              <path id="_Path_7" data-name="&lt;Path&gt;" d="M129.642,351.945a21.517,21.517,0,0,1-15.13-8.668,60.258,60.258,0,0,1-4.216-6.5c-4.452-7.841-5.28-18.4-2.994-19.7,2.325-1.3,11.663,9.22,11.663,9.22a56.976,56.976,0,0,1-.985-13.436c.394-7.013,2.128-13.4,4.137-14.657,2.009-1.3,6.5,7.565,8.392,13.948,1.931,6.422,3.113,11.663,3.113,11.663a99.692,99.692,0,0,1,3.428-14.736c2.325-6.659,4.452-8.156,6.107-7.486s2.719,3.743,3.191,12.608a84.989,84.989,0,0,1-.394,12.687s3.31-3.625,6.974-7.132c4.019-3.9,5.752-4.413,6.9-3.664,1.143.709,1.458,6.738-4.767,18.006a70.962,70.962,0,0,1-6.5,9.771A21.461,21.461,0,0,1,130,351.945Z" transform="translate(-106.068 -298.074)" opacity="0.1"/>
              <path id="_Path_8" data-name="&lt;Path&gt;" d="M137.491,313.1a50.284,50.284,0,0,0-1.3,8.865,56.976,56.976,0,0,0,.985,13.436l4.649,4.807s-4.61-15.406-4.334-27.107Z" transform="translate(-124.28 -307.18)" opacity="0.1"/>
              <path id="_Path_9" data-name="&lt;Path&gt;" d="M217.308,344a18.167,18.167,0,0,0-4.61,3.585c-3.664,3.507-6.974,7.131-6.974,7.131a46.753,46.753,0,0,1-1.024,6.659C211.516,357.436,217.308,344,217.308,344Z" transform="translate(-165.839 -325.905)" opacity="0.1"/>
              <path id="_Path_10" data-name="&lt;Path&gt;" d="M178.54,325.594c1.143-7.368,2.837-13.514,4.137-16.194a19.647,19.647,0,0,0-3.349,6.54,98.563,98.563,0,0,0-3.428,14.736l1.221,6.028s.473-5.319,1.418-11.111Z" transform="translate(-148.386 -304.938)" opacity="0.1"/>
            </g>
          </g>
        </g>
        <g id="Envelope" transform="translate(141.92 74.757)">
          <g id="Envelope_2_" data-name="Envelope 2 ">
            <g id="_Group_3" data-name="&lt;Group&gt;">
              <path id="_Compound_Path_" data-name="&lt;Compound Path&gt;" d="M382.8,456.47a1.669,1.669,0,0,0,.788,1.221l.079.079c.079.039.118.039.158.079l16.154,9.338L511.245,531.41h.039a5.418,5.418,0,0,0,4.925,0L597.1,484.72l1.3-.749h0a3.2,3.2,0,0,0,1.615-2.837v-7.328a3.2,3.2,0,0,0-1.221-2.4h-.039l-13.278-7.683L481.459,403.634l-5.989-3.428h-.039a8.847,8.847,0,0,0-4.058-1.221h-.079a8.9,8.9,0,0,0-4.767,1.143,1.538,1.538,0,0,0-.2.079l-82.5,47.635-.039.039a.114.114,0,0,1-.079.039.459.459,0,0,1-.118.079v.039a1.4,1.4,0,0,0-.63.67c-.039.039-.039.118-.079.2a.35.35,0,0,0-.039.158v.118q-.039,0,0,.039a.16.16,0,0,0-.039.118c.039.433,0,7.013,0,7.131Z" transform="translate(-382.8 -398.975)" fill="#ba68c8"/>
              <path id="_Path_11" data-name="&lt;Path&gt;" d="M716.6,646.958a.35.35,0,0,1-.158.039,5.043,5.043,0,0,1-.67.118h0a2.868,2.868,0,0,1-.473.039h-.2v-7.131a5.03,5.03,0,0,0,2.482-.591l82.189-47.438A3.247,3.247,0,0,0,801.387,589v7.289a3.2,3.2,0,0,1-1.615,2.837h0l-1.3.749-80.889,46.69a2.705,2.705,0,0,1-.552.276A2.085,2.085,0,0,1,716.6,646.958Z" transform="translate(-584.172 -514.129)" fill="#fff" opacity="0.3"/>
              <path id="_Path_12" data-name="&lt;Path&gt;" d="M382.8,533.931a1.669,1.669,0,0,0,.788,1.221l.079.079c.079.039.118.039.158.079l127.421,73.561h.039a4.578,4.578,0,0,0,2.364.591h.079v-7.131a4.876,4.876,0,0,1-2.443-.591h-.039L383.667,528.1l-.079-.079a1.669,1.669,0,0,1-.788-1.221c.039.433,0,7.013,0,7.131Z" transform="translate(-382.8 -476.436)" fill="#fff" opacity="0.1"/>
              <path id="_Path_13" data-name="&lt;Path&gt;" d="M382.8,449.339a1.669,1.669,0,0,0,.788,1.221l.079.079,16.312,9.377,67.414,38.928,43.853,25.335h.039a4.578,4.578,0,0,0,2.364.591,5.342,5.342,0,0,0,2.561-.591l1.418-.827,62.962-36.327,16.509-9.535,1.3-.749h0a3.225,3.225,0,0,0,1.615-2.955v-.079a3.2,3.2,0,0,0-1.221-2.4h-.039l-13.278-7.683L481.459,403.634l-5.989-3.428h-.039a8.846,8.846,0,0,0-4.058-1.221h-.079a8.9,8.9,0,0,0-4.767,1.143,1.525,1.525,0,0,0-.2.079l-82.5,47.635-.039.039a.114.114,0,0,1-.079.039.459.459,0,0,1-.118.079v.039a1.394,1.394,0,0,0-.63.67c-.039.039-.039.118-.079.2a.35.35,0,0,0-.039.158q-.039.039,0,.118-.039,0,0,.039a.161.161,0,0,0-.039.118Z" transform="translate(-382.8 -398.975)" opacity="0.4"/>
              <g id="_Group_4" data-name="&lt;Group&gt;">
                <path id="_Path_14" data-name="&lt;Path&gt;" d="M382.8,449.338a1.669,1.669,0,0,0,.788,1.221l.079.079,16.312,9.377,67.414,38.928,43.853,25.334h.039a4.578,4.578,0,0,0,2.364.591,5.342,5.342,0,0,0,2.561-.591l1.418-.827,62.962-36.327,16.509-9.535,1.3-.749h0a3.225,3.225,0,0,0,1.615-2.955v-.079a6.649,6.649,0,0,0-1.5-.276l-14.775-1.458-76.634-7.644-11.978-1.182c-2.6-.276-4.964-1.221-5.24-2.128l-2.4-8L472.554,403l-1.143-3.743v-.039l-.118-.236a8.9,8.9,0,0,0-4.767,1.143,1.539,1.539,0,0,0-.2.079l-3.585,2.088-78.919,45.547-.039.039a.114.114,0,0,1-.079.039.459.459,0,0,1-.118.079v.039a1.4,1.4,0,0,0-.63.67c-.039.039-.039.118-.079.2a.349.349,0,0,0-.039.158q-.039.039,0,.118-.039,0,0,.039a.16.16,0,0,0-.039.118Z" transform="translate(-382.8 -398.975)" fill="#ba68c8"/>
                <path id="_Path_15" data-name="&lt;Path&gt;" d="M382.8,449.338a1.669,1.669,0,0,0,.788,1.221l.079.079,16.312,9.377,67.414,38.928,43.853,25.334h.039a4.578,4.578,0,0,0,2.364.591,5.342,5.342,0,0,0,2.561-.591l1.418-.827,62.962-36.327,16.509-9.535,1.3-.749h0a3.225,3.225,0,0,0,1.615-2.955v-.079a6.649,6.649,0,0,0-1.5-.276l-14.775-1.458-76.634-7.644-11.978-1.182c-2.6-.276-4.964-1.221-5.24-2.128l-2.4-8L472.554,403l-1.143-3.743v-.039l-.118-.236a8.9,8.9,0,0,0-4.767,1.143,1.539,1.539,0,0,0-.2.079l-3.585,2.088-78.919,45.547-.039.039a.114.114,0,0,1-.079.039.459.459,0,0,1-.118.079v.039a1.4,1.4,0,0,0-.63.67c-.039.039-.039.118-.079.2a.349.349,0,0,0-.039.158q-.039.039,0,.118-.039,0,0,.039a.16.16,0,0,0-.039.118Z" transform="translate(-382.8 -398.975)" fill="#fff" opacity="0.5"/>
                <path id="_Path_16" data-name="&lt;Path&gt;" d="M383.824,525.937a.2.2,0,0,0-.158-.079l-.079-.079a1.451,1.451,0,0,1,.236-2.679l93.064,4.531.2,1.852-77.107,5.792Z" transform="translate(-382.8 -474.194)" fill="#ba68c8" opacity="0.3"/>
                <path id="_Path_17" data-name="&lt;Path&gt;" d="M646.357,633.979a5.618,5.618,0,0,1-2.6.591,4.681,4.681,0,0,1-2.364-.591h-.039L597.5,608.644,630.478,580l7.841.276,9.417,52.875Z" transform="translate(-512.907 -508.675)" fill="#ba68c8" opacity="0.3"/>
                <path id="_Path_18" data-name="&lt;Path&gt;" d="M382.8,526.8a1.669,1.669,0,0,0,.788,1.221l.079.079L511.245,601.74h.039a4.68,4.68,0,0,0,2.364.591l-7.171-66.311c-.276-2.758-6.58-5-14.815-5.28Z" transform="translate(-382.8 -476.436)" fill="#ba68c8"/>
                <path id="_Path_19" data-name="&lt;Path&gt;" d="M382.8,526.8a1.669,1.669,0,0,0,.788,1.221l.079.079L511.245,601.74h.039a4.68,4.68,0,0,0,2.364.591l-7.171-66.311c-.276-2.758-6.58-5-14.815-5.28Z" transform="translate(-382.8 -476.436)" fill="#fff" opacity="0.5"/>
              </g>
              <path id="_Path_20" data-name="&lt;Path&gt;" d="M607.4,399l.433,3.94,5.2,49.645v.158l.118,1.221,1.143,10.756c.276,2.758,6.58,5.043,14.815,5.319l7.368.276,7.407.276h.433l75.294,2.719,16.509.591v-.079a3.2,3.2,0,0,0-1.221-2.4h-.039l-13.278-7.683L617.526,403.649l-5.95-3.428h-.039A8.846,8.846,0,0,0,607.479,399Z" transform="translate(-518.907 -398.99)" fill="#ba68c8" opacity="0.3"/>
              <path id="_Path_21" data-name="&lt;Path&gt;" d="M607.6,399l.039.236v.039l.63,3.7,8.156,49.8.039.079.118.827,1.5,9.18c.433,2.561,6.186,4.728,13.83,5.161l6.9.355,5,.276.315.039,75.688,4.216,16.43.946v-.039a3.2,3.2,0,0,0-1.221-2.4h-.039L721.7,463.735,617.647,403.649l-5.95-3.428h-.039A8.846,8.846,0,0,0,607.6,399Z" transform="translate(-519.028 -398.99)" fill="#ba68c8"/>
              <path id="_Path_22" data-name="&lt;Path&gt;" d="M607.6,399l.039.236v.039l.63,3.7,8.156,49.8.039.079.118.827,1.5,9.18c.433,2.561,6.186,4.728,13.83,5.161l6.9.355,5,.276.315.039,75.688,4.216,16.43.946v-.039a3.2,3.2,0,0,0-1.221-2.4h-.039L721.7,463.735,617.647,403.649l-5.95-3.428h-.039A8.846,8.846,0,0,0,607.6,399Z" transform="translate(-519.028 -398.99)" fill="#fff" opacity="0.6"/>
            </g>
          </g>
        </g>
        <g id="Letter" transform="translate(14.46 73.467)">
          <g id="Letter-2" data-name="Letter">
            <g id="Sheet">
              <path id="_Path_23" data-name="&lt;Path&gt;" d="M195.547,397.434l-2.955-1.734L59.3,472.688v1.694a59.433,59.433,0,0,0,29.629,51.339l137.547,79.431L359.807,528.2v-3.428L223.718,446.211A56.374,56.374,0,0,1,195.547,397.434Z" transform="translate(-59.3 -395.7)" fill="#ba68c8"/>
              <path id="_Path_24" data-name="&lt;Path&gt;" d="M483.639,800.249,616.931,723.3v3.428L483.6,803.677Z" transform="translate(-316.424 -594.224)" opacity="0.4"/>
              <path id="_Path_25" data-name="&lt;Path&gt;" d="M62.255,474.383,59.3,472.689,192.592,395.7l2.955,1.734Z" transform="translate(-59.3 -395.7)" fill="#fff" opacity="0.3"/>
              <g id="_Group_5" data-name="&lt;Group&gt;" transform="translate(2.955 1.734)">
                <path id="_Compound_Path_2" data-name="&lt;Compound Path&gt;" d="M364.352,527.442,228.263,448.878A56.374,56.374,0,0,1,200.092,400.1L66.8,477.049a56.244,56.244,0,0,0,28.171,48.778L231.06,604.391Z" transform="translate(-66.8 -400.1)" fill="#ba68c8"/>
                <path id="_Path_26" data-name="&lt;Path&gt;" d="M105.371,534.422A51.493,51.493,0,0,1,79.8,492.894L203.517,421.5a61.689,61.689,0,0,0,30.1,44.72L362.1,540.41,238.938,611.528Z" transform="translate(-74.678 -413.068)" fill="#fafafa"/>
              </g>
              <path id="_Path_27" data-name="&lt;Path&gt;" d="M90.426,641.572l136.089,78.565-.039,3.428L88.929,644.133A59.433,59.433,0,0,1,59.3,592.794V591.1l2.955,1.694a56.244,56.244,0,0,0,28.171,48.778Z" transform="translate(-59.3 -514.112)" opacity="0.2"/>
            </g>
            <g id="Text" transform="translate(46.564 30.633)">
              <g id="_Group_6" data-name="&lt;Group&gt;">
                <path id="_Path_28" data-name="&lt;Path&gt;" d="M291.2,488.716l25.965-14.972a1.487,1.487,0,0,1,2.285.552,2.2,2.2,0,0,1-1.143,2.482L292.342,491.75a1.5,1.5,0,0,1-2.285-.512A2.252,2.252,0,0,1,291.2,488.716Z" transform="translate(-245.646 -473.447)" fill="#e0e0e0"/>
                <path id="_Path_29" data-name="&lt;Path&gt;" d="M178.238,591.638l89.4-51.615a3.637,3.637,0,0,1,3.31-.079c.867.512.827,1.379-.118,1.931l-89.4,51.615a3.639,3.639,0,0,1-3.31.079C177.214,593.057,177.292,592.19,178.238,591.638Z" transform="translate(-177.483 -513.526)" fill="#e0e0e0"/>
                <path id="_Path_30" data-name="&lt;Path&gt;" d="M194.462,601.038l89.4-51.614a3.638,3.638,0,0,1,3.31-.079c.906.512.867,1.379-.079,1.931L197.653,602.89a3.633,3.633,0,0,1-3.31.039C193.477,602.417,193.516,601.59,194.462,601.038Z" transform="translate(-187.323 -519.222)" fill="#e0e0e0"/>
                <path id="_Path_31" data-name="&lt;Path&gt;" d="M210.692,610.432l89.439-51.654a3.758,3.758,0,0,1,3.31-.039c.867.512.827,1.379-.118,1.891l-89.4,51.654a3.759,3.759,0,0,1-3.31.039C209.707,611.811,209.786,610.984,210.692,610.432Z" transform="translate(-197.171 -524.912)" fill="#e0e0e0"/>
                <path id="_Path_32" data-name="&lt;Path&gt;" d="M226.962,619.81l89.4-51.654a3.634,3.634,0,0,1,3.31-.039c.906.512.867,1.34-.079,1.891l-89.439,51.615a3.636,3.636,0,0,1-3.31.079C225.977,621.189,226.016,620.322,226.962,619.81Z" transform="translate(-207.018 -530.586)" fill="#e0e0e0"/>
                <path id="_Path_33" data-name="&lt;Path&gt;" d="M259.462,638.538l89.4-51.615a3.639,3.639,0,0,1,3.31-.079c.906.512.827,1.379-.118,1.931l-89.4,51.615a3.637,3.637,0,0,1-3.31.079C258.477,639.957,258.516,639.09,259.462,638.538Z" transform="translate(-226.713 -541.947)" fill="#e0e0e0"/>
                <path id="_Path_34" data-name="&lt;Path&gt;" d="M275.67,647.938l89.439-51.615a3.637,3.637,0,0,1,3.31-.079c.867.512.827,1.379-.118,1.931L278.9,649.79a3.634,3.634,0,0,1-3.31.039c-.906-.512-.867-1.34.079-1.891Z" transform="translate(-236.539 -547.643)" fill="#e0e0e0"/>
                <path id="_Path_35" data-name="&lt;Path&gt;" d="M291.962,657.339l89.4-51.615a3.638,3.638,0,0,1,3.31-.079c.906.512.827,1.379-.118,1.891l-89.4,51.654a3.633,3.633,0,0,1-3.31.039c-.867-.512-.827-1.34.118-1.891Z" transform="translate(-246.408 -553.34)" fill="#e0e0e0"/>
                <path id="_Path_36" data-name="&lt;Path&gt;" d="M308.17,666.732l89.439-51.654a3.758,3.758,0,0,1,3.31-.039c.867.512.827,1.34-.118,1.891l-89.4,51.615a3.638,3.638,0,0,1-3.31.079c-.906-.512-.867-1.379.079-1.891Z" transform="translate(-256.234 -559.03)" fill="#e0e0e0"/>
                <path id="_Path_37" data-name="&lt;Path&gt;" d="M340.67,685.462l89.439-51.615a3.762,3.762,0,0,1,3.31-.079c.867.512.827,1.379-.118,1.931l-89.439,51.615a3.555,3.555,0,0,1-3.27.079c-.906-.512-.867-1.379.079-1.931Z" transform="translate(-275.928 -570.392)" fill="#e0e0e0"/>
                <path id="_Path_38" data-name="&lt;Path&gt;" d="M356.962,694.839l89.4-51.615a3.639,3.639,0,0,1,3.31-.079c.867.512.827,1.379-.118,1.931l-89.4,51.615a3.763,3.763,0,0,1-3.31.079c-.867-.512-.827-1.379.118-1.931Z" transform="translate(-285.798 -576.065)" fill="#e0e0e0"/>
                <path id="_Path_39" data-name="&lt;Path&gt;" d="M397.562,755.486l47.556-27.462a3.555,3.555,0,0,1,3.27-.079c.906.512.867,1.379-.079,1.931L400.753,757.3a3.637,3.637,0,0,1-3.31.079c-.867-.512-.827-1.379.118-1.891Z" transform="translate(-310.401 -627.453)" fill="#e0e0e0"/>
              </g>
            </g>
          </g>
        </g>
        <g id="Mail_Stamp" data-name="Mail Stamp" transform="translate(28.976 228.561)">
          <g id="Mail_Stamp_1_" data-name="Mail Stamp 1 ">
            <path id="_Path_40" data-name="&lt;Path&gt;" d="M103.3,806.973l1.182.079c1.537.039,2.837-.709,2.719-1.576l-.079-.709c-.118-.867,1.143-1.615,2.719-1.537l1.182.039c1.537.079,2.837-.67,2.719-1.576l-.079-.709c-.118-.867,1.143-1.615,2.679-1.537l1.221.039c1.537.079,2.837-.67,2.719-1.576l-.118-.67c-.118-.906,1.182-1.655,2.719-1.576l1.221.039c1.537.079,2.837-.67,2.719-1.537l-.118-.709c-.118-.906,1.182-1.655,2.719-1.576l1.97.079a2.672,2.672,0,0,0,2.64-1.143l.118-.355c.552-1.379,3.822-1.537,4.807-.236a3.254,3.254,0,0,0,2.679.867l1.418-.118c1.694-.158,3.113.67,2.876,1.655-.236.946,1.182,1.773,2.837,1.615,1.694-.118,3.113.709,2.876,1.655-.236.985,1.182,1.812,2.876,1.655,1.655-.118,3.073.709,2.837,1.655-.236.985,1.182,1.812,2.876,1.655,1.655-.118,3.073.709,2.837,1.655s1.221,1.773,2.876,1.655c1.655-.158,3.113.67,2.876,1.655l-.236.827c-.158.63.473,1.261,1.5,1.537h.039c2.246.552,1.891,2.482-.473,2.758l-.63.079c-1.221.158-2.049.827-1.97,1.537l.158,1.143c.118.867-1.182,1.615-2.719,1.537l-1.221-.039c-1.537-.079-2.8.67-2.679,1.576l.079.67c.118.906-1.182,1.655-2.719,1.576l-1.182-.039c-1.576-.079-2.837.67-2.719,1.576l.079.67c.118.906-1.182,1.655-2.719,1.576l-1.182-.039c-1.576-.079-2.837.67-2.719,1.537l.079.709c.118.906-1.182,1.615-2.719,1.576l-1.182-.079c-1.537-.039-2.837.67-2.719,1.576l.079.709c.118.867-1.143,1.615-2.719,1.537l-1.931-.079c-1.261-.039-2.4.433-2.679,1.143l-.118.355c-.512,1.379-3.782,1.576-4.767.276h-.039a3.166,3.166,0,0,0-2.64-.867l-1.458.118c-1.655.118-3.073-.67-2.837-1.655.236-.946-1.221-1.773-2.876-1.655-1.655.158-3.113-.67-2.876-1.655.276-.946-1.182-1.773-2.837-1.655-1.655.158-3.113-.67-2.876-1.655.236-.946-1.182-1.773-2.837-1.615-1.694.118-3.113-.709-2.876-1.655.236-.985-1.182-1.812-2.837-1.655-1.694.118-3.113-.709-2.876-1.655l.2-.827c.158-.67-.433-1.3-1.5-1.537-2.246-.591-1.931-2.482.473-2.8l.591-.039c1.261-.158,2.088-.827,2.009-1.537l-.158-1.143c-.118-.906,1.143-1.615,2.719-1.576Z" transform="translate(-96.143 -789.336)" fill="#fafafa"/>
            <path id="_Path_41" data-name="&lt;Path&gt;" d="M114.787,815.485l26.635-15.406c2.561-1.458,6.146-1.734,8.077-.67l24.468,14.145c1.891,1.1,1.379,3.191-1.182,4.649L146.15,833.57c-2.522,1.5-6.146,1.773-8.038.67l-24.468-14.105c-1.891-1.1-1.379-3.191,1.143-4.649Z" transform="translate(-106.057 -795.05)" fill="#ba68c8"/>
            <path id="_Path_42" data-name="&lt;Path&gt;" d="M114.787,815.485l26.635-15.406c2.561-1.458,6.146-1.734,8.077-.67l24.468,14.145c1.891,1.1,1.379,3.191-1.182,4.649L146.15,833.57c-2.522,1.5-6.146,1.773-8.038.67l-24.468-14.105c-1.891-1.1-1.379-3.191,1.143-4.649Z" transform="translate(-106.057 -795.05)" fill="#fff" opacity="0.3"/>
            <g id="_Group_7" data-name="&lt;Group&gt;" transform="translate(23.589 12.426)">
              <g id="_Group_8" data-name="&lt;Group&gt;" transform="translate(8.929)">
                <path id="_Path_43" data-name="&lt;Path&gt;" d="M196.218,827.15a.671.671,0,0,1-.276.039l-4.176-.512-11.623-3.152c-.2-.079-.315-.2-.276-.315l.315-1.773-.276-.158-.67.394a.5.5,0,0,1-.473,0c-.118-.079-.118-.2,0-.236l.788-.473a.753.753,0,0,1,.709,0l.394.236a.285.285,0,0,1,.158.236l-.276,1.773L192,826.322l4.058.512c.158,0,.276.118.236.2a.126.126,0,0,1-.079.118Z" transform="translate(-178.675 -820.875)" fill="#37474f"/>
              </g>
              <g id="_Group_9" data-name="&lt;Group&gt;" transform="translate(18.518 1.67)">
                <path id="_Compound_Path_3" data-name="&lt;Compound Path&gt;" d="M216.207,832.751a11.98,11.98,0,0,1-10.914-.04c-3.034-1.734-3.034-4.57-.039-6.3a12.063,12.063,0,0,1,10.953.039C219.2,828.181,219.241,831.018,216.207,832.751Zm-10.323-5.989c-2.679,1.537-2.679,4.058,0,5.595a10.726,10.726,0,0,0,9.732.039c2.679-1.536,2.64-4.058-.039-5.634A10.766,10.766,0,0,0,205.884,826.762Z" transform="translate(-203.012 -825.112)" fill="#f0f0f0" fill-rule="evenodd"/>
              </g>
              <g id="_Group_10" data-name="&lt;Group&gt;" transform="translate(17.676 1.197)">
                <path id="_Path_44" data-name="&lt;Path&gt;" d="M215.5,825.523a.238.238,0,0,1-.315,0,12.728,12.728,0,0,0-11.5,0c-3.191,1.813-3.152,4.807.039,6.619.079.079.079.158,0,.2a.435.435,0,0,1-.315,0c-3.349-1.93-3.388-5.083-.039-7.013a13.561,13.561,0,0,1,12.135.039A.082.082,0,0,1,215.5,825.523Z" transform="translate(-200.875 -823.912)" fill="#ba68c8"/>
                <path id="_Path_45" data-name="&lt;Path&gt;" d="M215.5,825.523a.238.238,0,0,1-.315,0,12.728,12.728,0,0,0-11.5,0c-3.191,1.813-3.152,4.807.039,6.619.079.079.079.158,0,.2a.435.435,0,0,1-.315,0c-3.349-1.93-3.388-5.083-.039-7.013a13.561,13.561,0,0,1,12.135.039A.082.082,0,0,1,215.5,825.523Z" transform="translate(-200.875 -823.912)" opacity="0.2"/>
              </g>
              <g id="_Group_11" data-name="&lt;Group&gt;" transform="translate(0 11.401)">
                <path id="_Path_46" data-name="&lt;Path&gt;" d="M170.625,851.462a.309.309,0,0,1-.315-.039,12.851,12.851,0,0,0-11.5,0c-3.152,1.812-3.152,4.807.039,6.659a.082.082,0,0,1,0,.158.435.435,0,0,1-.315,0c-3.349-1.931-3.349-5.083-.039-7.013a13.561,13.561,0,0,1,12.135.039C170.7,851.3,170.7,851.384,170.625,851.462Z" transform="translate(-156.012 -849.813)" fill="#ba68c8"/>
                <path id="_Path_47" data-name="&lt;Path&gt;" d="M170.625,851.462a.309.309,0,0,1-.315-.039,12.851,12.851,0,0,0-11.5,0c-3.152,1.812-3.152,4.807.039,6.659a.082.082,0,0,1,0,.158.435.435,0,0,1-.315,0c-3.349-1.931-3.349-5.083-.039-7.013a13.561,13.561,0,0,1,12.135.039C170.7,851.3,170.7,851.384,170.625,851.462Z" transform="translate(-156.012 -849.813)" opacity="0.2"/>
              </g>
              <g id="_Group_12" data-name="&lt;Group&gt;" transform="translate(0.827 11.874)">
                <path id="_Compound_Path_4" data-name="&lt;Compound Path&gt;" d="M171.346,858.651a12.062,12.062,0,0,1-10.953-.039c-3.034-1.734-3.034-4.57-.039-6.3a12.063,12.063,0,0,1,10.953.039C174.3,854.081,174.34,856.918,171.346,858.651Zm-10.362-5.989c-2.679,1.537-2.679,4.058,0,5.634a10.848,10.848,0,0,0,9.732,0c2.679-1.537,2.679-4.058-.039-5.595A10.645,10.645,0,0,0,160.984,852.662Z" transform="translate(-158.112 -851.012)" fill="#f0f0f0" fill-rule="evenodd"/>
              </g>
              <g id="_Group_13" data-name="&lt;Group&gt;" transform="translate(7.599 3.832)">
                <path id="_Path_48" data-name="&lt;Path&gt;" d="M184.992,839.623h-.039l-8.511,3.625a.419.419,0,0,1-.315.039c-.118-.039-.2-.079-.2-.158l-.63-6.146c0-.118.158-.2.315-.2.2,0,.355.079.355.158l.591,5.831,7.88-3.388-.867-8.589c0-.118.118-.2.315-.2.158,0,.315.079.315.158l.906,8.708q0,.079-.118.158Z" transform="translate(-175.3 -830.6)" fill="#37474f"/>
              </g>
              <g id="_Group_14" data-name="&lt;Group&gt;" transform="translate(2.998 8.742)">
                <path id="_Path_49" data-name="&lt;Path&gt;" d="M177.915,847.175a.544.544,0,0,1-.355,0l-13.751-3.743c-.158-.039-.236-.158-.158-.236a.421.421,0,0,1,.433-.118l13.751,3.782c.158.039.236.158.158.237Z" transform="translate(-163.622 -843.063)" fill="#37474f"/>
              </g>
              <g id="_Group_15" data-name="&lt;Group&gt;" transform="translate(8.158 11.968)">
                <path id="_Path_50" data-name="&lt;Path&gt;" d="M183.843,851.585h0l-6.619,3.231a.432.432,0,0,1-.433-.039c-.118-.079-.079-.2.039-.236l6.58-3.231a.5.5,0,0,1,.473,0,.169.169,0,0,1-.039.276Z" transform="translate(-176.719 -851.25)" fill="#37474f"/>
              </g>
              <path id="_Path_51" data-name="&lt;Path&gt;" d="M160.917,839.618a4.105,4.105,0,0,0-1.418.63c-.67.433-.788.788-.236,1.182a.478.478,0,0,0,.512-.039,3.2,3.2,0,0,1,.709-.394,2.651,2.651,0,0,0,1.024-.394c.2-.2.276-.552.67-.906a10.28,10.28,0,0,1,1.1-.67,2.577,2.577,0,0,0,.276-.158c.118-.079.079-.236-.118-.276a1.431,1.431,0,0,0-.985.039C161.981,838.83,161.508,839.382,160.917,839.618Z" transform="translate(-157.77 -831.571)" fill="#ba68c8"/>
              <path id="_Path_52" data-name="&lt;Path&gt;" d="M160.917,839.618a4.105,4.105,0,0,0-1.418.63c-.67.433-.788.788-.236,1.182a.478.478,0,0,0,.512-.039,3.2,3.2,0,0,1,.709-.394,2.651,2.651,0,0,0,1.024-.394c.2-.2.276-.552.67-.906a10.28,10.28,0,0,1,1.1-.67,2.577,2.577,0,0,0,.276-.158c.118-.079.079-.236-.118-.276a1.431,1.431,0,0,0-.985.039C161.981,838.83,161.508,839.382,160.917,839.618Z" transform="translate(-157.77 -831.571)" opacity="0.2"/>
              <g id="_Group_16" data-name="&lt;Group&gt;" transform="translate(12.118 2.804)">
                <path id="_Path_53" data-name="&lt;Path&gt;" d="M188.751,837.135c-.079.079-.2.079-.355.039s-.236-.158-.158-.236c2.364-3.073,1.891-5.989-1.418-8.668-.079-.079-.079-.2.079-.236a.412.412,0,0,1,.433.039c3.467,2.758,3.979,5.792,1.5,9.023A.114.114,0,0,1,188.751,837.135Z" transform="translate(-186.769 -827.991)" fill="#37474f"/>
              </g>
              <g id="_Group_17" data-name="&lt;Group&gt;" transform="translate(15.079 7.575)">
                <path id="_Path_54" data-name="&lt;Path&gt;" d="M196.024,840.415a.438.438,0,0,1-.2.039l-1.182.079c-.2,0-.355-.079-.355-.158-.039-.118.118-.2.276-.2l1.182-.079c.2,0,.355.079.355.158A.227.227,0,0,1,196.024,840.415Z" transform="translate(-194.284 -840.1)" fill="#37474f"/>
              </g>
              <g id="_Group_18" data-name="&lt;Group&gt;" transform="translate(15.085 11.554)">
                <path id="_Compound_Path_5" data-name="&lt;Compound Path&gt;" d="M197.688,852.17a3.171,3.171,0,0,1-2.8,0c-.788-.473-.788-1.182,0-1.615a2.936,2.936,0,0,1,2.8,0A.847.847,0,0,1,197.688,852.17Zm-2.482-1.458a.67.67,0,0,0,0,1.261,2.34,2.34,0,0,0,2.167,0,.67.67,0,0,0,0-1.261A2.6,2.6,0,0,0,195.206,850.712Z" transform="translate(-194.3 -850.2)" fill="#f0f0f0" fill-rule="evenodd"/>
              </g>
              <g id="_Group_19" data-name="&lt;Group&gt;" transform="translate(16.851 12.292)">
                <path id="_Path_55" data-name="&lt;Path&gt;" d="M203.556,852.281a.161.161,0,0,1-.118.039l-4.413.276c-.118.039-.236-.039-.236-.079-.039-.079.079-.158.2-.158l4.373-.276a.219.219,0,0,1,.276.118C203.634,852.228,203.608,852.255,203.556,852.281Z" transform="translate(-198.78 -852.073)" fill="#f0f0f0"/>
              </g>
              <g id="_Group_20" data-name="&lt;Group&gt;" transform="translate(20.552 11.997)">
                <path id="_Path_56" data-name="&lt;Path&gt;" d="M209.761,851.552l-1.182.67a.238.238,0,0,1-.315,0c-.118-.039-.118-.118,0-.158l1.182-.709a.435.435,0,0,1,.315,0A.112.112,0,0,1,209.761,851.552Z" transform="translate(-208.175 -851.325)" fill="#ba68c8"/>
                <path id="_Path_57" data-name="&lt;Path&gt;" d="M209.761,851.552l-1.182.67a.238.238,0,0,1-.315,0c-.118-.039-.118-.118,0-.158l1.182-.709a.435.435,0,0,1,.315,0A.112.112,0,0,1,209.761,851.552Z" transform="translate(-208.175 -851.325)" opacity="0.2"/>
              </g>
              <path id="_Path_58" data-name="&lt;Path&gt;" d="M176,822.98c-.394-.2-.433-.552-.118-.749a1.518,1.518,0,0,1,1.3.079c.355.2.433.552.079.749A1.433,1.433,0,0,1,176,822.98Z" transform="translate(-167.923 -821.63)" fill="#ba68c8"/>
              <path id="_Path_59" data-name="&lt;Path&gt;" d="M176,822.98c-.394-.2-.433-.552-.118-.749a1.518,1.518,0,0,1,1.3.079c.355.2.433.552.079.749A1.433,1.433,0,0,1,176,822.98Z" transform="translate(-167.923 -821.63)" opacity="0.4"/>
              <path id="_Path_60" data-name="&lt;Path&gt;" d="M174.66,823.318l-1.97,1.143c-.276.158-.906-.2-.67-.355l2.009-1.143C174.226,822.845,174.857,823.2,174.66,823.318Z" transform="translate(-165.681 -822.126)" fill="#ba68c8"/>
              <path id="_Path_61" data-name="&lt;Path&gt;" d="M174.66,823.318l-1.97,1.143c-.276.158-.906-.2-.67-.355l2.009-1.143C174.226,822.845,174.857,823.2,174.66,823.318Z" transform="translate(-165.681 -822.126)" opacity="0.2"/>
              <g id="_Group_21" data-name="&lt;Group&gt;" transform="translate(25.704 5.831)">
                <path id="_Path_62" data-name="&lt;Path&gt;" d="M221.427,836.2c-.236-.118-.236-.315,0-.433a.834.834,0,0,1,.749,0,.233.233,0,0,1,0,.433A.834.834,0,0,1,221.427,836.2Z" transform="translate(-221.25 -835.675)" fill="#f0f0f0"/>
              </g>
              <g id="_Group_22" data-name="&lt;Group&gt;" transform="translate(8.028 16.036)">
                <path id="_Path_63" data-name="&lt;Path&gt;" d="M176.549,862.1c-.2-.118-.236-.315,0-.433a.834.834,0,0,1,.749,0,.233.233,0,0,1,0,.433A.834.834,0,0,1,176.549,862.1Z" transform="translate(-176.387 -861.575)" fill="#f0f0f0"/>
              </g>
            </g>
          </g>
        </g>
        <g id="Character" transform="translate(196.926)">
          <g id="Character_8_" data-name="Character 8 ">
            <g id="_Group_23" data-name="&lt;Group&gt;" transform="translate(0 7.099)">
              <path id="_Path_64" data-name="&lt;Path&gt;" d="M539.3,403.068l.079-.079L653.4,235.064h0l.039-.039a.455.455,0,0,0,.079-.118,2.745,2.745,0,0,1,.552-.552,4.482,4.482,0,0,1,.749-.473,6.287,6.287,0,0,1,3.231-.512,15.382,15.382,0,0,1,11.5,7.8,5.659,5.659,0,0,1,.552,4.1,3.346,3.346,0,0,1-.433.867L556.634,412.563l-1.064,1.615h0c-.788,1.182-2.4,1.812-4.61,1.655a15.382,15.382,0,0,1-11.5-7.8C538.47,406.062,538.51,404.289,539.3,403.068Z" transform="translate(-532.287 -230.949)" fill="#e6e6e6"/>
              <g id="_Group_24" data-name="&lt;Group&gt;" transform="translate(0 3.113)">
                <g id="_Group_25" data-name="&lt;Group&gt;" transform="translate(0 189.171)">
                  <path id="_Path_65" data-name="&lt;Path&gt;" d="M522.64,719.7l2.719-4.137a.782.782,0,0,1,.788-.276,2.557,2.557,0,0,1,1.891,1.261.886.886,0,0,1,.039.827l-2.719,4.137a1.6,1.6,0,0,1-.63.552,1.656,1.656,0,0,1-2.167-.788A1.712,1.712,0,0,1,522.64,719.7Z" transform="translate(-522.406 -715.281)" fill="#455a64"/>
                  <path id="_Path_66" data-name="&lt;Path&gt;" d="M522.525,726.815v-.039l.118-.236V726.5c.039,1.064,1.655,2.285,2.64,1.891a.114.114,0,0,1-.039.079l-.079.079a1.235,1.235,0,0,1-.433.315,1.622,1.622,0,0,1-2.167-.788A1.563,1.563,0,0,1,522.525,726.815Z" transform="translate(-522.409 -722.08)" fill="#263238"/>
                </g>
                <path id="_Path_67" data-name="&lt;Path&gt;" d="M529.551,682.372a8.707,8.707,0,0,0,6.58,4.452,3.247,3.247,0,0,0,2.246-.512L548.7,678.2a5.75,5.75,0,0,1-3.546.67,15.383,15.383,0,0,1-11.5-7.8,5.953,5.953,0,0,1-.67-3.664l-3.7,12.569-.079.236A3.2,3.2,0,0,0,529.551,682.372Z" transform="translate(-526.48 -497.095)" fill="#e0e0e0"/>
                <path id="_Path_68" data-name="&lt;Path&gt;" d="M535.311,684.7a11.029,11.029,0,0,0,8.156,5.516,3.435,3.435,0,0,0,3.27-1.182,3.381,3.381,0,0,0-.079-3.507,10.836,10.836,0,0,0-8.117-5.555,3.435,3.435,0,0,0-3.31,1.221A3.476,3.476,0,0,0,535.311,684.7Z" transform="translate(-529.916 -504.703)" opacity="0.1"/>
                <g id="_Group_26" data-name="&lt;Group&gt;" transform="translate(1.509 170.305)">
                  <g id="_Group_27" data-name="&lt;Group&gt;">
                    <path id="_Path_69" data-name="&lt;Path&gt;" d="M529.551,682.372a8.707,8.707,0,0,0,6.58,4.452,3.247,3.247,0,0,0,2.246-.512L548.7,678.2a5.75,5.75,0,0,1-3.546.67,15.383,15.383,0,0,1-11.5-7.8,5.953,5.953,0,0,1-.67-3.664l-3.7,12.569-.079.236A3.2,3.2,0,0,0,529.551,682.372Z" transform="translate(-527.989 -667.4)" fill="#e0e0e0"/>
                    <path id="_Path_70" data-name="&lt;Path&gt;" d="M526.3,693.534l3.388-11.466.079-.315c.433-1.182,1.694-1.891,3.585-1.773a10.9,10.9,0,0,1,8.116,5.555c.788,1.615.63,2.994-.2,3.861a.114.114,0,0,0-.079.039l-.236.2-9.535,7.447a1.725,1.725,0,0,1-1.261.315,4.977,4.977,0,0,1-3.7-2.522A1.86,1.86,0,0,1,526.3,693.534Z" transform="translate(-526.236 -675.016)" fill="#ba68c8"/>
                    <path id="_Path_71" data-name="&lt;Path&gt;" d="M526.3,693.534l3.388-11.466.079-.315c.433-1.182,1.694-1.891,3.585-1.773a10.9,10.9,0,0,1,8.116,5.555c.788,1.615.63,2.994-.2,3.861a.114.114,0,0,0-.079.039l-.236.2-9.535,7.447a1.725,1.725,0,0,1-1.261.315,4.977,4.977,0,0,1-3.7-2.522A1.86,1.86,0,0,1,526.3,693.534Z" transform="translate(-526.236 -675.016)" opacity="0.2"/>
                    <path id="_Path_72" data-name="&lt;Path&gt;" d="M535.311,684.7a11.029,11.029,0,0,0,8.156,5.516,3.435,3.435,0,0,0,3.27-1.182,3.381,3.381,0,0,0-.079-3.507,10.836,10.836,0,0,0-8.117-5.555,3.435,3.435,0,0,0-3.31,1.221A3.476,3.476,0,0,0,535.311,684.7Z" transform="translate(-531.425 -675.008)" fill="#ba68c8"/>
                    <path id="_Path_73" data-name="&lt;Path&gt;" d="M535.311,684.7a11.029,11.029,0,0,0,8.156,5.516,3.435,3.435,0,0,0,3.27-1.182,3.381,3.381,0,0,0-.079-3.507,10.836,10.836,0,0,0-8.117-5.555,3.435,3.435,0,0,0-3.31,1.221A3.476,3.476,0,0,0,535.311,684.7Z" transform="translate(-531.425 -675.008)" fill="#ba68c8"/>
                    <path id="_Path_74" data-name="&lt;Path&gt;" d="M535.233,681.221a3.021,3.021,0,0,1,2.6-1.221,16.223,16.223,0,0,0,9.141,6.265,3.063,3.063,0,0,1-.236,2.8,3.435,3.435,0,0,1-3.27,1.182,11.029,11.029,0,0,1-8.156-5.516A3.476,3.476,0,0,1,535.233,681.221Z" transform="translate(-531.425 -675.036)" opacity="0.1"/>
                  </g>
                  <g id="_Group_28" data-name="&lt;Group&gt;" transform="translate(0 12.884)">
                    <path id="_Path_75" data-name="&lt;Path&gt;" d="M526.458,707.074a4.977,4.977,0,0,0,3.7,2.522,1.725,1.725,0,0,0,1.261-.315l4.61-3.585a2.9,2.9,0,0,1-1.812.315,7.849,7.849,0,0,1-5.91-4.019,2.891,2.891,0,0,1-.355-1.891l-1.655,5.634A1.859,1.859,0,0,0,526.458,707.074Z" transform="translate(-526.236 -700.1)" fill="#ba68c8"/>
                  </g>
                </g>
                <g id="_Group_29" data-name="&lt;Group&gt;" transform="translate(97.829 21.278)">
                  <path id="_Path_76" data-name="&lt;Path&gt;" d="M787.6,289.768a1.6,1.6,0,0,1,1.615-.591,5.429,5.429,0,0,1,4.1,2.758,1.879,1.879,0,0,1,.039,1.773l-16.9,24.822a1.755,1.755,0,0,0-.118-1.576,5.475,5.475,0,0,0-4.1-2.8,1.781,1.781,0,0,0-1.537.512Z" transform="translate(-770.7 -289.162)" fill="#fafafa"/>
                  <path id="_Path_77" data-name="&lt;Path&gt;" d="M813.283,291.541a5.461,5.461,0,0,0,4.058,2.758,1.524,1.524,0,0,0,1.615-2.364,5.429,5.429,0,0,0-4.1-2.758,1.6,1.6,0,0,0-1.615.591,1.684,1.684,0,0,0,.039,1.773Z" transform="translate(-796.341 -289.162)" fill="#e0e0e0"/>
                </g>
                <path id="_Path_78" data-name="&lt;Path&gt;" d="M818.362,244.158l.039-.079a.455.455,0,0,0,.079-.118l4.846-7.131.158-.236.039-.039c.749-.985,2.167-1.5,4.058-1.379a13.877,13.877,0,0,1,10.323,7.053c.906,1.812.867,3.388.118,4.452l-4.925,7.25a.113.113,0,0,0-.039.079l-.039.039c-.749,1.024-2.167,1.615-4.137,1.458a13.677,13.677,0,0,1-10.323-7.053A4.32,4.32,0,0,1,818.362,244.158Z" transform="translate(-701.463 -235.157)" fill="#ba68c8"/>
                <path id="_Path_79" data-name="&lt;Path&gt;" d="M818.362,244.158l.039-.079a.455.455,0,0,0,.079-.118l4.846-7.131.158-.236.039-.039c.749-.985,2.167-1.5,4.058-1.379a13.877,13.877,0,0,1,10.323,7.053c.906,1.812.867,3.388.118,4.452l-4.925,7.25a.113.113,0,0,0-.039.079l-.039.039c-.749,1.024-2.167,1.615-4.137,1.458a13.677,13.677,0,0,1-10.323-7.053A4.32,4.32,0,0,1,818.362,244.158Z" transform="translate(-701.463 -235.157)" opacity="0.1"/>
              </g>
              <path id="_Path_80" data-name="&lt;Path&gt;" d="M543,484.678l7.053-10.323L632.356,353.08v-.039l.158-.236a1.867,1.867,0,0,1,1.576-.512,5.544,5.544,0,0,1,4.1,2.8,1.892,1.892,0,0,1,.118,1.576v.039l-.2.276L555.8,478.256l-7.053,10.362a1.68,1.68,0,0,1-1.615.591,5.348,5.348,0,0,1-3.27-1.655,4.324,4.324,0,0,0-.315-.355,3.492,3.492,0,0,1-.473-.749A1.792,1.792,0,0,1,543,484.678Z" transform="translate(-534.763 -303.025)" fill="#263238"/>
              <path id="_Path_81" data-name="&lt;Path&gt;" d="M770.083,354.657a5.361,5.361,0,0,0,4.058,2.758,1.6,1.6,0,0,0,1.615-.591,1.682,1.682,0,0,0,0-1.734,5.544,5.544,0,0,0-4.1-2.8,1.693,1.693,0,0,0-1.615.63A1.615,1.615,0,0,0,770.083,354.657Z" transform="translate(-672.333 -303.026)" fill="#263238"/>
              <path id="_Path_82" data-name="&lt;Path&gt;" d="M543,685.937l1.064-1.537a16.924,16.924,0,0,0,5.752,3.9l-1.064,1.576a1.681,1.681,0,0,1-1.615.591,5.347,5.347,0,0,1-3.27-1.655,4.08,4.08,0,0,1-.788-1.1A1.792,1.792,0,0,1,543,685.937Z" transform="translate(-534.763 -504.284)" fill="#263238"/>
              <path id="_Path_83" data-name="&lt;Path&gt;" d="M828.963,240.024a15.429,15.429,0,0,0,11.5,7.841c2.207.158,3.822-.512,4.61-1.694.828-1.182.906-2.916-.079-4.964a15.531,15.531,0,0,0-11.5-7.841c-2.246-.158-3.861.512-4.649,1.734C828.018,236.281,827.978,238.054,828.963,240.024Z" transform="translate(-707.73 -230.944)" fill="#e0e0e0"/>
              <path id="_Compound_Path_6" data-name="&lt;Compound Path&gt;" d="M830.363,235.548a15.383,15.383,0,0,0,11.5,7.8c2.206.158,3.822-.473,4.61-1.655l.039-.079,1.1-1.576a.114.114,0,0,1,.039-.079,2.59,2.59,0,0,0,.158-.276q.079-.158.158-.355.039-.118.079-.276a.035.035,0,0,0,.039-.039.744.744,0,0,1,.039-.236,4.333,4.333,0,0,0,.079-1.182,1.832,1.832,0,0,1-.039-.355.44.44,0,0,0-.039-.2l-.079-.315a6.924,6.924,0,0,0-.552-1.615A15.531,15.531,0,0,0,836,227.274a6.726,6.726,0,0,0-3.231.512h-.039a4.17,4.17,0,0,0-.355.236l-.354.236-.158.158-.118.118a.7.7,0,0,0-.2.2l-.039.079a1.572,1.572,0,0,0-.2.236l-.946,1.379a1.184,1.184,0,0,0-.118.158c-.827,1.221-.867,2.955.118,4.964Z" transform="translate(-708.579 -227.256)" fill="#ba68c8"/>
              <path id="_Path_84" data-name="&lt;Path&gt;" d="M833.185,233.983a15.328,15.328,0,0,0,11.5,7.841c2.206.158,3.822-.512,4.61-1.694.827-1.182.906-2.916-.079-4.964a15.383,15.383,0,0,0-11.5-7.8c-2.246-.158-3.861.473-4.649,1.694C832.24,230.279,832.24,232.013,833.185,233.983Z" transform="translate(-710.298 -227.307)" fill="#fff" opacity="0.3"/>
            </g>
            <g id="Character_9_" data-name="Character 9 " transform="translate(33.743)">
              <g id="Bottom_30_" data-name="Bottom 30 " transform="translate(15.048 113.419)">
                <g id="_Group_30" data-name="&lt;Group&gt;" transform="translate(0 129.549)">
                  <g id="_Group_31" data-name="&lt;Group&gt;" transform="translate(0 13.809)">
                    <path id="_Path_85" data-name="&lt;Path&gt;" d="M646.736,896.6c-.63-.079-.552,1.931-.355,2.758.236.867,2.837,3.782,7.526,4.807s13.869-.2,16.666-.315,7.565,1.34,10.362,1.773c2.758.433,7.762-.552,9.417-2.167a3.057,3.057,0,0,0,.67-2.364c-.039-1.931-.2-2.325-.433-2.285Z" transform="translate(-646.24 -882.55)" fill="#37474f"/>
                    <g id="_Group_32" data-name="&lt;Group&gt;" transform="translate(0.489)">
                      <g id="_Group_33" data-name="&lt;Group&gt;">
                        <path id="_Path_86" data-name="&lt;Path&gt;" d="M690.592,870.464q.118.552.236,1.143a27.087,27.087,0,0,1,.433,6.9,5.3,5.3,0,0,1-3.388,2.6c-3.31,1.024-5.831.827-9.456.039a27.159,27.159,0,0,0-7.171-.827c-2.876.158-9.5,1.024-12.372.709a22.939,22.939,0,0,1-7.092-1.615,9.463,9.463,0,0,1-4.295-4.058c-.118-3.743,1.1-5.477,3.073-6.659,2.088-1.221,5.358-1.537,7.762-1.812,3.27-.433,6.383-.67,8.786-.827a11.286,11.286,0,0,0,4.689-1.024,3.157,3.157,0,0,0,1.537-1.5c.394-.867.394-2.167,1.182-2.246,0,0,12.648-.433,13.79-.315,1.34.158,1.5,4.925,1.655,5.831a20.559,20.559,0,0,0,.315,2.246Z" transform="translate(-647.48 -860.948)" fill="#455a64"/>
                      </g>
                    </g>
                    <path id="_Path_87" data-name="&lt;Path&gt;" d="M682.689,873.1a1.278,1.278,0,0,0-.591-.236c-1.1-.2-1.931.946-2.4,1.812a6.173,6.173,0,0,0-.591,1.694,4.347,4.347,0,0,0-.079,2.246c.079.2.2.394.394.355.158-.039.2-.276.2-.433a9.712,9.712,0,0,1,.867-2.994,3.448,3.448,0,0,1,.67-1.1,5.159,5.159,0,0,1,1.221-.906,5.878,5.878,0,0,1,.749-.039,1.061,1.061,0,0,0-.276-.315l-.158-.079Z" transform="translate(-666.038 -868.156)" fill="#fafafa"/>
                    <path id="_Path_88" data-name="&lt;Path&gt;" d="M695.663,872.669a2.067,2.067,0,0,0-1.5.394,3.437,3.437,0,0,0-.985,1.5,4.871,4.871,0,0,0,0,3.861c.2.355.512.2.63-.118a6.117,6.117,0,0,0,.118-1.221,9.364,9.364,0,0,1,.512-2.364,5.037,5.037,0,0,1,.552-.906,2.4,2.4,0,0,1,.63-.63.584.584,0,0,1,.276-.158l.355-.039c0-.158-.236-.236-.355-.276a.743.743,0,0,0-.236-.039Z" transform="translate(-674.442 -868.039)" fill="#fafafa"/>
                    <path id="_Path_89" data-name="&lt;Path&gt;" d="M706.852,869.394a1.919,1.919,0,0,0-.946.63,4.653,4.653,0,0,0-.63,1.143,11.816,11.816,0,0,0-.276,2.4,3.3,3.3,0,0,0,.394,1.734c.118.2.355.394.552.276.236-.079.2-.473.236-.67.039-.433,0-.827,0-1.221a7.183,7.183,0,0,1,1.024-3.7,2.293,2.293,0,0,1,.394-.63.226.226,0,0,0-.276-.079A3.12,3.12,0,0,0,706.852,869.394Z" transform="translate(-681.848 -865.986)" fill="#fafafa"/>
                  </g>
                  <path id="_Path_90" data-name="&lt;Path&gt;" d="M730.388,827.712s-1.1,9.968-1.5,12.805c-.2,1.576-1.812,3.034-6.54,3.073-3.31.039-7.171-.906-7.644-2.64L713.8,825.9Z" transform="translate(-687.181 -825.9)" fill="#ffbda7"/>
                </g>
                <g id="_Group_34" data-name="&lt;Group&gt;" transform="translate(76.145 102.283)">
                  <path id="_Path_91" data-name="&lt;Path&gt;" d="M861.367,774.864c-1.655-2.719-4.807-10.48-6.974-18.164L839.5,763.989s10.047,17.533,11.19,19.148C852.5,785.778,861.367,774.864,861.367,774.864Z" transform="translate(-839.5 -756.7)" fill="#ffbda7"/>
                  <g id="_Group_35" data-name="&lt;Group&gt;" transform="translate(1.329 15.718)">
                    <path id="_Path_92" data-name="&lt;Path&gt;" d="M868.287,804.239a2.076,2.076,0,0,0-.118-.433,5.925,5.925,0,0,0-2.6-3.192,9.188,9.188,0,0,1-2.285-2.482c-.355-.473-.828-1.3-1.419-1.5a6.378,6.378,0,0,0-1.931.118,12.09,12.09,0,0,0-5.2,2.522,13.549,13.549,0,0,0-2.679,2.916,4.3,4.3,0,0,0-.985,2.679c0,.591.236,1.143,1.3,3.113a14.059,14.059,0,0,1,1.5,4.61,41.709,41.709,0,0,1,0,4.964c.039,2.955-.354,2.916-.354,2.916s-4.807-1.064-8.2.867a4.047,4.047,0,0,0-2.128,4.689,24.634,24.634,0,0,0,8.117,3.507.351.351,0,0,1,.039.158s2.049,2.285,4.728,1.261c.2-.118.355-.158.552-.276,2.955-1.576,10.284-5.752,10.165-6.225a6.293,6.293,0,0,1,.039-1.5q.039-1.773.118-3.507a23.551,23.551,0,0,1,.2-3.349,16.09,16.09,0,0,0,.433-2.758q.355-3.546.67-7.053a11.864,11.864,0,0,0,.039-2.049Z" transform="translate(-842.982 -796.592)" fill="#455a64"/>
                    <path id="_Path_93" data-name="&lt;Path&gt;" d="M891.208,817.5c1.34.552.906,4.413,0,8.077-.946,3.664-1.418,4.964-1.064,8.038.394,3.113.591,4.492-.63,5.595s-10.914,5.516-10.914,5.516a38.227,38.227,0,0,0,2.364-11.5c.394-6.816.946-11.19,4.058-14.224A5.508,5.508,0,0,1,891.208,817.5Z" transform="translate(-864.524 -809.027)"/>
                    <path id="_Path_94" data-name="&lt;Path&gt;" d="M843.081,836.612s5.437,3.152,9.732,3.743c4.255.63,4.492-1.1,5.043-6.344.591-5.279.906-12.569,2.955-15.721,2.088-3.191,5.477-4.531,6.777-4.176.276-.158,1.576.906,1.97,1.537a6.989,6.989,0,0,0-5.634,2.206c-2.719,2.64-3.349,8.392-3.585,13.593s-.552,11.268-4.57,11.82c-4.019.512-9.377-1.182-11.978-3.546A2.776,2.776,0,0,1,843.081,836.612Z" transform="translate(-842.874 -807.177)" fill="#37474f"/>
                    <g id="_Group_36" data-name="&lt;Group&gt;" transform="translate(10.25 14.187)">
                      <path id="_Path_95" data-name="&lt;Path&gt;" d="M869.524,852.3a1.509,1.509,0,0,0-.63.985,3.116,3.116,0,0,0,1.418,2.758c.512.315.985.2.158-.906A5.714,5.714,0,0,1,869.524,852.3Z" transform="translate(-868.889 -844.538)" fill="#fafafa"/>
                      <path id="_Path_96" data-name="&lt;Path&gt;" d="M869.892,843a1.306,1.306,0,0,0-.394.788,4.643,4.643,0,0,0,1.694,2.916c.946.473.473-.63.039-1.143A18.466,18.466,0,0,1,869.892,843Z" transform="translate(-869.257 -838.902)" fill="#fafafa"/>
                      <path id="_Path_97" data-name="&lt;Path&gt;" d="M869.3,832.6a1.808,1.808,0,0,0-.079,1.143,4.217,4.217,0,0,0,2.325,1.5c.591-.039.827-.394,0-.788A6.6,6.6,0,0,1,869.3,832.6Z" transform="translate(-869.055 -832.6)" fill="#fafafa"/>
                    </g>
                  </g>
                </g>
                <g id="_Group_37" data-name="&lt;Group&gt;" transform="translate(23.813)">
                  <path id="_Path_98" data-name="&lt;Path&gt;" d="M764.408,616.523s-24.192-41.292-25.059-44.759-4.886-20.922-4.886-20.922l-4.373,28.368a61.825,61.825,0,0,1,1.537,11.19c.039,4.689-.788,10.047-2.4,19.385-2.561,14.7-3.743,25.1-3.743,25.1a12,12,0,0,1-8.313,1.891,22.164,22.164,0,0,1-7.447-2.64s-1.261-22.695-1.694-31.757c-.473-9.062-.709-22.931-1.024-28.92-.552-10.756-.2-9.18-.315-26.832-.118-18.282.985-46.3.985-46.3l46.847-3.231s5.595,7.565,6.068,27.265c.355,15.405,1.261,41.37,1.261,41.37,4.689,7.722,5.437,10.087,7.959,18.991,2.009,7.25,4.846,16.036,6.343,22.537-4.176-.118-10.2,5.752-11.741,9.259Z" transform="translate(-706.678 -497.1)" fill="#ba68c8"/>
                  <path id="_Path_99" data-name="&lt;Path&gt;" d="M764.408,616.523s-24.192-41.292-25.059-44.759-4.886-20.922-4.886-20.922l-4.373,28.368a61.825,61.825,0,0,1,1.537,11.19c.039,4.689-.788,10.047-2.4,19.385-2.561,14.7-3.743,25.1-3.743,25.1a12,12,0,0,1-8.313,1.891,22.164,22.164,0,0,1-7.447-2.64s-1.261-22.695-1.694-31.757c-.473-9.062-.709-22.931-1.024-28.92-.552-10.756-.2-9.18-.315-26.832-.118-18.282.985-46.3.985-46.3l46.847-3.231s5.595,7.565,6.068,27.265c.355,15.405,1.261,41.37,1.261,41.37,4.689,7.722,5.437,10.087,7.959,18.991,2.009,7.25,4.846,16.036,6.343,22.537-4.176-.118-10.2,5.752-11.741,9.259Z" transform="translate(-706.678 -497.1)" opacity="0.3"/>
                  <path id="_Path_100" data-name="&lt;Path&gt;" d="M777.1,591.38l2.837-20.331s6.737-.512,14.854-7.25c0,0-1.064,6.028-12.569,10.165l-2.758,19.661,2.128,16.666S777.139,591.774,777.1,591.38Z" transform="translate(-749.353 -537.52)" opacity="0.2"/>
                  <path id="_Path_101" data-name="&lt;Path&gt;" d="M713.1,832c3.113,1.655,13.554,2.561,17.06.158l-.985,7.683s-2.128,1.5-7.407,1.3c-5.871-.236-8.156-1.812-8.156-1.812Z" transform="translate(-710.569 -700.048)"/>
                  <path id="_Path_102" data-name="&lt;Path&gt;" d="M844.7,770.653l3.349,5.792s2.955-4.728,6.856-6.856c3.585-1.97,5.516-1.458,5.516-1.458L858.254,761a18.149,18.149,0,0,0-7.8,2.561C845.252,767.146,844.7,770.653,844.7,770.653Z" transform="translate(-790.319 -657.022)"/>
                </g>
              </g>
              <g id="Top_18_" data-name="Top 18 ">
                <g id="_Group_38" data-name="&lt;Group&gt;" transform="translate(42.494)">
                  <path id="_Path_103" data-name="&lt;Path&gt;" d="M752.2,315.028l2.994,13.12,16.076-2.364L769.339,311.6Z" transform="translate(-737.898 -271.269)" fill="#ffa8a7"/>
                  <g id="_Group_39" data-name="&lt;Group&gt;" transform="translate(0 7.531)">
                    <g id="_Group_40" data-name="&lt;Group&gt;" transform="translate(0 15.069)">
                      <path id="_Path_104" data-name="&lt;Path&gt;" d="M719.682,266.6a58.566,58.566,0,0,0-3.782,7.919l3.113,1.537Z" transform="translate(-715.9 -266.6)" fill="#f28f8f"/>
                    </g>
                    <g id="_Group_41" data-name="&lt;Group&gt;" transform="translate(2.953)">
                      <path id="_Path_105" data-name="&lt;Path&gt;" d="M731.75,228.372c-5.634.315-7.447,5.989-8.156,18.242-.749,11.978.749,15.406,2.285,17.06,3.467,1.97,7.053,2.364,11.978,1.143,3.743-.946,13.239-3.664,17.336-9.574,4.767-6.974,6.225-16.509,1.379-20.567C749.717,228.963,734.744,228.214,731.75,228.372Z" transform="translate(-723.395 -228.353)" fill="#ffa8a7"/>
                    </g>
                    <path id="_Path_106" data-name="&lt;Path&gt;" d="M730.337,297.3c-.079.039-.158.039-.2.079s-.079.118-.118.158a1.56,1.56,0,0,1-.2.236,4.879,4.879,0,0,1-.591.433,4.148,4.148,0,0,1-1.221.473q-.039,0-.039.079c0,.039-.039.079,0,.118a.309.309,0,0,0,.315.039,1.091,1.091,0,0,0,.355-.039,2.1,2.1,0,0,0,.709-.276,3.8,3.8,0,0,0,.63-.433,1.374,1.374,0,0,0,.276-.276.458.458,0,0,1,.079-.118.474.474,0,0,0,.079-.315c0-.039-.039-.158-.079-.158Z" transform="translate(-723.206 -270.135)" fill="#b16668"/>
                    <path id="_Path_107" data-name="&lt;Path&gt;" d="M729.7,317.939c.827.906,6.028,2.4,9.141,2.128l-.473-2.167A33.063,33.063,0,0,1,729.7,317.939Z" transform="translate(-724.263 -282.618)" fill="#f28f8f"/>
                  </g>
                  <g id="_Group_42" data-name="&lt;Group&gt;" transform="translate(0.991)">
                    <g id="_Group_43" data-name="&lt;Group&gt;">
                      <g id="_Group_44" data-name="&lt;Group&gt;">
                        <path id="_Path_108" data-name="&lt;Path&gt;" d="M728.219,225.259a4.637,4.637,0,0,0,.67,2.758,5.5,5.5,0,0,0,3.034,2.325,11.362,11.362,0,0,0-1.34,4.925,2.652,2.652,0,0,0,.315,1.576,1,1,0,0,0,1.812.039,13.46,13.46,0,0,1,1.576-2.6,4.913,4.913,0,0,1,3.113-1.615c4.57-.394,4.413,5.674,2.561,8.077-3.073,3.94-5.437,1.34-5.437,1.34s-1.694,6.146,2.64,8.865c0,0,6.935,1.773,11.781-.63,3.152-4.728,6.9-7.762,8.9-11.741,4.728-9.377,2.994-16.982-1.3-18.715-.473-3.861-3.94-6.3-7.289-7.6-4.61-1.773-9.141-.355-13.83-.473a15.775,15.775,0,0,1-6.974-1.773c-.946-.512-2.128-1.1-2.995-.552a2.56,2.56,0,0,0-.788,1.024,5.029,5.029,0,0,0,.276,4.373c-1.221-.946-3.428-.591-4.689.394-1.852,1.418-2.167,3.113-1.576,5.516C719.039,222.225,721.876,226.993,728.219,225.259Z" transform="translate(-718.414 -209.238)" fill="#263238"/>
                      </g>
                    </g>
                    <g id="_Group_45" data-name="&lt;Group&gt;" transform="translate(37.544 7.865)">
                      <g id="_Group_46" data-name="&lt;Group&gt;">
                        <path id="_Path_109" data-name="&lt;Path&gt;" d="M814.016,232.9l4.374-2.443a2.5,2.5,0,0,0-4.374,2.443Z" transform="translate(-813.702 -229.199)" fill="#263238"/>
                      </g>
                    </g>
                  </g>
                </g>
                <path id="_Path_110" data-name="&lt;Path&gt;" d="M809.1,332.442c6.816-.355,9.811,1.852,12.135,4.61,2.325,2.719,13.514,21.434,16.43,29.984,1.379,4.058,2.206,4.886-1.261,9.023s-16.548,17.651-16.548,17.651l-6.54-9.85,8.313-12.214-10.993-19.7Z" transform="translate(-729.885 -283.876)" fill="#455a64"/>
                <g id="_Group_47" data-name="&lt;Group&gt;" transform="translate(38.436 48.587)">
                  <path id="_Path_111" data-name="&lt;Path&gt;" d="M751.265,334.108c4.649,2.285,7.762,10.678,7.841,17.77,0,4.492-.906,16.115-1.694,26.4-.236,3.231.709,12.766,1.064,17.612.394,4.846.946,13.239.946,13.239s-4.216,6.186-20.882,7.683C718.405,418.583,705.6,412,705.6,412s.079-19.424.552-33.175c.552-14.933-.512-29.393,2.443-34.712,1.3-1.773,1.3-3.546,4.649-4.767,2.325-.867,11.938-3.428,16.075-4.334C743.031,332.1,746.38,331.744,751.265,334.108Z" transform="translate(-705.6 -332.553)" fill="#37474f"/>
                </g>
                <path id="_Path_112" data-name="&lt;Path&gt;" d="M742.491,330.871c2.088.512,3.073,1.812,6.225,2.522a24.469,24.469,0,0,0,14.381-1.024,6.888,6.888,0,0,0,3.743-3.152,50.488,50.488,0,0,0-2.4-5.91,1.928,1.928,0,0,0-1.576-.906l.2,1.261s.512.985-3.979,2.128c-4.57,1.143-10.756.867-12.884.2l-.276-1.143c-1.1.276-1.773,1.221-3.034,2.916a27.761,27.761,0,0,0-2.285,3.625Z" transform="translate(-688.374 -277.813)" fill="#455a64"/>
                <g id="_Group_48" data-name="&lt;Group&gt;" transform="translate(0 55.382)">
                  <path id="_Path_113" data-name="&lt;Path&gt;" d="M621.7,516.9c-3.585,2.167-4.964,4.1-6.777,4.925a17.621,17.621,0,0,1-3.31,1.143l-2.522,3.782s-1.34-6.147-.985-8.786c.315-2.64,1.694-1.537,1.97-3.191.236-1.655-.236-2.64,1.1-3.664,1.379-1.024.591-2.325,2.8-3.507,2.246-1.182,12.135-2.8,12.135-2.8Z" transform="translate(-608.048 -443.729)" fill="#ffa8a7"/>
                  <path id="_Path_114" data-name="&lt;Path&gt;" d="M667.377,349.8c-8.471,2.561-9.062,5.949-11.584,17.415-2.561,11.465-5.2,28.841-5.2,28.841s-11.663,9.653-18.715,15.012c-2.285,1.734-3.31,15.406,1.064,14.342,0,0,20.606-10.717,26.635-14.027,7.289-3.979,8.038-5.949,10.2-13.672,2.167-7.762,5.949-29,5.949-29s-.118-15.918-8.353-18.912Z" transform="translate(-621.298 -349.8)" fill="#455a64"/>
                </g>
              </g>
            </g>
          </g>
        </g>
      </g>
      <text id="My_Will" data-name="My Will" transform="translate(96.649 280.348) rotate(-31)" fill="#263238" font-size="19" font-family="Helvetica"><tspan x="0" y="0">My Will</tspan></text>
    </g>
  </g>
</svg>
