<svg width="130" height="27" viewBox="0 0 130 27" fill="none" xmlns="http://www.w3.org/2000/svg">
<path d="M96.0107 4.20352C95.4041 4.20352 94.9058 3.99668 94.4726 3.60368C94.0393 3.19 93.8444 2.71426 93.8444 2.13511C93.8444 1.55595 94.061 1.05953 94.4942 0.666528C94.9275 0.273529 95.4258 0.0666887 96.0323 0.0666887C96.6172 0.0666887 97.1155 0.273529 97.5271 0.666528C97.9603 1.08021 98.177 1.55595 98.177 2.11442C98.177 2.67289 97.9603 3.16931 97.5487 3.583C97.1371 4.01736 96.6172 4.20352 96.0107 4.20352ZM42.3946 18.7859L36.7622 0.27353H29.1152V1.47321H29.8517C30.4366 1.47321 30.8915 1.51458 31.1948 1.618C31.7147 1.78347 32.0613 2.15579 32.213 2.75563C32.2996 3.02453 32.3213 3.60368 32.3213 4.47241V19.0754C32.3213 20.4406 32.278 21.4128 32.1913 21.9712C32.0613 22.7159 31.7797 23.2743 31.3464 23.6466C30.8915 24.0396 30.3499 24.2258 29.7434 24.2258H29.1152V25.4462H37.2821V24.2258H36.7622C35.3324 24.2258 34.4226 23.5639 34.0327 22.2608C33.9027 21.7851 33.8377 20.7095 33.8377 19.0754V2.54879L40.7915 25.4462H42.0047L48.9802 2.54879V20.5233C48.9802 21.3714 48.9368 22.0746 48.8719 22.6124C48.8285 23.0675 48.6552 23.4191 48.3953 23.6673C47.9837 24.0396 47.2905 24.2465 46.2939 24.2465H45.969V25.4668H55.8907V24.2465H55.3491C53.9843 24.2465 53.1611 23.8535 52.8795 23.0882C52.7279 22.6745 52.6629 21.8264 52.6629 20.544V5.21705C52.6629 4.36899 52.7062 3.66574 52.7712 3.10726C52.8145 2.6729 52.9878 2.32127 53.2478 2.07306C53.6377 1.68006 54.3526 1.4939 55.3274 1.4939H55.869V0.27353H48.157L42.3946 18.7859ZM64.3176 7.53368C66.7872 7.53368 68.7802 8.46446 70.3183 10.326C71.6614 11.9394 72.3329 14.0906 72.3329 16.7174C72.3329 19.4064 71.6614 21.5575 70.3183 23.1916C68.8019 25.0532 66.7655 25.984 64.2093 25.984C61.8047 25.984 59.8334 25.0532 58.3169 23.1916C56.9738 21.5575 56.3023 19.4064 56.3023 16.7588C56.3023 14.0906 56.9738 11.9394 58.3169 10.326C59.8334 8.46446 61.8264 7.53368 64.3176 7.53368ZM64.3176 24.7636C67.0905 24.7636 68.4769 22.0746 68.4769 16.6761C68.4769 14.194 68.1736 12.3117 67.5671 11.0086C67.1988 10.2019 66.6356 9.60209 65.9207 9.16772C65.4224 8.87815 64.9025 8.73336 64.3176 8.73336C63.4078 8.73336 62.6062 9.08499 61.913 9.78825C60.7432 10.9466 60.1583 13.2011 60.1583 16.552C60.1583 19.3237 60.5266 21.4334 61.2415 22.8606C61.8697 24.1431 62.8879 24.7636 64.3176 24.7636ZM83.6194 7.69915C85.5257 7.69915 87.0855 8.34035 88.3203 9.64346C89.9017 11.3189 90.7032 13.5941 90.7032 16.4486C90.7032 19.1789 89.9883 21.4334 88.5802 23.2743C87.2588 24.9911 85.5041 25.8392 83.3378 25.8392C82.168 25.8392 81.0848 25.5289 80.11 24.9291C79.8934 24.805 79.4601 24.474 78.7885 23.9569C78.5286 23.7501 78.3119 23.6673 78.117 23.6673C77.8787 23.6673 77.6187 23.8535 77.3371 24.2465C77.0772 24.5981 76.7955 24.9911 76.5139 25.4462H75.1925C75.3224 25.0945 75.3874 24.867 75.4091 24.805C75.5174 24.3085 75.5824 23.2743 75.5824 21.723V4.43105C75.5824 3.06589 75.4308 2.21784 75.1058 1.88689C74.8459 1.57663 74.3259 1.43185 73.5677 1.43185H73.2861V0.27353L78.9185 0.0253178V10.5329C79.2435 9.80893 79.6767 9.25046 80.2183 8.83678C81.1931 8.07146 82.3196 7.69915 83.6194 7.69915ZM82.9045 24.5154C85.5257 24.5154 86.8255 21.8471 86.8255 16.5313C86.8255 14.0906 86.5006 12.2083 85.8507 10.8845C85.2225 9.66414 84.3126 9.04362 83.0778 9.04362C82.2113 9.04362 81.4098 9.35388 80.6516 9.99509C79.2651 11.2155 78.5719 13.408 78.5719 16.5933C78.5719 19.0548 78.8968 20.9577 79.5467 22.3022C79.8933 23.0054 80.3916 23.5846 81.0632 23.9983C81.6264 24.3292 82.233 24.5154 82.9045 24.5154ZM123.501 22.9641C123.999 22.4056 124.498 21.6196 125.018 20.6268L126.187 21.2266C124.519 24.412 122.288 26.0046 119.472 26.0046C117.392 26.0046 115.702 25.3221 114.359 23.9776C112.713 22.3022 111.89 19.8614 111.89 16.6761C111.89 13.7596 112.713 11.4016 114.359 9.64346C115.659 8.25762 117.219 7.55436 119.06 7.55436C121.768 7.55436 123.826 8.85746 125.191 11.4637C125.927 12.8495 126.339 14.587 126.404 16.6554H115.594C115.616 19.0961 115.876 20.8956 116.396 22.054C117.11 23.7087 118.345 24.5361 120.1 24.5361C121.443 24.5154 122.57 23.9983 123.501 22.9641ZM116.006 12.1049C115.746 12.9736 115.616 14.0492 115.594 15.2902H122.721C122.721 13.7596 122.548 12.4772 122.201 11.4844C121.573 9.7262 120.577 8.83678 119.233 8.83678C117.717 8.85746 116.634 9.95372 116.006 12.1049ZM108.489 23.8328C108.164 23.4812 108.012 22.6124 108.012 21.2266V0.00463867L102.206 0.252845V1.41116H102.64C103.376 1.41116 103.896 1.55595 104.156 1.86621C104.481 2.21784 104.633 3.06589 104.633 4.43105V21.2059C104.633 22.5918 104.481 23.4398 104.156 23.8121C103.874 24.1224 103.376 24.2672 102.64 24.2672H102.011V25.4255H110.655V24.2672H110.027C109.29 24.2879 108.77 24.1224 108.489 23.8328ZM98.4586 23.8328C98.1336 23.4812 97.982 22.6124 97.982 21.2266V7.80257L92.1763 8.05078V9.22977H92.6312C93.3678 9.22977 93.8877 9.37457 94.1693 9.66414C94.4942 10.0158 94.6459 10.8638 94.6459 12.229V21.2059C94.6459 22.5918 94.4942 23.4398 94.1693 23.8121C93.8877 24.1224 93.3894 24.2672 92.6312 24.2672H92.003V25.4255H100.647V24.2672H100.018C99.2385 24.2879 98.7402 24.1224 98.4586 23.8328ZM16.2906 11.8567V16.9657H21.6414V11.8567H18.8685H16.2906ZM0.28162 0.27353L0.0216627 9.16772L1.42976 9.39525C1.68972 6.76836 2.4046 4.82405 3.59607 3.56231C4.83086 2.23853 6.54224 1.53526 8.73021 1.4939V20.089C8.73021 21.723 8.49192 22.7572 7.99367 23.2536C7.58207 23.6673 6.86719 23.9155 5.84903 24.019C5.54574 24.0396 5.04749 24.0603 4.33261 24.0603V25.4875H17.3521V24.0603C16.6372 24.0603 16.1173 24.0396 15.8357 24.019C14.8392 23.9155 14.1243 23.6673 13.6911 23.2536C13.1928 22.7572 12.9545 21.723 12.9545 20.089V1.4939C15.1425 1.55595 16.8539 2.23853 18.1103 3.56231C19.2801 4.82405 20.0167 6.76836 20.2766 9.39525L21.6847 9.16772L21.4248 0.27353H0.28162ZM5.35078 11.8567H2.70788H0V16.9657H5.35078V11.8567ZM127.292 9.56072V7.80257H127.877V7.53368H126.404V7.80257H126.989V9.56072H127.292ZM128.419 9.56072V7.98872L128.917 9.56072H129.242L129.718 7.96804V9.56072H130V7.53368H129.588L129.068 9.16772L128.549 7.53368H128.137V9.56072H128.419Z" fill="white"/>
</svg>
