<svg width="131" height="57" viewBox="0 0 131 57" fill="none" xmlns="http://www.w3.org/2000/svg">
<path fill-rule="evenodd" clip-rule="evenodd" d="M121.409 26.2189H116.322V4.95766H121.141V7.32002C121.766 5.90261 123.283 4.57969 125.158 4.48519C128.46 4.29621 130.691 6.37508 130.691 10.8163V26.2189H125.426V10.1548C125.426 8.26496 125.426 6.65856 124.265 6.37508C123.819 6.18609 123.105 6.37508 122.48 6.84755C121.766 7.6035 121.409 8.64294 121.409 10.1548C121.409 10.5328 121.409 26.2189 121.409 26.2189Z" fill="white"/>
<path fill-rule="evenodd" clip-rule="evenodd" d="M34.556 6.34764C33.3957 5.21372 31.8784 4.45776 30.0934 4.45776C28.3083 4.45776 26.9695 5.21372 25.6307 6.34764C23.4886 8.23753 22.1498 11.7338 22.1498 15.6081C22.1498 19.5768 23.4886 22.8841 25.6307 24.8685C26.9695 26.0024 28.3083 26.7584 30.0934 26.7584C31.8784 26.7584 33.3957 26.0024 34.556 24.8685C36.7873 22.9786 38.0369 19.5768 38.0369 15.6081C38.0369 11.7338 36.7873 8.23753 34.556 6.34764ZM32.5924 15.6081C32.5924 19.5768 32.5924 22.7896 31.9677 24.396C31.5214 25.152 31.0751 25.6244 30.0041 25.6244C29.1116 25.6244 28.4868 25.152 28.219 24.396C27.505 22.7896 27.505 19.6713 27.505 15.6081C27.505 11.8283 27.505 8.42651 28.219 6.82012C28.4868 6.06416 29.1116 5.59169 30.0041 5.59169C31.0751 5.59169 31.5214 6.06416 31.9677 6.82012C32.771 8.42651 32.5924 11.7338 32.5924 15.6081Z" fill="white"/>
<path fill-rule="evenodd" clip-rule="evenodd" d="M86.9488 34.3569V40.1211H85.967C85.3423 37.6642 84.4497 35.5854 82.0399 35.4909C80.5226 35.3019 79.1838 36.2468 79.0053 37.7587C78.8268 39.1762 79.2731 40.4991 82.0399 42.011C85.5208 44.0899 88.1984 45.0348 88.1984 49.287C88.1984 53.9173 84.4497 56.0906 81.3259 56.0906C79.9871 56.0906 75.3459 56.0906 75.3459 56.0906V48.1531H76.417C77.131 52.3109 78.3805 54.8622 81.2366 54.9567C83.0217 54.9567 84.3605 53.8228 84.3605 51.7439C84.3605 49.665 83.1109 48.5311 80.2548 46.7357C77.131 44.6568 75.1674 43.4284 75.1674 40.4991C75.1674 36.7193 77.7558 34.2625 81.7721 34.2625C83.1109 34.3569 86.9488 34.3569 86.9488 34.3569Z" fill="white"/>
<path fill-rule="evenodd" clip-rule="evenodd" d="M93.5705 26.2227V10.8202C93.5705 6.37897 91.3392 4.3001 88.0368 4.48909C85.8055 4.67808 84.4667 6.28447 83.8419 7.51289C83.1279 5.24504 81.4321 4.3001 79.0222 4.48909C77.0587 4.67808 75.5414 5.9065 75.0058 7.3239V4.96156H70.3647V26.2227H75.4521C75.4521 26.2227 75.4521 10.6312 75.4521 10.1587C75.4521 8.55232 75.6306 7.60739 76.5231 6.85144C77.1479 6.37897 77.6834 6.18998 78.219 6.37897C79.3792 6.66245 79.3792 8.26884 79.3792 10.1587V26.2227H84.4667V10.0642C84.4667 8.64682 84.7344 7.70188 85.5377 6.85144C86.1625 6.37897 86.698 6.18998 87.2335 6.37897C88.3938 6.66245 88.5723 8.26884 88.5723 10.1587V26.2227H93.5705Z" fill="white"/>
<path fill-rule="evenodd" clip-rule="evenodd" d="M41.5268 0.481201H46.7927V26.2781H41.5268V0.481201Z" fill="white"/>
<path fill-rule="evenodd" clip-rule="evenodd" d="M65.3479 26.278V0.481201H60.082V6.5288C59.6357 5.39487 58.5647 4.63892 57.0474 4.63892C53.388 4.63892 50.3534 8.79665 50.1749 15.1277C49.9964 19.3799 51.3352 26.5615 56.6011 26.5615C58.7432 26.5615 59.9035 25.333 60.3498 24.1991V26.278H65.3479ZM59.1895 6.71779C60.2605 8.32418 60.2605 12.1039 60.2605 15.1277C60.2605 18.3405 60.439 22.4037 59.1895 24.1991C58.7432 24.8606 58.2969 25.1441 57.4937 25.1441C56.4226 25.1441 55.7978 23.9156 55.5301 21.8368C55.3516 19.9469 55.3516 17.5846 55.3516 15.0332C55.3516 10.781 55.6193 5.96184 57.5829 5.96184C58.4754 5.86734 58.7432 6.24532 59.1895 6.71779Z" fill="white"/>
<path fill-rule="evenodd" clip-rule="evenodd" d="M109.236 5.59243C110.574 6.34838 111.467 7.67129 111.467 10.5061V26.2866H106.558V23.9242C105.933 25.7196 104.327 26.759 102.095 26.759C100.31 26.759 97.0971 25.8141 97.0971 20.9004C97.0971 16.2702 99.9532 15.3253 103.077 13.9079C105.933 12.585 106.201 12.396 106.201 11.1676C106.201 10.0336 106.201 9.0887 106.201 7.67129C106.201 6.25389 105.487 5.59243 103.97 5.59243C103.345 5.78142 102.274 6.0649 102.274 6.82085C102.095 7.76579 103.166 7.76579 103.345 9.18319C103.523 11.451 101.828 12.207 100.31 12.018C99.2392 12.018 98.0789 11.3566 97.9004 9.65566C97.7219 6.82085 100.756 4.36401 104.951 4.36401C107.004 4.45851 108.164 4.93098 109.236 5.59243ZM106.201 13.5299L104.594 14.6638C102.899 15.7978 102.631 17.2152 102.452 18.8216C102.274 20.05 102.274 21.1839 102.452 23.0738C102.631 24.8692 103.613 25.1526 104.594 24.8692C105.665 24.3967 106.29 22.3178 106.29 20.1445C106.201 20.05 106.201 14.2859 106.201 13.5299Z" fill="white"/>
<path fill-rule="evenodd" clip-rule="evenodd" d="M34.8898 35.3011C36.2286 36.2461 36.9426 37.38 36.9426 40.2149V56.0899H32.2122V53.7276C31.5875 55.334 29.9809 56.4679 27.7496 56.4679C25.786 56.4679 22.7514 55.7119 22.7514 50.7037C22.7514 46.0735 25.6075 45.1286 28.6421 43.7111C31.5875 42.2937 31.8552 42.1047 31.8552 41.0653C31.8552 39.9314 31.8552 38.9864 31.8552 37.569C31.8552 35.9626 31.1412 35.3011 29.6239 35.4901C28.9991 35.4901 27.9281 35.7736 27.9281 36.6241C27.7496 37.758 28.8206 37.758 28.9991 39.1754C29.1776 41.2543 27.4818 42.0102 25.9645 42.0102C24.8935 41.8213 23.7332 41.2543 23.5547 39.4589C23.4654 36.7186 26.5 34.3562 30.6949 34.3562C32.6585 34.3562 33.8188 34.6397 34.8898 35.3011ZM31.8552 43.2387L30.1594 44.3726C28.5529 45.5065 28.2851 46.924 28.1066 48.5304C27.9281 49.7588 27.9281 51.0817 28.1066 52.7826C28.1066 54.6725 29.1776 55.0505 30.0702 54.578C31.2304 54.1055 31.8552 52.2156 31.8552 49.8533C31.8552 49.7588 31.8552 44.0891 31.8552 43.2387Z" fill="white"/>
<path fill-rule="evenodd" clip-rule="evenodd" d="M71.1785 40.7044C71.1785 36.2632 68.9472 33.9953 65.6448 34.3733C63.949 34.5623 62.6102 35.3183 61.8962 36.4522V30.2156H56.8087V44.8622C56.8087 50.2483 53.2386 55.351 49.5792 55.162C46.9909 55.162 46.4554 53.0832 46.0984 50.9098C45.6521 47.697 45.6521 44.0117 46.0091 40.043C46.2769 37.4916 46.9016 35.4128 48.6867 35.4128C50.0255 35.4128 50.204 36.3577 49.5792 37.0192C48.9545 37.8696 48.0619 38.6256 48.5082 40.4209C48.9545 42.3108 51.8106 42.6888 53.1494 41.1769C54.2204 39.9485 54.0419 37.8696 53.3279 36.5467C52.4353 34.9403 50.918 34.2788 48.6867 34.2788C45.8306 34.2788 40.3862 37.0192 40.3862 45.5236C40.3862 54.7841 45.9199 56.296 49.133 56.296C52.7031 56.296 55.9162 52.9887 56.8087 50.2483V56.0125H61.8962V39.9485C61.8962 38.3421 62.1639 37.3971 62.9672 36.6412C63.592 36.1687 64.306 35.9797 64.7523 36.1687C65.9125 36.4522 65.9125 38.0586 65.9125 39.9485V56.0125H71.1785V40.7044Z" fill="white"/>
<path fill-rule="evenodd" clip-rule="evenodd" d="M18.6417 0.00463867V9.07608H17.5707C16.6781 4.63485 14.7146 1.23306 12.037 1.13857C10.2519 0.94958 9.18087 2.08351 8.28835 3.68991C7.39581 5.57979 6.94955 9.54855 6.94955 14.3677C6.94955 18.809 7.12806 22.1163 7.57432 24.5731C7.84208 25.707 8.64536 27.4079 10.6089 27.4079C11.68 27.4079 12.394 27.1245 12.8402 26.463C13.5543 25.5181 13.7328 23.6282 13.7328 22.3053C13.7328 20.2264 13.7328 19.5649 13.7328 18.053C13.7328 16.5411 13.2865 15.4072 12.4832 14.9347C11.8585 14.6512 10.9659 14.6512 10.5197 14.4622V13.3283H18.9095V36.1014H17.8384C17.3922 34.306 17.1244 33.0776 16.3211 31.6602C15.6071 30.2428 14.2683 28.6364 12.037 28.6364C9.62714 28.4474 7.84208 30.0538 7.84208 32.4161C7.84208 35.6289 9.62714 36.3849 12.9295 38.2748C16.0534 40.1646 20.159 41.771 20.159 47.3462C20.159 52.7324 15.7856 56.1342 10.8767 56.1342C9.80565 56.1342 2.93316 56.1342 2.93316 56.1342V45.1728H4.0042C5.343 53.4883 8.64536 54.9057 10.8767 54.9057C13.7328 54.9057 15.0716 53.0159 15.0716 50.2755C14.8931 46.7792 12.6617 45.5508 9.53789 43.7554C5.07524 41.0151 2.93316 39.7867 2.93316 35.3454C3.11167 31.5657 5.96777 29.1088 9.09162 28.1639C2.4869 27.4079 0.523333 20.9823 0.701839 14.1788C0.701839 7.37518 4.45047 0.00463867 11.8585 0.00463867C15.0716 0.00463867 18.6417 0.00463867 18.6417 0.00463867Z" fill="white"/>
</svg>
