<svg xmlns="http://www.w3.org/2000/svg" xmlns:xlink="http://www.w3.org/1999/xlink" width="226" zoomAndPan="magnify" viewBox="0 0 169.5 41.25" height="55" preserveAspectRatio="xMidYMid meet" version="1.0"><defs><g/><clipPath id="7bad75b2db"><path d="M 1.269531 2 L 9 2 L 9 38 L 1.269531 38 Z M 1.269531 2 " clip-rule="nonzero"/></clipPath><clipPath id="347d4615d5"><path d="M 154 16 L 167.742188 16 L 167.742188 38 L 154 38 Z M 154 16 " clip-rule="nonzero"/></clipPath></defs><g clip-path="url(#7bad75b2db)"><g fill="#46cbe6" fill-opacity="1"><g transform="translate(1.575644, 37.104084)"><g><path d="M 7.109375 -33.234375 L 5.4375 -33.234375 L 5.4375 -12.28125 C 5.4375 -11.28125 5.4375 -10.34375 5.4375 -9.46875 C 5.4375 -8.601562 5.4375 -7.789062 5.4375 -7.03125 C 5.46875 -6.226562 5.484375 -5.492188 5.484375 -4.828125 C 5.484375 -4.171875 5.484375 -3.578125 5.484375 -3.046875 L 5.484375 -1.0625 C 5.484375 -1.03125 5.484375 -1 5.484375 -0.96875 C 5.484375 -0.9375 5.484375 -0.910156 5.484375 -0.890625 L 7.109375 -0.890625 L 7.109375 0 L 0 0 L 0 -0.890625 L 1.640625 -0.890625 C 1.640625 -0.910156 1.640625 -0.9375 1.640625 -0.96875 C 1.640625 -1 1.640625 -1.03125 1.640625 -1.0625 L 1.640625 -33.234375 L 0 -33.234375 L 0 -34.125 L 7.109375 -34.125 Z M 7.109375 -33.234375 "/></g></g></g></g><g fill="#46cbe6" fill-opacity="1"><g transform="translate(8.781087, 37.104084)"><g><path d="M 18.078125 -0.890625 L 19.140625 -0.890625 L 19.140625 0 L 12.734375 0 L 12.734375 -0.890625 L 13.921875 -0.890625 C 13.710938 -2.296875 13.460938 -3.910156 13.171875 -5.734375 C 12.878906 -7.566406 12.613281 -9.3125 12.375 -10.96875 C 11.257812 -12.320312 9.800781 -13.234375 8 -13.703125 C 7.53125 -13.816406 7.085938 -13.90625 6.671875 -13.96875 C 6.265625 -14.03125 5.820312 -14.03125 5.34375 -13.96875 L 2.515625 -0.890625 L 3.796875 -0.890625 L 3.796875 0 L 0 0 L 0 -0.890625 L 1.15625 -0.890625 C 1.15625 -0.941406 1.160156 -1 1.171875 -1.0625 C 1.179688 -1.125 1.1875 -1.15625 1.1875 -1.15625 C 1.6875 -3.21875 2.15625 -5.300781 2.59375 -7.40625 C 3.039062 -9.507812 3.488281 -11.609375 3.9375 -13.703125 C 3.84375 -13.671875 3.742188 -13.640625 3.640625 -13.609375 C 3.535156 -13.585938 3.441406 -13.546875 3.359375 -13.484375 C 2.921875 -13.273438 2.507812 -13.019531 2.125 -12.71875 C 1.738281 -12.425781 1.382812 -12.109375 1.0625 -11.765625 C 1 -12.203125 1.109375 -12.566406 1.390625 -12.859375 C 1.671875 -13.160156 2.007812 -13.410156 2.40625 -13.609375 C 2.800781 -13.816406 3.148438 -13.992188 3.453125 -14.140625 C 3.566406 -14.203125 3.675781 -14.253906 3.78125 -14.296875 C 3.882812 -14.335938 3.992188 -14.375 4.109375 -14.40625 C 4.703125 -17.269531 5.304688 -20.125 5.921875 -22.96875 C 6.535156 -25.8125 7.171875 -28.617188 7.828125 -31.390625 C 7.878906 -31.679688 7.9375 -31.992188 8 -32.328125 C 8.0625 -32.671875 7.988281 -32.960938 7.78125 -33.203125 C 7.664062 -33.347656 7.566406 -33.484375 7.484375 -33.609375 C 7.410156 -33.742188 7.316406 -33.867188 7.203125 -33.984375 C 7.085938 -34.109375 7.050781 -34.171875 7.09375 -34.171875 C 7.132812 -34.171875 7.242188 -34.171875 7.421875 -34.171875 C 8.097656 -34.222656 8.71875 -34.253906 9.28125 -34.265625 C 9.84375 -34.285156 10.460938 -34.28125 11.140625 -34.25 C 11.398438 -34.226562 11.695312 -34.207031 12.03125 -34.1875 C 12.375 -34.175781 12.59375 -34.035156 12.6875 -33.765625 Z M 6.71875 -15.203125 C 7.570312 -15.347656 8.441406 -15.390625 9.328125 -15.328125 C 10.210938 -15.273438 11.050781 -15.085938 11.84375 -14.765625 C 11.550781 -17.035156 11.265625 -19.316406 10.984375 -21.609375 C 10.703125 -23.910156 10.398438 -26.195312 10.078125 -28.46875 C 10.015625 -29.03125 9.929688 -29.53125 9.828125 -29.96875 C 9.734375 -30.40625 9.519531 -30.863281 9.1875 -31.34375 C 8.539062 -28.476562 7.921875 -25.726562 7.328125 -23.09375 C 6.742188 -20.457031 6.15625 -17.722656 5.5625 -14.890625 C 5.800781 -14.984375 6 -15.050781 6.15625 -15.09375 C 6.320312 -15.132812 6.507812 -15.171875 6.71875 -15.203125 Z M 6.71875 -15.203125 "/></g></g></g><g fill="#46cbe6" fill-opacity="1"><g transform="translate(27.966303, 37.104084)"><g><path d="M 22.765625 -1.859375 C 22.847656 -1.535156 23.007812 -1.273438 23.25 -1.078125 C 23.488281 -0.890625 23.71875 -0.734375 23.9375 -0.609375 C 24.15625 -0.492188 24.25 -0.378906 24.21875 -0.265625 C 24.1875 -0.171875 24.039062 -0.101562 23.78125 -0.0625 C 23.519531 -0.0195312 23.238281 0 22.9375 0 C 22.644531 0 22.453125 0 22.359375 0 C 21.984375 -0.03125 21.617188 -0.0703125 21.265625 -0.125 C 20.910156 -0.1875 20.539062 -0.320312 20.15625 -0.53125 C 19.445312 -0.945312 19.09375 -1.582031 19.09375 -2.4375 L 19.09375 -17.0625 C 19.09375 -17.175781 19.109375 -17.265625 19.140625 -17.328125 C 19.140625 -17.410156 19.125 -17.484375 19.09375 -17.546875 C 19.0625 -17.722656 18.972656 -17.945312 18.828125 -18.21875 C 18.796875 -18.363281 18.726562 -18.5 18.625 -18.625 C 18.53125 -18.757812 18.421875 -18.882812 18.296875 -19 C 17.972656 -19.238281 17.679688 -19.40625 17.421875 -19.5 C 17.148438 -19.582031 16.910156 -19.625 16.703125 -19.625 C 16.585938 -19.625 16.460938 -19.613281 16.328125 -19.59375 C 16.203125 -19.582031 16.035156 -19.5625 15.828125 -19.53125 C 15.503906 -19.445312 15.132812 -19.269531 14.71875 -19 C 14.425781 -18.738281 14.207031 -18.34375 14.0625 -17.8125 C 14.0625 -17.75 14.046875 -17.707031 14.015625 -17.6875 C 14.015625 -17.6875 14.015625 -17.675781 14.015625 -17.65625 C 14.015625 -17.644531 14.015625 -17.625 14.015625 -17.59375 L 14.015625 -0.921875 L 15.125 -0.921875 L 15.125 -0.046875 L 9.328125 -0.046875 L 9.328125 -0.921875 L 10.203125 -0.921875 L 10.203125 -17.546875 C 10.179688 -17.640625 10.15625 -17.742188 10.125 -17.859375 C 10.09375 -17.972656 10.046875 -18.09375 9.984375 -18.21875 C 9.835938 -18.507812 9.648438 -18.769531 9.421875 -19 C 9.085938 -19.238281 8.789062 -19.40625 8.53125 -19.5 C 8.269531 -19.582031 8.035156 -19.625 7.828125 -19.625 C 7.734375 -19.625 7.613281 -19.613281 7.46875 -19.59375 C 7.320312 -19.582031 7.144531 -19.5625 6.9375 -19.53125 C 6.582031 -19.445312 6.226562 -19.285156 5.875 -19.046875 C 5.519531 -18.722656 5.300781 -18.3125 5.21875 -17.8125 C 5.21875 -17.78125 5.1875 -17.738281 5.125 -17.6875 C 5.125 -17.6875 5.125 -17.675781 5.125 -17.65625 C 5.125 -17.644531 5.125 -17.625 5.125 -17.59375 L 5.125 -0.921875 L 6.140625 -0.921875 L 6.140625 -0.046875 L 0.265625 -0.046875 L 0.265625 -0.921875 L 1.328125 -0.921875 L 1.328125 -16.359375 C 1.328125 -16.410156 1.3125 -16.46875 1.28125 -16.53125 C 1.21875 -16.675781 1.097656 -16.796875 0.921875 -16.890625 L 0 -16.890625 L 0 -17.59375 L 0.046875 -17.640625 C 0.160156 -17.691406 0.285156 -17.757812 0.421875 -17.84375 C 0.554688 -17.9375 0.710938 -18.046875 0.890625 -18.171875 C 1.035156 -18.253906 1.207031 -18.351562 1.40625 -18.46875 C 1.613281 -18.59375 1.835938 -18.726562 2.078125 -18.875 C 2.609375 -19.195312 3.226562 -19.59375 3.9375 -20.0625 C 4.320312 -20.363281 4.628906 -20.394531 4.859375 -20.15625 C 5.035156 -19.945312 5.125 -19.710938 5.125 -19.453125 L 5.125 -19.359375 C 5.363281 -19.597656 5.660156 -19.820312 6.015625 -20.03125 C 6.398438 -20.257812 6.898438 -20.375 7.515625 -20.375 L 7.78125 -20.375 C 9.425781 -20.375 10.648438 -20.082031 11.453125 -19.5 C 12.179688 -19.019531 12.722656 -18.488281 13.078125 -17.90625 C 13.140625 -17.988281 13.191406 -18.082031 13.234375 -18.1875 C 13.285156 -18.289062 13.320312 -18.390625 13.34375 -18.484375 C 13.40625 -18.597656 13.472656 -18.707031 13.546875 -18.8125 C 13.617188 -18.914062 13.703125 -19.007812 13.796875 -19.09375 C 14.117188 -19.507812 14.484375 -19.820312 14.890625 -20.03125 C 15.335938 -20.257812 15.84375 -20.375 16.40625 -20.375 L 16.671875 -20.375 C 17.140625 -20.375 17.578125 -20.351562 17.984375 -20.3125 C 18.398438 -20.269531 18.753906 -20.1875 19.046875 -20.0625 C 19.722656 -19.832031 20.285156 -19.566406 20.734375 -19.265625 C 21.203125 -18.910156 21.582031 -18.53125 21.875 -18.125 C 22.019531 -17.914062 22.144531 -17.722656 22.25 -17.546875 C 22.351562 -17.367188 22.4375 -17.191406 22.5 -17.015625 C 22.675781 -16.578125 22.765625 -16.195312 22.765625 -15.875 L 22.765625 -2.125 C 22.765625 -2.09375 22.765625 -2.050781 22.765625 -2 C 22.765625 -1.957031 22.765625 -1.910156 22.765625 -1.859375 Z M 22.765625 -1.859375 "/></g></g></g><g fill="#46cbe6" fill-opacity="1"><g transform="translate(52.544621, 37.104084)"><g><path d="M 18.171875 -13.171875 C 18.398438 -12.347656 18.53125 -11.492188 18.5625 -10.609375 C 18.59375 -9.722656 18.566406 -8.851562 18.484375 -8 C 18.328125 -6.550781 17.929688 -5.117188 17.296875 -3.703125 C 16.671875 -2.296875 15.707031 -1.253906 14.40625 -0.578125 C 13.9375 -0.304688 13.421875 -0.113281 12.859375 0 C 11.535156 0.289062 10.195312 0.257812 8.84375 -0.09375 C 7.488281 -0.445312 6.25 -1.054688 5.125 -1.921875 C 4.007812 -2.796875 3.125 -3.820312 2.46875 -5 C 1.914062 -6.0625 1.523438 -7.191406 1.296875 -8.390625 C 1.078125 -9.597656 0.984375 -10.804688 1.015625 -12.015625 L -0.171875 -12.015625 L -0.171875 -12.90625 L 4.734375 -12.90625 L 4.734375 -12.015625 L 4.109375 -12.015625 C 3.722656 -10.898438 3.550781 -9.726562 3.59375 -8.5 C 3.644531 -7.28125 3.9375 -6.140625 4.46875 -5.078125 C 5 -3.992188 5.769531 -3.066406 6.78125 -2.296875 C 7.800781 -1.535156 8.898438 -1.078125 10.078125 -0.921875 C 10.609375 -0.867188 11.140625 -0.878906 11.671875 -0.953125 C 12.203125 -1.023438 12.6875 -1.207031 13.125 -1.5 C 13.625 -1.820312 14.015625 -2.269531 14.296875 -2.84375 C 14.578125 -3.425781 14.773438 -3.992188 14.890625 -4.546875 C 15.273438 -6.203125 15.273438 -7.890625 14.890625 -9.609375 C 14.515625 -11.335938 13.8125 -12.878906 12.78125 -14.234375 C 11.976562 -15.265625 11.050781 -16.191406 10 -17.015625 C 8.957031 -17.835938 7.960938 -18.695312 7.015625 -19.59375 C 6.078125 -20.5 5.34375 -21.539062 4.8125 -22.71875 C 4.4375 -23.570312 4.203125 -24.492188 4.109375 -25.484375 C 4.023438 -26.472656 4.054688 -27.4375 4.203125 -28.375 C 4.410156 -29.5 4.773438 -30.578125 5.296875 -31.609375 C 5.828125 -32.640625 6.550781 -33.476562 7.46875 -34.125 C 8.675781 -35.007812 9.972656 -35.453125 11.359375 -35.453125 C 11.890625 -35.484375 12.421875 -35.4375 12.953125 -35.3125 C 13.484375 -35.195312 13.984375 -34.992188 14.453125 -34.703125 C 15.273438 -34.222656 15.921875 -33.550781 16.390625 -32.6875 C 16.867188 -31.820312 17.203125 -30.882812 17.390625 -29.875 C 17.585938 -28.875 17.671875 -27.929688 17.640625 -27.046875 C 17.640625 -26.898438 17.628906 -26.613281 17.609375 -26.1875 C 17.597656 -25.757812 17.5625 -25.351562 17.5 -24.96875 C 17.445312 -24.59375 17.316406 -24.375 17.109375 -24.3125 C 16.898438 -24.28125 16.65625 -24.492188 16.375 -24.953125 C 16.09375 -25.410156 15.878906 -25.832031 15.734375 -26.21875 C 15.472656 -26.894531 15.304688 -27.582031 15.234375 -28.28125 C 15.160156 -28.988281 15.046875 -29.6875 14.890625 -30.375 C 14.742188 -31.070312 14.4375 -31.71875 13.96875 -32.3125 C 13.644531 -32.75 13.21875 -33.144531 12.6875 -33.5 C 12.15625 -33.851562 11.59375 -34.046875 11 -34.078125 C 10.445312 -34.109375 9.957031 -33.945312 9.53125 -33.59375 C 9.101562 -33.238281 8.753906 -32.84375 8.484375 -32.40625 C 7.597656 -30.875 7.316406 -29.25 7.640625 -27.53125 C 7.878906 -26.175781 8.441406 -24.953125 9.328125 -23.859375 C 10.210938 -22.773438 11.15625 -21.757812 12.15625 -20.8125 C 13.1875 -19.90625 14.207031 -18.972656 15.21875 -18.015625 C 16.238281 -17.054688 17.03125 -15.941406 17.59375 -14.671875 C 17.707031 -14.441406 17.804688 -14.203125 17.890625 -13.953125 C 17.984375 -13.703125 18.078125 -13.441406 18.171875 -13.171875 Z M 18.171875 -13.171875 "/></g></g></g><g fill="#46cbe6" fill-opacity="1"><g transform="translate(71.243573, 37.104084)"><g><path d="M 2.4375 -3.984375 C 2.3125 -4.484375 2.25 -5.070312 2.25 -5.75 C 2.3125 -8.195312 2.328125 -10.640625 2.296875 -13.078125 C 2.265625 -15.523438 2.25 -17.957031 2.25 -20.375 L -0.265625 -20.375 L -0.265625 -21.265625 L -0.125 -21.265625 C 0.0390625 -21.265625 0.207031 -21.265625 0.375 -21.265625 C 0.539062 -21.265625 0.710938 -21.28125 0.890625 -21.3125 C 1.035156 -21.332031 1.179688 -21.359375 1.328125 -21.390625 C 1.472656 -21.421875 1.617188 -21.453125 1.765625 -21.484375 C 2.085938 -21.597656 2.320312 -21.726562 2.46875 -21.875 C 2.851562 -22.195312 3.191406 -22.640625 3.484375 -23.203125 C 3.640625 -23.441406 3.757812 -23.6875 3.84375 -23.9375 C 3.9375 -24.1875 4.023438 -24.429688 4.109375 -24.671875 C 4.203125 -24.960938 4.289062 -25.238281 4.375 -25.5 C 4.46875 -25.769531 4.523438 -26.035156 4.546875 -26.296875 L 4.59375 -26.390625 L 6.09375 -26.390625 L 6.09375 -21.265625 L 10.515625 -21.265625 L 10.515625 -20.375 L 6.09375 -20.375 C 6.09375 -19.789062 6.09375 -19.195312 6.09375 -18.59375 C 6.09375 -17.988281 6.09375 -17.375 6.09375 -16.75 C 6.09375 -15.664062 6.09375 -14.554688 6.09375 -13.421875 C 6.09375 -12.285156 6.09375 -11.15625 6.09375 -10.03125 C 6.09375 -9.5 6.09375 -8.960938 6.09375 -8.421875 C 6.09375 -7.878906 6.09375 -7.34375 6.09375 -6.8125 C 6.09375 -6.539062 6.097656 -6.265625 6.109375 -5.984375 C 6.128906 -5.703125 6.140625 -5.414062 6.140625 -5.125 C 6.140625 -4.5625 6.171875 -3.992188 6.234375 -3.421875 C 6.296875 -2.847656 6.476562 -2.351562 6.78125 -1.9375 C 7.09375 -1.53125 7.617188 -1.296875 8.359375 -1.234375 C 8.859375 -1.179688 9.398438 -1.332031 9.984375 -1.6875 C 10.609375 -2.007812 11.1875 -2.640625 11.71875 -3.578125 L 11.796875 -3.71875 L 11.890625 -3.625 C 12.003906 -3.5625 12.109375 -3.515625 12.203125 -3.484375 C 12.378906 -3.398438 12.507812 -3.359375 12.59375 -3.359375 L 12.8125 -3.359375 L 12.734375 -3.1875 C 12.460938 -2.6875 12.179688 -2.269531 11.890625 -1.9375 C 11.773438 -1.738281 11.628906 -1.5625 11.453125 -1.40625 C 11.273438 -1.257812 11.113281 -1.113281 10.96875 -0.96875 C 10.519531 -0.582031 10.003906 -0.316406 9.421875 -0.171875 C 8.796875 -0.0546875 8.148438 0 7.484375 0 C 6.828125 0 6.1875 -0.101562 5.5625 -0.3125 C 4.625 -0.601562 3.90625 -1.070312 3.40625 -1.71875 C 2.90625 -2.375 2.582031 -3.128906 2.4375 -3.984375 Z M 2.4375 -3.984375 "/></g></g></g><g fill="#46cbe6" fill-opacity="1"><g transform="translate(83.22324, 37.104084)"><g><path d="M 1.546875 -26.78125 C 1.109375 -27.132812 0.890625 -27.59375 0.890625 -28.15625 C 0.890625 -28.71875 1.109375 -29.175781 1.546875 -29.53125 C 2.015625 -29.914062 2.585938 -30.109375 3.265625 -30.109375 C 3.972656 -30.109375 4.535156 -29.914062 4.953125 -29.53125 C 5.421875 -29.144531 5.65625 -28.6875 5.65625 -28.15625 C 5.65625 -27.625 5.421875 -27.164062 4.953125 -26.78125 C 4.535156 -26.40625 3.972656 -26.21875 3.265625 -26.21875 C 2.585938 -26.21875 2.015625 -26.40625 1.546875 -26.78125 Z M 5.046875 -0.890625 L 6.0625 -0.890625 L 6.0625 0 L 0.265625 0 L 0.265625 -0.890625 L 1.328125 -0.890625 L 1.328125 -16.53125 C 1.328125 -16.59375 1.3125 -16.664062 1.28125 -16.75 C 1.195312 -16.894531 1.078125 -17 0.921875 -17.0625 L 0.046875 -17.0625 L 0.046875 -17.765625 L 0.09375 -17.8125 C 0.269531 -17.957031 0.535156 -18.132812 0.890625 -18.34375 C 1.035156 -18.4375 1.203125 -18.539062 1.390625 -18.65625 C 1.585938 -18.769531 1.800781 -18.898438 2.03125 -19.046875 C 2.269531 -19.191406 2.535156 -19.367188 2.828125 -19.578125 C 3.117188 -19.785156 3.457031 -20.007812 3.84375 -20.25 C 4.257812 -20.507812 4.570312 -20.535156 4.78125 -20.328125 C 4.957031 -20.148438 5.046875 -19.914062 5.046875 -19.625 Z M 5.046875 -0.890625 "/></g></g></g><g fill="#46cbe6" fill-opacity="1"><g transform="translate(89.809803, 37.104084)"><g><path d="M 6.5 -33.375 L 5.046875 -33.375 L 5.046875 -0.890625 L 6.140625 -0.890625 L 6.140625 0 L 0.09375 0 L 0.09375 -0.890625 L 1.234375 -0.890625 L 1.234375 -33.375 L 0 -33.375 L 0 -34.25 L 6.5 -34.25 Z M 6.5 -33.375 "/></g></g></g><g fill="#46cbe6" fill-opacity="1"><g transform="translate(97.147864, 37.104084)"><g><path d="M 6.5 -33.375 L 5.046875 -33.375 L 5.046875 -0.890625 L 6.140625 -0.890625 L 6.140625 0 L 0.09375 0 L 0.09375 -0.890625 L 1.234375 -0.890625 L 1.234375 -33.375 L 0 -33.375 L 0 -34.25 L 6.5 -34.25 Z M 6.5 -33.375 "/></g></g></g><g fill="#46cbe6" fill-opacity="1"><g transform="translate(104.48592, 37.104084)"><g><path d="M 18.078125 -0.890625 L 19.140625 -0.890625 L 19.140625 0 L 12.734375 0 L 12.734375 -0.890625 L 13.921875 -0.890625 C 13.710938 -2.296875 13.460938 -3.910156 13.171875 -5.734375 C 12.878906 -7.566406 12.613281 -9.3125 12.375 -10.96875 C 11.257812 -12.320312 9.800781 -13.234375 8 -13.703125 C 7.53125 -13.816406 7.085938 -13.90625 6.671875 -13.96875 C 6.265625 -14.03125 5.820312 -14.03125 5.34375 -13.96875 L 2.515625 -0.890625 L 3.796875 -0.890625 L 3.796875 0 L 0 0 L 0 -0.890625 L 1.15625 -0.890625 C 1.15625 -0.941406 1.160156 -1 1.171875 -1.0625 C 1.179688 -1.125 1.1875 -1.15625 1.1875 -1.15625 C 1.6875 -3.21875 2.15625 -5.300781 2.59375 -7.40625 C 3.039062 -9.507812 3.488281 -11.609375 3.9375 -13.703125 C 3.84375 -13.671875 3.742188 -13.640625 3.640625 -13.609375 C 3.535156 -13.585938 3.441406 -13.546875 3.359375 -13.484375 C 2.921875 -13.273438 2.507812 -13.019531 2.125 -12.71875 C 1.738281 -12.425781 1.382812 -12.109375 1.0625 -11.765625 C 1 -12.203125 1.109375 -12.566406 1.390625 -12.859375 C 1.671875 -13.160156 2.007812 -13.410156 2.40625 -13.609375 C 2.800781 -13.816406 3.148438 -13.992188 3.453125 -14.140625 C 3.566406 -14.203125 3.675781 -14.253906 3.78125 -14.296875 C 3.882812 -14.335938 3.992188 -14.375 4.109375 -14.40625 C 4.703125 -17.269531 5.304688 -20.125 5.921875 -22.96875 C 6.535156 -25.8125 7.171875 -28.617188 7.828125 -31.390625 C 7.878906 -31.679688 7.9375 -31.992188 8 -32.328125 C 8.0625 -32.671875 7.988281 -32.960938 7.78125 -33.203125 C 7.664062 -33.347656 7.566406 -33.484375 7.484375 -33.609375 C 7.410156 -33.742188 7.316406 -33.867188 7.203125 -33.984375 C 7.085938 -34.109375 7.050781 -34.171875 7.09375 -34.171875 C 7.132812 -34.171875 7.242188 -34.171875 7.421875 -34.171875 C 8.097656 -34.222656 8.71875 -34.253906 9.28125 -34.265625 C 9.84375 -34.285156 10.460938 -34.28125 11.140625 -34.25 C 11.398438 -34.226562 11.695312 -34.207031 12.03125 -34.1875 C 12.375 -34.175781 12.59375 -34.035156 12.6875 -33.765625 Z M 6.71875 -15.203125 C 7.570312 -15.347656 8.441406 -15.390625 9.328125 -15.328125 C 10.210938 -15.273438 11.050781 -15.085938 11.84375 -14.765625 C 11.550781 -17.035156 11.265625 -19.316406 10.984375 -21.609375 C 10.703125 -23.910156 10.398438 -26.195312 10.078125 -28.46875 C 10.015625 -29.03125 9.929688 -29.53125 9.828125 -29.96875 C 9.734375 -30.40625 9.519531 -30.863281 9.1875 -31.34375 C 8.539062 -28.476562 7.921875 -25.726562 7.328125 -23.09375 C 6.742188 -20.457031 6.15625 -17.722656 5.5625 -14.890625 C 5.800781 -14.984375 6 -15.050781 6.15625 -15.09375 C 6.320312 -15.132812 6.507812 -15.171875 6.71875 -15.203125 Z M 6.71875 -15.203125 "/></g></g></g><g fill="#46cbe6" fill-opacity="1"><g transform="translate(123.671139, 37.104084)"><g><path d="M 6.5 -33.375 L 5.046875 -33.375 L 5.046875 -0.890625 L 6.140625 -0.890625 L 6.140625 0 L 0.09375 0 L 0.09375 -0.890625 L 1.234375 -0.890625 L 1.234375 -33.375 L 0 -33.375 L 0 -34.25 L 6.5 -34.25 Z M 6.5 -33.375 "/></g></g></g><g fill="#46cbe6" fill-opacity="1"><g transform="translate(131.009195, 37.104084)"><g><path d="M 1.546875 -26.78125 C 1.109375 -27.132812 0.890625 -27.59375 0.890625 -28.15625 C 0.890625 -28.71875 1.109375 -29.175781 1.546875 -29.53125 C 2.015625 -29.914062 2.585938 -30.109375 3.265625 -30.109375 C 3.972656 -30.109375 4.535156 -29.914062 4.953125 -29.53125 C 5.421875 -29.144531 5.65625 -28.6875 5.65625 -28.15625 C 5.65625 -27.625 5.421875 -27.164062 4.953125 -26.78125 C 4.535156 -26.40625 3.972656 -26.21875 3.265625 -26.21875 C 2.585938 -26.21875 2.015625 -26.40625 1.546875 -26.78125 Z M 5.046875 -0.890625 L 6.0625 -0.890625 L 6.0625 0 L 0.265625 0 L 0.265625 -0.890625 L 1.328125 -0.890625 L 1.328125 -16.53125 C 1.328125 -16.59375 1.3125 -16.664062 1.28125 -16.75 C 1.195312 -16.894531 1.078125 -17 0.921875 -17.0625 L 0.046875 -17.0625 L 0.046875 -17.765625 L 0.09375 -17.8125 C 0.269531 -17.957031 0.535156 -18.132812 0.890625 -18.34375 C 1.035156 -18.4375 1.203125 -18.539062 1.390625 -18.65625 C 1.585938 -18.769531 1.800781 -18.898438 2.03125 -19.046875 C 2.269531 -19.191406 2.535156 -19.367188 2.828125 -19.578125 C 3.117188 -19.785156 3.457031 -20.007812 3.84375 -20.25 C 4.257812 -20.507812 4.570312 -20.535156 4.78125 -20.328125 C 4.957031 -20.148438 5.046875 -19.914062 5.046875 -19.625 Z M 5.046875 -0.890625 "/></g></g></g><g fill="#46cbe6" fill-opacity="1"><g transform="translate(137.595751, 37.104084)"><g><path d="M 10.78125 -20.15625 L 16.625 -20.15625 L 16.625 -19.234375 L 14.453125 -19.234375 C 14.390625 -19.023438 14.3125 -18.742188 14.21875 -18.390625 C 14.132812 -18.035156 14.0625 -17.707031 14 -17.40625 C 13.945312 -17.113281 13.90625 -16.941406 13.875 -16.890625 C 13.789062 -16.566406 13.703125 -16.210938 13.609375 -15.828125 C 13.523438 -15.441406 13.425781 -15.03125 13.3125 -14.59375 C 13.101562 -13.707031 12.878906 -12.734375 12.640625 -11.671875 C 12.523438 -11.109375 12.40625 -10.5625 12.28125 -10.03125 C 12.164062 -9.5 12.035156 -8.96875 11.890625 -8.4375 C 11.597656 -7.175781 11.285156 -5.851562 10.953125 -4.46875 C 10.628906 -3.082031 10.296875 -1.625 9.953125 -0.09375 L 9.953125 0 L 5.171875 0 L 5.125 -0.09375 C 4.863281 -1.5 4.597656 -2.863281 4.328125 -4.1875 C 4.066406 -5.519531 3.816406 -6.789062 3.578125 -8 C 3.492188 -8.53125 3.398438 -9.0625 3.296875 -9.59375 C 3.191406 -10.125 3.082031 -10.640625 2.96875 -11.140625 C 2.84375 -11.640625 2.734375 -12.128906 2.640625 -12.609375 C 2.554688 -13.097656 2.472656 -13.582031 2.390625 -14.0625 C 2.296875 -14.5 2.203125 -14.914062 2.109375 -15.3125 C 2.023438 -15.707031 1.957031 -16.082031 1.90625 -16.4375 C 1.90625 -16.53125 1.867188 -16.753906 1.796875 -17.109375 C 1.722656 -17.460938 1.644531 -17.84375 1.5625 -18.25 C 1.488281 -18.664062 1.425781 -18.992188 1.375 -19.234375 L 0 -19.234375 L 0 -20.15625 L 6.5 -20.15625 L 6.5 -19.234375 L 4.859375 -19.234375 L 8.4375 -1.546875 L 12.78125 -19.234375 L 10.78125 -19.234375 Z M 10.78125 -20.15625 "/></g></g></g><g clip-path="url(#347d4615d5)"><g fill="#46cbe6" fill-opacity="1"><g transform="translate(154.305438, 37.104084)"><g><path d="M 11.84375 -5.921875 C 12.019531 -5.890625 12.148438 -5.875 12.234375 -5.875 C 12.328125 -5.875 12.390625 -5.875 12.421875 -5.875 L 12.546875 -5.875 L 12.515625 -5.75 C 12.484375 -5.625 12.457031 -5.492188 12.4375 -5.359375 C 12.425781 -5.234375 12.421875 -5.097656 12.421875 -4.953125 C 12.328125 -4.742188 12.238281 -4.476562 12.15625 -4.15625 C 12.125 -3.882812 12.035156 -3.585938 11.890625 -3.265625 C 11.421875 -2.265625 10.695312 -1.457031 9.71875 -0.84375 C 8.71875 -0.25 7.613281 0.046875 6.40625 0.046875 L 6.1875 0.046875 C 5.269531 0.046875 4.457031 -0.0703125 3.75 -0.3125 C 3.050781 -0.539062 2.492188 -0.820312 2.078125 -1.15625 C 1.640625 -1.445312 1.269531 -1.796875 0.96875 -2.203125 C 0.820312 -2.410156 0.695312 -2.601562 0.59375 -2.78125 C 0.488281 -2.957031 0.410156 -3.132812 0.359375 -3.3125 C 0.234375 -3.425781 0.171875 -3.617188 0.171875 -3.890625 C 0.140625 -4.003906 0.117188 -4.117188 0.109375 -4.234375 C 0.0976562 -4.359375 0.078125 -4.476562 0.046875 -4.59375 C 0.015625 -4.738281 0 -4.882812 0 -5.03125 C 0 -5.1875 0 -5.335938 0 -5.484375 L 0 -15.640625 C 0.0820312 -16.148438 0.210938 -16.65625 0.390625 -17.15625 C 0.484375 -17.351562 0.59375 -17.554688 0.71875 -17.765625 C 0.851562 -17.972656 1.007812 -18.195312 1.1875 -18.4375 C 1.539062 -18.875 2.03125 -19.269531 2.65625 -19.625 C 3.507812 -20.1875 4.65625 -20.46875 6.09375 -20.46875 L 6.359375 -20.46875 C 7.273438 -20.46875 8.117188 -20.347656 8.890625 -20.109375 C 9.242188 -19.992188 9.570312 -19.863281 9.875 -19.71875 C 10.1875 -19.570312 10.460938 -19.410156 10.703125 -19.234375 C 11.378906 -18.753906 11.867188 -18.15625 12.171875 -17.4375 C 12.484375 -16.71875 12.6875 -15.957031 12.78125 -15.15625 C 12.894531 -14.425781 12.882812 -13.671875 12.75 -12.890625 C 12.613281 -12.109375 12.253906 -11.453125 11.671875 -10.921875 C 11.253906 -10.535156 10.78125 -10.257812 10.25 -10.09375 C 9.71875 -9.9375 9.160156 -9.84375 8.578125 -9.8125 C 7.867188 -9.78125 7.160156 -9.753906 6.453125 -9.734375 C 5.742188 -9.722656 5.019531 -9.71875 4.28125 -9.71875 C 4.195312 -9.71875 4.109375 -9.71875 4.015625 -9.71875 C 3.929688 -9.71875 3.832031 -9.71875 3.71875 -9.71875 L 3.71875 -8.921875 C 3.71875 -8.921875 3.71875 -8.910156 3.71875 -8.890625 L 3.71875 -3.890625 C 3.71875 -3.148438 3.953125 -2.5625 4.421875 -2.125 C 4.890625 -1.675781 5.445312 -1.410156 6.09375 -1.328125 C 7.394531 -1.265625 8.425781 -1.53125 9.1875 -2.125 C 9.894531 -2.65625 10.410156 -3.316406 10.734375 -4.109375 C 10.765625 -4.171875 10.796875 -4.242188 10.828125 -4.328125 C 10.859375 -4.421875 10.890625 -4.523438 10.921875 -4.640625 C 10.953125 -4.734375 10.972656 -4.820312 10.984375 -4.90625 C 10.992188 -5 11.015625 -5.085938 11.046875 -5.171875 C 11.078125 -5.253906 11.097656 -5.335938 11.109375 -5.421875 C 11.128906 -5.515625 11.15625 -5.609375 11.1875 -5.703125 L 11.1875 -5.828125 L 11.265625 -5.875 C 11.296875 -5.875 11.347656 -5.878906 11.421875 -5.890625 C 11.492188 -5.910156 11.632812 -5.921875 11.84375 -5.921875 Z M 3.71875 -17.5 L 3.71875 -11.1875 C 3.769531 -11.15625 3.828125 -11.125 3.890625 -11.09375 C 3.953125 -11.0625 3.992188 -11.019531 4.015625 -10.96875 C 4.347656 -10.8125 4.703125 -10.726562 5.078125 -10.71875 C 5.460938 -10.707031 5.832031 -10.6875 6.1875 -10.65625 C 6.570312 -10.65625 6.953125 -10.664062 7.328125 -10.6875 C 7.710938 -10.71875 8.097656 -10.78125 8.484375 -10.875 C 8.898438 -10.988281 9.203125 -11.242188 9.390625 -11.640625 C 9.585938 -12.046875 9.726562 -12.4375 9.8125 -12.8125 C 9.988281 -13.488281 10.023438 -14.25 9.921875 -15.09375 C 9.816406 -15.9375 9.578125 -16.722656 9.203125 -17.453125 C 8.835938 -18.191406 8.347656 -18.773438 7.734375 -19.203125 C 7.117188 -19.628906 6.382812 -19.769531 5.53125 -19.625 C 5.175781 -19.539062 4.820312 -19.378906 4.46875 -19.140625 C 4.113281 -18.816406 3.890625 -18.40625 3.796875 -17.90625 C 3.742188 -17.726562 3.71875 -17.59375 3.71875 -17.5 Z M 3.71875 -17.5 "/></g></g></g></g></svg>