<svg width="484" height="433" viewBox="0 0 484 433" fill="none" xmlns="http://www.w3.org/2000/svg">
<path d="M240.589 295.323L238.501 298.424L244.192 302.27L246.28 299.169L240.589 295.323Z" fill="#6D9ADD"/>
<path d="M247.034 290.629L244.947 293.729L248.389 296.062L250.476 292.962L247.034 290.629Z" fill="#6D9ADD"/>
<path d="M247.749 282.284L245.661 285.385L252.429 289.959L254.517 286.857L247.749 282.284Z" fill="#6D9ADD"/>
<path d="M230.867 268.164C227.976 267.992 225.295 268.858 223.18 270.408C223.176 270.417 218.561 272.855 218.561 279.419C218.561 285.983 223.747 290.691 230.141 290.691C236.534 290.691 242.115 285.249 241.697 278.699C241.343 273.076 236.638 268.505 230.867 268.164ZM230.925 283.845C227.768 284.348 225.077 281.729 225.594 278.655C225.907 276.795 227.45 275.294 229.365 274.984C232.523 274.481 235.213 277.1 234.696 280.174C234.383 282.034 232.84 283.536 230.93 283.845H230.925Z" fill="#6D9ADD"/>
<path d="M234.664 268.752L231.969 275.482C233.793 276.15 235.095 277.885 235.095 279.918C235.095 281.429 234.377 282.77 233.261 283.64L237.461 289.472C240.416 287.307 242.329 283.832 242.329 279.918C242.329 275.084 238.851 270.611 234.664 268.752Z" fill="#CDDFFB"/>
<path d="M185.262 51.0383V56.9421H192.867C195.157 56.9421 197.016 55.0745 197.016 52.7742V50.916" fill="#6D9ADD"/>
<path d="M197.012 50.9153C197.012 49.5794 197.616 48.3045 198.688 47.5142C201.863 45.1763 203.923 41.4082 203.923 37.1509C203.923 29.9253 197.986 24.0922 190.747 24.3086C184.097 24.5061 178.637 29.9253 178.361 36.6006C178.174 41.0648 180.262 45.054 183.554 47.4907C184.622 48.281 185.259 49.5229 185.259 50.8542V51.0377" fill="#CDDFFB"/>
<path d="M189.07 50.7508V35.3682C186.79 35.3682 184.94 37.2263 184.94 39.5172H197.335C197.335 37.2263 195.485 35.3682 193.205 35.3682V50.5862" stroke="#171321" stroke-width="1.2" stroke-miterlimit="10"/>
<path d="M185.282 53.7004V56.8145H192.854C195.134 56.8145 196.984 54.9564 196.984 52.6655V50.812H185.254" stroke="#171321" stroke-width="1.2" stroke-miterlimit="10"/>
<path d="M209.585 36.0598H214.295" stroke="#CFCED1" stroke-width="1.2" stroke-miterlimit="10"/>
<path d="M167.98 36.0598H172.686" stroke="#CFCED1" stroke-width="1.2" stroke-miterlimit="10"/>
<path d="M191.135 17.5253V12.7976" stroke="#CFCED1" stroke-width="1.2" stroke-miterlimit="10"/>
<path d="M204.181 22.954L207.51 19.6094" stroke="#CFCED1" stroke-width="1.2" stroke-miterlimit="10"/>
<path d="M178.09 22.954L174.76 19.6094" stroke="#CFCED1" stroke-width="1.2" stroke-miterlimit="10"/>
<path d="M464.231 124.232H437.959C435.151 124.232 432.876 126.507 432.876 129.315C432.876 132.122 435.151 134.398 437.959 134.398H464.231C467.038 134.398 469.314 132.122 469.314 129.315C469.314 126.507 467.038 124.232 464.231 124.232Z" fill="#F7F7F7"/>
<path d="M164.896 271.281H152.984V277.222H164.896V271.281Z" fill="#F7F7F7"/>
<path d="M202.376 271.281H190.463V277.222H202.376V271.281Z" fill="#F7F7F7"/>
<path d="M185.803 285.03H152.984V290.971H185.803V285.03Z" fill="#F7F7F7"/>
<path d="M202.071 298.775H174.757V304.715H202.071V298.775Z" fill="#F7F7F7"/>
<path d="M325.78 191.495L349.484 215.365L337.63 225.001L303.32 245.045L287.528 254.349C287.528 254.349 282.526 257.77 279.419 263.123C278.862 264.083 274.875 272.624 274.875 272.624L259.837 262.216L251.966 265.354L249.698 270.177C249.698 270.177 247.458 274.326 244.229 272.305L245.383 266.522L253.547 255.337L268.616 247.043L291.21 228.84L304.528 213.308L318.25 202.662L325.776 191.495H325.78Z" fill="#EAB0A4"/>
<path d="M403.64 119.669C403.299 118.444 403.483 117.132 404.148 116.05C404.749 115.071 405.495 114.182 406.375 113.437C407.425 112.552 408.234 111.632 408.364 109.993C408.548 107.743 408.297 104.618 407.129 102.521C406.164 100.788 403.344 100.487 401.629 101.893L400.564 102.705C399.312 103.666 398.575 105.157 398.575 106.733V107.654L398.71 114.887C396.712 113.54 395.508 111.246 394.983 108.893C394.458 106.54 394.301 101.116 394.377 98.7047C387.336 87.1963 376.434 93.7834 368.653 85.9346C366.928 89.4818 358.509 95.9836 354.948 95.8444L355.33 97.5911L358.46 108.785C358.882 110.276 358.94 111.847 358.626 113.365L358.586 113.567C357.903 116.868 358.563 120.303 360.427 123.109L361.809 125.197C362.254 125.866 362.672 126.553 363.062 127.253L368.127 133.472C370.875 136.849 375.132 138.506 379.348 137.998L379.582 142.673L381.638 151.209L390.753 162.021L408.993 136.593L403.636 119.665L403.64 119.669Z" fill="#EAB0A4"/>
<path d="M368.743 126.727C370.332 125.547 372.389 125.416 374.153 124.572C375.235 124.051 376.201 123.27 377.283 122.754C378.949 121.959 380.911 121.784 382.312 120.509C381.908 122.296 381.275 123.988 380.291 125.421C379.039 127.244 377.112 128.42 375.038 128.631C372.963 128.842 370.449 128.25 368.738 126.732L368.743 126.727Z" fill="white"/>
<path d="M408.041 121.268C409.051 121.147 409.935 120.554 410.914 120.271C413.564 119.503 416.563 121.079 419.104 120.006C422.077 118.753 422.611 114.744 422.059 111.565C421.978 111.098 421.893 110.581 422.135 110.177C422.468 109.629 423.209 109.553 423.828 109.396C426.105 108.803 427.533 106.033 426.693 103.837C425.867 101.686 423.289 100.119 423.586 97.8336C423.675 97.1466 424.03 96.5269 424.273 95.8803C425.216 93.3703 424.133 90.3933 422.068 88.7499C420.959 87.8653 420.231 86.5497 420.2 85.1308C420.16 83.402 419.163 81.6194 417.645 80.7034C415.364 79.3294 412.383 79.6213 409.994 80.7978L407.623 81.0582C395.805 63.1737 377.027 73.2722 377.027 73.2722C361.765 65.3111 351.082 90.775 351.082 90.775C348.972 102.49 357.194 104.232 357.194 104.232L355.339 97.5956L354.957 95.8534C358.518 95.9926 366.937 89.4863 368.662 85.9435C376.443 93.7969 387.345 87.2052 394.386 98.7136C394.305 101.12 394.467 106.549 394.992 108.902C395.517 111.255 396.721 113.549 398.719 114.896L398.584 107.663V106.742C398.584 105.162 399.321 103.675 400.573 102.714L401.638 101.902C403.353 100.496 406.177 100.797 407.138 102.53C408.305 104.632 408.557 107.757 408.373 110.002C408.238 111.641 407.43 112.561 406.384 113.446C405.504 114.187 404.758 115.076 404.157 116.059C403.492 117.141 403.308 118.453 403.649 119.678L404.067 120.998C407.726 122.036 410.923 120.285 410.923 120.285" fill="#AA5F44"/>
<path d="M88.9005 63.1276C90.0276 71.9823 89.8435 81.2456 86.3815 89.4716C85.4431 91.7033 84.1589 93.9573 82.0261 95.1068C79.3813 96.5302 74.909 95.9959 73.1175 93.5846C69.7453 94.2537 66.2744 94.7476 62.8798 94.2133C59.4852 93.6789 56.1356 91.9817 54.2946 89.081C53.6615 88.0797 53.2169 86.9616 52.925 85.8166C52.5164 84.2136 52.3952 82.5387 52.5658 80.8953C42.867 74.5013 56.8405 61.0352 59.3505 56.4732C50.5408 52.5891 50.0648 43.6267 55.0893 38.8671C63.3468 31.0496 68.4476 17.1929 70.0821 13.448C70.6434 12.1639 71.2181 10.8572 72.1251 9.78852C73.6922 7.94754 76.0676 7.02706 78.3755 6.31311C83.6919 4.67419 90.3553 3.35408 94.8321 6.65437C94.8321 6.65437 112.362 -4.31964 127.902 1.91725C139.182 6.43888 129.82 10.4127 137.103 14.4673C145.437 19.1102 154.951 18.1897 155.746 28.6339C156.007 32.024 154.615 35.4994 152.087 37.7715C154.57 40.1154 157.169 43.0609 159.653 45.4048C160.941 46.6217 162.248 47.8564 163.164 49.3741C164.897 52.2389 165.059 55.8625 164.17 59.0954C163.281 62.3239 161.44 65.2111 159.365 67.8423C161.206 88.5107 146.052 93.872 139.33 89.8488C134.642 97.1409 124.755 99.2199 120.898 96.9433L115.186 94.5006L111.549 79.9749" fill="#51352B"/>
<path d="M135.239 35.1046L137.498 35.0013C128.32 34.6915 123.569 24.6155 123.569 24.6155C112.362 35.1046 96.4846 29.6939 96.4396 29.6804C96.3723 33.3759 92.8475 38.0232 88.6357 41.0092C86.8935 42.244 96.8034 42.244 90.2162 60.2677L88.9545 63.5994C88.9545 63.5994 89.4529 68.0402 89.408 75.1572C89.408 75.1572 88.6132 95.7403 78.9279 95.8705C78.9279 95.8705 81.4379 106.575 102.156 108.555C114.001 109.687 123.937 102.652 131 96.5C131 96.5 124.5 98.5 115.55 94.4112L112.766 79.8629C117.333 80.3568 120.498 75.9205 120.974 75.3323L126.039 69.1133C126.434 68.4129 126.852 67.7259 127.292 67.0569L128.675 64.9689C130.534 62.158 131.198 58.723 130.516 55.4272L130.475 55.2252C130.161 53.7075 130.215 52.1359 130.641 50.6452L135.239 35.1001V35.1046Z" fill="#B7714E"/>
<path d="M121.293 65.7456C119.411 65.117 117.418 65.6334 115.483 65.3819C114.293 65.2248 113.134 64.7802 111.94 64.6275C110.108 64.3896 108.19 64.8386 106.462 64.0618C107.405 65.6333 108.532 67.0477 109.91 68.0985C111.666 69.441 113.866 69.9574 115.9 69.5129C117.934 69.0683 120.143 67.7213 121.293 65.7456Z" fill="white"/>
<path d="M93.6369 311.311C93.116 309.183 95.4959 306.933 97.952 306.96L99.4338 306.929C101.18 306.893 102.846 307.669 103.937 309.03L104.575 309.825L106.088 311.113H106.641C108.1 311.113 109.281 309.932 109.281 308.473V298.307L105.217 291.536C103.179 288.137 104.49 283.723 108.055 281.985L108.818 281.613C113.506 279.332 118.661 278.173 123.874 278.232L130.6 278.304C133.232 278.33 135.602 279.916 136.635 282.336L137.883 285.263L139.284 280.98C142.01 274.891 138.386 267.419 131.386 266.117C123.241 264.599 108.702 264.11 95.8955 275.313C87.7099 275.591 81.4415 282.722 82.2588 290.876C83.2646 300.916 86.071 313.076 93.5651 317.714L96.4972 318.203C95.5498 316.699 94.4002 314.414 93.6414 311.307L93.6369 311.311Z" fill="#45424D"/>
<path d="M148.57 314.957C148.426 314.082 148.543 307.557 148.462 306.673L148.211 303.911C147.874 300.198 146.064 296.772 143.191 294.401L143.015 294.253C141.691 293.162 140.654 291.765 139.985 290.185L136.635 282.34C135.602 279.92 133.231 278.335 130.6 278.308L123.874 278.236C118.661 278.183 113.506 279.337 108.818 281.618L108.055 281.99C104.49 283.723 103.178 288.142 105.217 291.541L109.281 298.308V308.289C109.281 309.852 108.014 311.114 106.456 311.114H106.088L104.575 309.825L103.937 309.03C102.842 307.665 101.18 306.888 99.4335 306.929L97.9518 306.96C95.4957 306.933 93.1158 309.183 93.6367 311.311C95.1454 317.463 98.1583 320.399 98.1583 320.399C99.6266 321.809 101.503 322.725 103.515 323.022L106.272 323.426C108.396 323.825 108.499 330.529 108.58 332.092L109.146 343.466C109.236 345.23 109.986 346.896 111.247 348.131L114.063 350.883C114.889 351.692 115.899 352.28 117.008 352.603L133.285 357.331C135.764 358.05 138.4 356.891 139.54 354.574L141.803 349.981C142.809 347.942 142.939 345.58 142.171 343.443L140.694 339.344C140.42 338.585 140.258 337.79 140.214 336.986L139.872 331.028C141.601 330.314 144.3 329.07 145.916 328.01C150.245 325.172 151.376 319.308 148.574 314.957H148.57Z" fill="#E8BD9A"/>
<path d="M70.8312 274.438H65.3531V304.715H70.8312V274.438Z" stroke="#CFCED1" stroke-width="1.2" stroke-miterlimit="10"/>
<path d="M79.7036 297.473V304.715H74.2255V290.234H78.6035" stroke="#CFCED1" stroke-width="1.2" stroke-miterlimit="10"/>
<path d="M55.9779 286.548H61.4514V304.715H55.9779" stroke="#CFCED1" stroke-width="1.2" stroke-miterlimit="10"/>
<path d="M142.046 312.64C139.073 312.69 133.573 313.987 130.057 315.442C128.791 315.968 128.656 317.719 129.841 318.406C130.744 318.927 131.682 319.353 132.652 319.645C134.992 320.35 137.475 320.036 139.41 318.779C140.964 317.773 142.405 316.125 143.133 314.225C143.429 313.453 142.872 312.622 142.046 312.64Z" fill="white"/>
<path d="M60.9311 7.69556H8.41377V160.398H173.972C199.337 160.398 219.902 139.833 219.902 114.468V7.69556H145.881" stroke="#171321" stroke-width="1.2" stroke-miterlimit="10"/>
<path d="M90.8976 216.33H281.852" stroke="#171321" stroke-width="1.2" stroke-miterlimit="10"/>
<path d="M330.261 238.206V385.79C330.261 411.155 309.696 431.72 284.331 431.72H55.9234V271.766" stroke="#171321" stroke-width="1.2" stroke-miterlimit="10"/>
<path d="M322.637 191.612H257.628V110.622H340.499" stroke="#171321" stroke-width="1.2" stroke-miterlimit="10"/>
<path d="M431.089 110.622H483V145.682C483 171.047 462.435 191.612 437.07 191.612H427.851L401.238 218.553V191.612H374.009" stroke="#171321" stroke-width="1.2" stroke-miterlimit="10"/>
<path d="M416.19 139.911L445.269 149.525L465.65 176.08" stroke="#171321" stroke-width="1.2" stroke-miterlimit="10"/>
<path d="M395.122 128.663L381.638 137.522" stroke="#171321" stroke-width="1.2" stroke-miterlimit="10"/>
<path d="M408.997 136.597L390.758 162.025L381.643 151.217L379.169 140.953" stroke="#171321" stroke-width="1.2" stroke-miterlimit="10"/>
<path d="M368.441 106.706V109.512L365.074 119.885L366.758 121.806H371.248" stroke="#171321" stroke-width="1.2" stroke-miterlimit="10"/>
<path d="M378.168 102.405L379.587 106.069" stroke="#171321" stroke-width="1.2" stroke-miterlimit="10"/>
<path d="M361.509 107.2L362.928 110.864" stroke="#171321" stroke-width="1.2" stroke-miterlimit="10"/>
<path d="M368.743 126.727C370.332 125.547 372.389 125.416 374.153 124.572C375.235 124.051 376.201 123.27 377.283 122.754C378.949 121.959 380.911 121.784 382.312 120.509C381.908 122.296 381.275 123.988 380.291 125.421C379.039 127.244 377.112 128.42 375.038 128.631C372.963 128.842 370.449 128.25 368.738 126.732L368.743 126.727Z" stroke="#171321" stroke-width="1.2" stroke-miterlimit="10"/>
<path d="M370.795 125.713L371.675 126.62V127.989L368.743 126.728L370.795 125.713Z" fill="#171321"/>
<path d="M380.489 121.591L380.336 124.591L381.777 122.39L381.89 120.846L380.489 121.591Z" fill="#171321"/>
<path d="M373.763 95.8266C374.077 95.6785 374.427 95.6336 374.773 95.6021C377.238 95.3821 379.743 95.5841 382.141 96.1948" stroke="#171321" stroke-width="1.2" stroke-miterlimit="10"/>
<path d="M356.794 103.549C357.652 101.946 358.864 100.536 360.324 99.4497" stroke="#171321" stroke-width="1.2" stroke-miterlimit="10"/>
<path d="M386.681 76.927C390.825 77.3311 394.817 79.1811 397.803 82.0907" stroke="#171321" stroke-width="1.2" stroke-miterlimit="10"/>
<path d="M391.301 87.0613C394.961 89.8901 398.616 93.1814 399.981 97.5998" stroke="#171321" stroke-width="1.2" stroke-miterlimit="10"/>
<path d="M372.842 147.199L349.771 157.989L325.78 192.016L344.28 210.125" stroke="#171321" stroke-width="1.2" stroke-miterlimit="10"/>
<path d="M349.484 215.369C351.585 213.312 353.583 211.139 355.46 208.862L370.817 192.015" stroke="#171321" stroke-width="1.2" stroke-miterlimit="10"/>
<path d="M442.072 191.495L437.182 181.059" stroke="#171321" stroke-width="1.2" stroke-miterlimit="10"/>
<path d="M410.133 133.588L414.771 134.729L417.672 145.303L405.198 171.252L401.718 173.174L396.335 163.565L392.585 167.696" stroke="#171321" stroke-width="1.2" stroke-miterlimit="10"/>
<path d="M402.109 106.307C402.787 105.422 404.022 105.243 404.39 105.463C404.642 105.615 405.369 106.918 404.889 107.591C404.727 107.82 404.462 107.95 404.233 108.112C403.398 108.696 402.944 109.782 403.115 110.784" stroke="#171321" stroke-width="1.2" stroke-miterlimit="10"/>
<path d="M398.58 107.662V106.742C398.58 105.161 399.316 103.675 400.569 102.714L401.633 101.902C403.348 100.496 406.173 100.797 407.134 102.53C408.301 104.632 408.553 107.757 408.368 110.002C408.234 111.641 407.425 112.561 406.379 113.446C405.499 114.187 404.754 115.076 404.152 116.059C403.488 117.141 403.303 118.452 403.645 119.678L407.461 134.406" stroke="#171321" stroke-width="1.2" stroke-miterlimit="10"/>
<path d="M374.036 144.055L372.842 152.609L377.584 169.811L380.763 170.292L386.34 164.526L391.818 175.096L389.635 191.611" stroke="#171321" stroke-width="1.2" stroke-miterlimit="10"/>
<path d="M248.922 255.156L232.11 243.846L205.461 283.458L262.891 322.105L289.544 282.493L261.018 263.297" stroke="#171321" stroke-width="1.2" stroke-miterlimit="10"/>
<path d="M259.837 311.563L270.048 296.431" stroke="#CFCED1" stroke-width="1.2" stroke-miterlimit="10"/>
<path d="M254.323 308.181L273.15 280.27" stroke="#CFCED1" stroke-width="1.2" stroke-miterlimit="10"/>
<path d="M249.007 304.504L267.834 276.593" stroke="#171321" stroke-width="1.2" stroke-miterlimit="10"/>
<path d="M240.793 294.845L238.772 297.842L244.282 301.558L246.303 298.561L240.793 294.845Z" stroke="#171321" stroke-width="1.2" stroke-miterlimit="10"/>
<path d="M247.031 290.306L245.01 293.301L248.342 295.555L250.363 292.56L247.031 290.306Z" stroke="#171321" stroke-width="1.2" stroke-miterlimit="10"/>
<path d="M247.727 282.246L245.706 285.243L252.257 289.662L254.279 286.666L247.727 282.246Z" stroke="#171321" stroke-width="1.2" stroke-miterlimit="10"/>
<path d="M249.007 304.504L267.834 276.593" stroke="#CFCED1" stroke-width="1.2" stroke-miterlimit="10"/>
<path d="M235.307 263.122L240.04 256.108" stroke="#CFCED1" stroke-width="1.2" stroke-miterlimit="10"/>
<path d="M240.942 262.215L243.488 258.439" stroke="#CFCED1" stroke-width="1.2" stroke-miterlimit="10"/>
<path d="M139.212 309.267L141.839 307.161L141.857 306.757C141.92 305.258 141.192 303.834 139.935 303.008L131.871 297.714L130.497 293.588C130.227 292.775 130.294 291.89 130.685 291.131L131.915 288.743" stroke="#171321" stroke-width="1.2" stroke-miterlimit="10"/>
<path d="M118.553 298.307L119.868 302.452" stroke="#171321" stroke-width="1.2" stroke-miterlimit="10"/>
<path d="M136.253 290.917L137.564 295.061" stroke="#171321" stroke-width="1.2" stroke-miterlimit="10"/>
<path d="M142.046 312.64C139.073 312.69 133.573 313.987 130.057 315.442C128.791 315.968 128.656 317.719 129.841 318.406C130.744 318.927 131.682 319.353 132.652 319.645C134.992 320.35 137.475 320.036 139.41 318.779C140.964 317.773 142.405 316.125 143.133 314.225C143.429 313.453 142.872 312.622 142.046 312.64V312.64Z" stroke="#171321" stroke-width="1.2" stroke-miterlimit="10"/>
<path d="M141.224 312.784L140.928 314.719L141.871 315.9L142.742 314.746L143.097 313.121L141.224 312.784Z" fill="#171321"/>
<path d="M129.936 315.783L132.046 318.962L129.271 318.06L129.024 316.969L129.936 315.783Z" fill="#171321"/>
<path d="M137.564 284.455C135.714 283.664 133.923 283.332 131.916 283.399" stroke="#171321" stroke-width="1.2" stroke-miterlimit="10"/>
<path d="M100.664 311.199L100.628 311.185C99.2583 310.79 98.01 312.124 98.4186 313.493C98.688 314.405 99.0966 315.42 99.5951 315.59C100.08 315.756 102.752 315.33 103.12 318.078" stroke="#171321" stroke-width="1.2" stroke-miterlimit="10"/>
<path d="M104.575 309.825L103.937 309.03C102.846 307.665 101.18 306.889 99.4335 306.929L97.9518 306.96C95.4957 306.933 93.1158 309.183 93.6367 311.311C94.391 314.387 95.5226 316.659 96.4655 318.163" stroke="#171321" stroke-width="1.2" stroke-miterlimit="10"/>
<path d="M139.872 331.027L122.1 332.715" stroke="#171321" stroke-width="1.2" stroke-miterlimit="10"/>
<path d="M117.682 267.275C118.886 270.086 119.07 273.319 118.19 276.247" stroke="#171321" stroke-width="1.2" stroke-miterlimit="10"/>
<path d="M126.761 267.76C127.614 268.883 127.991 270.356 127.776 271.752" stroke="#171321" stroke-width="1.2" stroke-miterlimit="10"/>
<path d="M91.7419 285.987C90.2062 289.987 89.6988 294.379 90.2915 298.626" stroke="#171321" stroke-width="1.2" stroke-miterlimit="10"/>
<path d="M96.8337 294.118C96.479 295.842 96.4655 297.638 96.7978 299.367" stroke="#171321" stroke-width="1.2" stroke-miterlimit="10"/>
<path d="M108.93 292.214C111.045 289.286 114.246 287.167 117.767 286.354" stroke="#171321" stroke-width="1.2" stroke-miterlimit="10"/>
<path d="M240.503 311.118H209.933C205.317 311.118 201.442 314.589 200.939 319.178L192.668 394.24C192.08 399.597 196.274 404.28 201.662 404.28H243.489" stroke="#171321" stroke-width="1.2" stroke-miterlimit="10"/>
<path d="M294.259 404.281H325.771" stroke="#171321" stroke-width="1.2" stroke-miterlimit="10"/>
<path d="M327.338 311.118H275.09" stroke="#171321" stroke-width="1.2" stroke-miterlimit="10"/>
<path d="M212.331 311.118L202.071 404.28" stroke="#171321" stroke-width="1.2" stroke-miterlimit="10"/>
<path d="M257.628 364.713L251.404 423.368L235.572 427.167V429.677" stroke="#171321" stroke-width="1.2" stroke-miterlimit="10"/>
<path d="M294.259 423.912V360.758H261.803V428.34" stroke="#171321" stroke-width="1.2" stroke-miterlimit="10"/>
<path d="M126.761 362.261L106.923 358.57L93.5649 353.303L77.1847 361.672L58.932 404.28" stroke="#171321" stroke-width="1.2" stroke-miterlimit="10"/>
<path d="M86.5154 356.904L90.3366 348.593C92.4111 344.076 96.0751 340.484 100.633 338.494L108.724 334.961" stroke="#171321" stroke-width="1.2" stroke-miterlimit="10"/>
<path d="M146.145 357.699L148.776 348.809L147.461 339.047L142.23 335.881" stroke="#171321" stroke-width="1.2" stroke-miterlimit="10"/>
<path d="M140.102 364.713L146.114 424.163" stroke="#171321" stroke-width="1.2" stroke-miterlimit="10"/>
<path d="M100.727 386.571L90.0534 413.135L91.7417 428.339" stroke="#171321" stroke-width="1.2" stroke-miterlimit="10"/>
<path d="M165.565 373.994L177.096 428.339" stroke="#171321" stroke-width="1.2" stroke-miterlimit="10"/>
<path d="M152.126 346.204L171.33 350.982L188.622 382.934L191.559 421.653" stroke="#171321" stroke-width="1.2" stroke-miterlimit="10"/>
<path d="M215.866 101.281H140.287L120.822 159.658" stroke="#171321" stroke-width="1.2" stroke-miterlimit="10"/>
<path d="M50.9183 84.7749C46.8547 87.8821 44.0079 92.3768 42.9706 97.4642L34.2507 140.224C33.0024 146.358 34.7356 152.716 38.9295 157.363L41.5877 160.314" stroke="#171321" stroke-width="1.2" stroke-miterlimit="10"/>
<path d="M108.366 45.1218L107.813 49.4324" stroke="#171321" stroke-width="1.2" stroke-miterlimit="10"/>
<path d="M126.183 45.1218L125.635 49.4324" stroke="#171321" stroke-width="1.2" stroke-miterlimit="10"/>
<path d="M69.9833 111.105L66.719 144.791L103.031 159.658" stroke="#171321" stroke-width="1.2" stroke-miterlimit="10"/>
<path d="M121.293 65.7456C119.411 65.117 117.418 65.6334 115.483 65.3819C114.293 65.2248 113.134 64.7802 111.94 64.6275C110.108 64.3896 108.19 64.8386 106.462 64.0618C107.405 65.6333 108.532 67.0477 109.91 68.0985C111.666 69.441 113.866 69.9574 115.9 69.5129C117.934 69.0683 120.143 67.7213 121.293 65.7456V65.7456Z" stroke="#171321" stroke-width="1.2" stroke-miterlimit="10"/>
<path d="M119.025 65.4221L118.473 66.5582L118.895 67.8558L121.293 65.7454L119.025 65.4221Z" fill="#171321"/>
<path d="M108.531 64.5237L109.609 67.321L107.553 65.6821L106.964 64.2498L108.531 64.5237Z" fill="#171321"/>
<path d="M120.804 44.3718C119.124 47.1243 118.967 51.8794 121.765 55.5973C122.761 56.9174 121.589 59.0952 120.157 59.2838L116.906 59.7104" stroke="#171321" stroke-width="1.2" stroke-miterlimit="10"/>
<path d="M124.737 39.9809C124.737 39.9809 129.847 39.8551 133.318 41.0046" stroke="#171321" stroke-width="1.2" stroke-miterlimit="10"/>
<path d="M112.367 39.3293L106.287 38.6198C103.647 38.31 100.97 38.6422 98.4873 39.5897L96.5161 40.3396" stroke="#171321" stroke-width="1.2" stroke-miterlimit="10"/>
<path d="M93.9835 70.5181L107.468 79.3773C112.371 80.9309 117.728 79.3279 120.979 75.3406L126.043 69.1217C126.439 68.4212 126.856 67.7342 127.296 67.0652L128.679 64.9772C130.538 62.1664 131.203 58.7313 130.52 55.4355L130.48 55.2335C130.165 53.7158 130.219 52.1442 130.646 50.6535L135.244 35.1084" stroke="#171321" stroke-width="1.2" stroke-miterlimit="10"/>
<path d="M89.4083 42.7156C91.851 45.6611 92.987 49.6529 92.4527 53.4427C92.1204 55.8225 91.173 58.0631 90.2166 60.2678" stroke="#171321" stroke-width="1.2" stroke-miterlimit="10"/>
<path d="M101.159 12.9851C106.089 10.0844 112.164 10.053 117.867 10.5604" stroke="#171321" stroke-width="1.2" stroke-miterlimit="10"/>
<path d="M119.524 17.9068C121.423 17.6688 123.372 17.7946 125.222 18.284" stroke="#171321" stroke-width="1.2" stroke-miterlimit="10"/>
<path d="M49.2477 61.8119H16.0966V42.2661H49.2477" stroke="#CFCED1" stroke-width="1.2" stroke-miterlimit="10"/>
<path d="M28.4267 49.334H23.0071V54.7536H28.4267V49.334Z" stroke="#CFCED1" stroke-width="1.2" stroke-miterlimit="10"/>
<path d="M34.798 49.7021H49.2475" stroke="#CFCED1" stroke-width="1.2" stroke-miterlimit="10"/>
<path d="M34.798 53.2676H46.1447" stroke="#CFCED1" stroke-width="1.2" stroke-miterlimit="10"/>
<path d="M34.7579 107.581H16.0607V88.0349H38.5027" stroke="#CFCED1" stroke-width="1.2" stroke-miterlimit="10"/>
<path d="M28.3907 95.0977H22.971V100.517H28.3907V95.0977Z" stroke="#CFCED1" stroke-width="1.2" stroke-miterlimit="10"/>
<path d="M34.7578 95.4707H39.3737" stroke="#CFCED1" stroke-width="1.2" stroke-miterlimit="10"/>
<path d="M34.7578 99.0356H37.5776" stroke="#CFCED1" stroke-width="1.2" stroke-miterlimit="10"/>
<path d="M24.0623 66.6392V84.0477" stroke="#CFCED1" stroke-width="1.2" stroke-miterlimit="10"/>
<path d="M33.8556 36.6081V24.8079H55.3771" stroke="#CFCED1" stroke-width="1.2" stroke-miterlimit="10"/>
<path d="M230.341 284.02C232.863 284.02 234.907 281.975 234.907 279.453C234.907 276.931 232.863 274.887 230.341 274.887C227.819 274.887 225.774 276.931 225.774 279.453C225.774 281.975 227.819 284.02 230.341 284.02Z" stroke="#171321" stroke-width="1.2" stroke-miterlimit="10"/>
<path d="M218.878 279.453C218.878 285.784 224.01 290.912 230.336 290.912C236.663 290.912 241.795 285.78 241.795 279.453C241.795 273.126 236.663 267.994 230.336 267.994C227.75 267.994 225.361 268.852 223.444 270.298C223.44 270.307 218.873 272.785 218.873 279.458L218.878 279.453Z" stroke="#171321" stroke-width="1.2" stroke-miterlimit="10"/>
<path d="M231.908 275.157L234.27 268.686" stroke="#171321" stroke-width="1.2" stroke-miterlimit="10"/>
<path d="M233.008 283.157L237.04 288.748" stroke="#171321" stroke-width="1.2" stroke-miterlimit="10"/>
<path d="M227.229 290.486L229.101 283.849" stroke="#171321" stroke-width="1.2" stroke-miterlimit="10"/>
<path d="M127.915 244.237C129.13 244.237 130.115 243.252 130.115 242.037C130.115 240.821 129.13 239.836 127.915 239.836C126.7 239.836 125.715 240.821 125.715 242.037C125.715 243.252 126.7 244.237 127.915 244.237Z" stroke="#CFCED1" stroke-width="1.2" stroke-miterlimit="10"/>
<path d="M103.506 255.426C104.721 255.426 105.706 254.441 105.706 253.226C105.706 252.011 104.721 251.026 103.506 251.026C102.291 251.026 101.306 252.011 101.306 253.226C101.306 254.441 102.291 255.426 103.506 255.426Z" stroke="#CFCED1" stroke-width="1.2" stroke-miterlimit="10"/>
<path d="M144.237 259.93C145.452 259.93 146.437 258.945 146.437 257.73C146.437 256.515 145.452 255.53 144.237 255.53C143.022 255.53 142.037 256.515 142.037 257.73C142.037 258.945 143.022 259.93 144.237 259.93Z" stroke="#CFCED1" stroke-width="1.2" stroke-miterlimit="10"/>
<path d="M161.848 246.19C163.063 246.19 164.048 245.205 164.048 243.99C164.048 242.775 163.063 241.79 161.848 241.79C160.632 241.79 159.647 242.775 159.647 243.99C159.647 245.205 160.632 246.19 161.848 246.19Z" stroke="#CFCED1" stroke-width="1.2" stroke-miterlimit="10"/>
<path d="M178.595 256.683C179.81 256.683 180.796 255.698 180.796 254.483C180.796 253.268 179.81 252.282 178.595 252.282C177.38 252.282 176.395 253.268 176.395 254.483C176.395 255.698 177.38 256.683 178.595 256.683Z" stroke="#CFCED1" stroke-width="1.2" stroke-miterlimit="10"/>
<path d="M216.475 230.231C217.69 230.231 218.675 229.246 218.675 228.031C218.675 226.816 217.69 225.831 216.475 225.831C215.26 225.831 214.275 226.816 214.275 228.031C214.275 229.246 215.26 230.231 216.475 230.231Z" stroke="#CFCED1" stroke-width="1.2" stroke-miterlimit="10"/>
<path d="M217.715 229.846L226.655 242.948" stroke="#CFCED1" stroke-width="1.2" stroke-miterlimit="10"/>
<path d="M180.397 253.226L214.67 229.289" stroke="#CFCED1" stroke-width="1.2" stroke-miterlimit="10"/>
<path d="M163.711 245.156L176.732 253.32" stroke="#CFCED1" stroke-width="1.2" stroke-miterlimit="10"/>
<path d="M145.97 256.378L160.114 245.341" stroke="#CFCED1" stroke-width="1.2" stroke-miterlimit="10"/>
<path d="M129.5 243.558L142.54 256.095" stroke="#CFCED1" stroke-width="1.2" stroke-miterlimit="10"/>
<path d="M105.707 252.212L125.917 242.948" stroke="#CFCED1" stroke-width="1.2" stroke-miterlimit="10"/>
<path d="M101.495 251.964L82.187 239.836" stroke="#CFCED1" stroke-width="1.2" stroke-miterlimit="10"/>
<path d="M202.268 271.281H152.984V277.221H202.268V271.281Z" stroke="#CFCED1" stroke-width="1.2" stroke-miterlimit="10"/>
<path d="M198.932 285.03H152.984V290.971H198.932V285.03Z" stroke="#CFCED1" stroke-width="1.2" stroke-miterlimit="10"/>
<path d="M211.334 298.774H152.984V304.715H211.334V298.774Z" stroke="#CFCED1" stroke-width="1.2" stroke-miterlimit="10"/>
<path d="M190.463 271.281V277.221" stroke="#CFCED1" stroke-width="1.2" stroke-miterlimit="10"/>
<path d="M164.901 271.281V277.221" stroke="#CFCED1" stroke-width="1.2" stroke-miterlimit="10"/>
<path d="M185.807 285.03V290.966" stroke="#CFCED1" stroke-width="1.2" stroke-miterlimit="10"/>
<path d="M202.268 298.774V304.715" stroke="#CFCED1" stroke-width="1.2" stroke-miterlimit="10"/>
<path d="M174.757 298.774V304.715" stroke="#CFCED1" stroke-width="1.2" stroke-miterlimit="10"/>
<path d="M324.177 261.645H294.259" stroke="#CFCED1" stroke-width="1.2" stroke-miterlimit="10"/>
<path d="M294.259 266.305H324.177" stroke="#CFCED1" stroke-width="1.2" stroke-miterlimit="10"/>
<path d="M324.177 256.984H294.259" stroke="#CFCED1" stroke-width="1.2" stroke-miterlimit="10"/>
<path d="M294.259 270.966H305.52" stroke="#CFCED1" stroke-width="1.2" stroke-miterlimit="10"/>
<path d="M90.8976 330.08H62.9282" stroke="#CFCED1" stroke-width="1.2" stroke-miterlimit="10"/>
<path d="M62.9282 334.441H90.8976" stroke="#CFCED1" stroke-width="1.2" stroke-miterlimit="10"/>
<path d="M90.8976 325.725H62.9282" stroke="#CFCED1" stroke-width="1.2" stroke-miterlimit="10"/>
<path d="M62.9282 338.796H73.4577" stroke="#CFCED1" stroke-width="1.2" stroke-miterlimit="10"/>
<path d="M168.87 323.529H163.118V337.777H168.87V323.529Z" stroke="#CFCED1" stroke-width="1.2" stroke-miterlimit="10"/>
<path d="M179.647 323.529H173.895V337.777H179.647V323.529Z" stroke="#CFCED1" stroke-width="1.2" stroke-miterlimit="10"/>
<path d="M190.423 323.529H184.671V337.777H190.423V323.529Z" stroke="#CFCED1" stroke-width="1.2" stroke-miterlimit="10"/>
<path d="M160.999 328.384H170.994" stroke="#CFCED1" stroke-width="1.2" stroke-miterlimit="10"/>
<path d="M171.776 333.256H181.771" stroke="#CFCED1" stroke-width="1.2" stroke-miterlimit="10"/>
<path d="M182.552 326.83H192.547" stroke="#CFCED1" stroke-width="1.2" stroke-miterlimit="10"/>
<path d="M193.167 337.777H160.303" stroke="#CFCED1" stroke-width="1.2" stroke-miterlimit="10"/>
<path d="M297.985 130.194H323.916" stroke="#CFCED1" stroke-width="1.2" stroke-miterlimit="10"/>
<path d="M297.985 135.255H311.047" stroke="#CFCED1" stroke-width="1.2" stroke-miterlimit="10"/>
<path d="M297.985 163.708H323.916" stroke="#CFCED1" stroke-width="1.2" stroke-miterlimit="10"/>
<path d="M297.985 168.774H311.047" stroke="#CFCED1" stroke-width="1.2" stroke-miterlimit="10"/>
<path d="M297.985 149.636H323.916" stroke="#CFCED1" stroke-width="1.2" stroke-miterlimit="10"/>
<path d="M464.231 124.232H437.959C435.151 124.232 432.876 126.507 432.876 129.315C432.876 132.122 435.151 134.398 437.959 134.398H464.231C467.038 134.398 469.314 132.122 469.314 129.315C469.314 126.507 467.038 124.232 464.231 124.232Z" stroke="#CFCED1" stroke-width="1.2" stroke-miterlimit="10"/>
<path d="M418.252 279.484V319.748H379.465C374.522 319.748 370.516 315.743 370.516 310.799V257.092H401.845" stroke="#CFCED1" stroke-width="1.2" stroke-miterlimit="10"/>
<path d="M402.589 272.754H418.251V272.008L403.335 257.092H402.589V272.754Z" stroke="#CFCED1" stroke-width="1.2" stroke-miterlimit="10"/>
<path d="M407.812 280.961H380.956" stroke="#CFCED1" stroke-width="1.2" stroke-miterlimit="10"/>
<path d="M407.812 288.42H380.956" stroke="#CFCED1" stroke-width="1.2" stroke-miterlimit="10"/>
<path d="M407.812 295.878H380.956" stroke="#CFCED1" stroke-width="1.2" stroke-miterlimit="10"/>
<path d="M394.382 303.336H380.956" stroke="#CFCED1" stroke-width="1.2" stroke-miterlimit="10"/>
<path d="M418.274 264.685H425.733V327.341H377.997" stroke="#CFCED1" stroke-width="1.2" stroke-miterlimit="10"/>
<path d="M46.9455 223.159C49.3968 217.241 46.5865 210.457 40.6686 208.005C34.7507 205.554 27.9661 208.364 25.5148 214.282C23.0635 220.2 25.8738 226.985 31.7918 229.436C37.7097 231.887 44.4942 229.077 46.9455 223.159Z" stroke="#CFCED1" stroke-width="1.2" stroke-miterlimit="10"/>
<path d="M71.4557 224.731V212.702L62.7357 211.422C62.1251 209.2 61.245 207.089 60.1269 205.132L65.3895 198.064L56.885 189.56L49.8129 194.818C47.8507 193.7 45.7403 192.82 43.5132 192.209L42.2425 183.493H30.2132L28.938 192.209C26.7109 192.82 24.6004 193.704 22.6337 194.822L15.5707 189.555L7.06625 198.06L12.3288 205.127C11.2107 207.089 10.3261 209.204 9.71542 211.431L0.999985 212.702V224.731L9.71542 226.007C10.3261 228.234 11.2107 230.344 12.3288 232.311L7.06175 239.374L15.5662 247.878L22.6337 242.616C24.596 243.734 26.7064 244.618 28.929 245.225L30.2042 253.94H42.2335L43.5132 245.22C45.7358 244.61 47.8462 243.729 49.8039 242.611L56.8715 247.874L65.376 239.369L60.1135 232.297C61.2315 230.34 62.1116 228.229 62.7223 226.007L71.4377 224.731H71.4557Z" stroke="#CFCED1" stroke-width="1.2" stroke-miterlimit="10"/>
<path d="M296.842 9.90041H265.406C261.154 9.90041 257.706 13.3489 257.706 17.6011V68.9286L270.354 54.1738H301.974V39.419L316.729 51.6099V12.4733L301.974 24.6642V9.26733" stroke="#CFCED1" stroke-width="1.2" stroke-miterlimit="10"/>
<path d="M265.726 32.0373C265.726 24.2423 272.043 17.9246 279.838 17.9246C287.633 17.9246 293.951 24.2423 293.951 32.0373C293.951 39.8323 287.633 46.15 279.838 46.15C274.351 46.15 269.596 43.0203 267.261 38.4493" stroke="#CFCED1" stroke-width="1.2" stroke-miterlimit="10"/>
</svg>
