<svg xmlns="http://www.w3.org/2000/svg" width="32" height="33" viewBox="0 0 32 33" fill="currentColor" fill-opacity="0"><g clip-path=""><path d="M15.9969 22.0496L21.3337 18.1686C21.4056 18.1156 21.4589 18.0413 21.4859 17.9562C21.5129 17.8712 21.5123 17.7797 21.4841 17.695L19.6444 12.0254C19.6294 11.984 19.602 11.9482 19.5659 11.9229C19.5298 11.8976 19.4868 11.884 19.4428 11.884C19.3987 11.884 19.3557 11.8976 19.3197 11.9229C19.2836 11.9482 19.2562 11.984 19.2412 12.0254L18.019 15.7945H13.9524L12.727 12.0254C12.712 11.984 12.6846 11.9482 12.6485 11.9229C12.6124 11.8976 12.5694 11.884 12.5254 11.884C12.4813 11.884 12.4383 11.8976 12.4023 11.9229C12.3662 11.9482 12.3388 11.984 12.3238 12.0254L10.4841 17.695C10.4559 17.7797 10.4553 17.8712 10.4823 17.9562C10.5093 18.0413 10.5626 18.1156 10.6345 18.1686L15.9969 22.0496Z" stroke="currentColor" stroke-width="1.27982" stroke-linecap="round" stroke-linejoin="round"></path><path d="M16.001 5.49879C17.0755 5.49879 17.9465 4.62774 17.9465 3.55323C17.9465 2.47872 17.0755 1.60767 16.001 1.60767C14.9265 1.60767 14.0554 2.47872 14.0554 3.55323C14.0554 4.62774 14.9265 5.49879 16.001 5.49879Z" stroke="currentColor" stroke-width="1.27982" stroke-linecap="round" stroke-linejoin="round"></path><path d="M16.001 32.3302C17.0755 32.3302 17.9465 31.4592 17.9465 30.3847C17.9465 29.3101 17.0755 28.4391 16.001 28.4391C14.9265 28.4391 14.0554 29.3101 14.0554 30.3847C14.0554 31.4592 14.9265 32.3302 16.001 32.3302Z" stroke="currentColor" stroke-width="1.27982" stroke-linecap="round" stroke-linejoin="round"></path><path d="M29.416 18.9146C30.4905 18.9146 31.3616 18.0435 31.3616 16.969C31.3616 15.8945 30.4905 15.0234 29.416 15.0234C28.3415 15.0234 27.4705 15.8945 27.4705 16.969C27.4705 18.0435 28.3415 18.9146 29.416 18.9146Z" stroke="currentColor" stroke-width="1.27982" stroke-linecap="round" stroke-linejoin="round"></path><path d="M2.58399 18.9146C3.6585 18.9146 4.52956 18.0435 4.52956 16.969C4.52956 15.8945 3.6585 15.0234 2.58399 15.0234C1.50949 15.0234 0.638428 15.8945 0.638428 16.969C0.638428 18.0435 1.50949 18.9146 2.58399 18.9146Z" stroke="currentColor" stroke-width="1.27982" stroke-linecap="round" stroke-linejoin="round"></path><path d="M25.4874 9.42787C26.5619 9.42787 27.4329 8.55681 27.4329 7.48231C27.4329 6.4078 26.5619 5.53674 25.4874 5.53674C24.4129 5.53674 23.5418 6.4078 23.5418 7.48231C23.5418 8.55681 24.4129 9.42787 25.4874 9.42787Z" stroke="currentColor" stroke-width="1.27982" stroke-linecap="round" stroke-linejoin="round"></path><path d="M6.51411 28.4011C7.58861 28.4011 8.45967 27.5301 8.45967 26.4556C8.45967 25.3811 7.58861 24.51 6.51411 24.51C5.4396 24.51 4.56854 25.3811 4.56854 26.4556C4.56854 27.5301 5.4396 28.4011 6.51411 28.4011Z" stroke="currentColor" stroke-width="1.27982" stroke-linecap="round" stroke-linejoin="round"></path><path d="M25.4874 28.4011C26.5619 28.4011 27.4329 27.5301 27.4329 26.4556C27.4329 25.3811 26.5619 24.51 25.4874 24.51C24.4129 24.51 23.5418 25.3811 23.5418 26.4556C23.5418 27.5301 24.4129 28.4011 25.4874 28.4011Z" stroke="currentColor" stroke-width="1.27982" stroke-linecap="round" stroke-linejoin="round"></path><path d="M6.51411 9.42787C7.58861 9.42787 8.45967 8.55681 8.45967 7.48231C8.45967 6.4078 7.58861 5.53674 6.51411 5.53674C5.4396 5.53674 4.56854 6.4078 4.56854 7.48231C4.56854 8.55681 5.4396 9.42787 6.51411 9.42787Z" stroke="currentColor" stroke-width="1.27982" stroke-linecap="round" stroke-linejoin="round"></path><path d="M8.19684 6.03906C9.83105 4.87101 11.7078 4.08683 13.6872 3.745" stroke="currentColor" stroke-width="1.27982" stroke-linecap="round" stroke-linejoin="round"></path> <path d="M2.75726 14.7054C2.93036 13.6906 3.21966 12.699 3.61947 11.7502" stroke="currentColor" stroke-width="1.27982" stroke-linecap="round" stroke-linejoin="round"></path><path d="M5.09908 24.813C4.41609 23.8672 3.86006 22.836 3.44519 21.7456" stroke="currentColor" stroke-width="1.27982" stroke-linecap="round" stroke-linejoin="round"></path> <path d="M13.8252 30.2116C11.8361 29.8909 9.94513 29.1254 8.29321 27.9719" stroke="currentColor" stroke-width="1.27982" stroke-linecap="round" stroke-linejoin="round"></path><path d="M24.0249 27.7096C22.3493 28.9642 20.4033 29.8091 18.3425 30.1764" stroke="currentColor" stroke-width="1.27982" stroke-linecap="round" stroke-linejoin="round"></path> <path d="M28.6459 21.4257C28.2229 22.6395 27.627 23.7859 26.8766 24.8296" stroke="currentColor" stroke-width="1.27982" stroke-linecap="round" stroke-linejoin="round"></path><path d="M28.062 11.12C28.6183 12.2682 29.0079 13.49 29.219 14.7483" stroke="currentColor" stroke-width="1.27982" stroke-linecap="round" stroke-linejoin="round"></path> <path d="M18.2112 3.7323C20.2139 4.06753 22.1136 4.85543 23.7656 6.03597" stroke="currentColor" stroke-width="1.27982" stroke-linecap="round" stroke-linejoin="round"></path></g><defs><clipPath id="clip0_7608_14911"><rect width="31.9954" height="31.9954" fill="white" transform="translate(0 0.967773)"></rect></clipPath></defs></svg>