<svg xmlns="http://www.w3.org/2000/svg" width="32" height="33" viewBox="0 0 32 33" fill="currentColor" fill-opacity="0">
<g clip-path="">
<path d="M20.7877 6.91406H26.0154V12.1418" stroke="currentColor" stroke-width="1.27982" stroke-linecap="round" stroke-linejoin="round"></path>
<path d="M11.4918 27.0103H5.9054V21.7822" stroke="currentColor" stroke-width="1.27982" stroke-linecap="round" stroke-linejoin="round"></path>
<path d="M3.1994 14.9417C4.58993 16.1781 6.38593 16.8611 8.24667 16.8611C10.1074 16.8611 11.9034 16.1781 13.2939 14.9417C11.9034 13.7052 10.1074 13.0222 8.24667 13.0222C6.38593 13.0222 4.58993 13.7052 3.1994 14.9417V14.9417Z" stroke="currentColor" stroke-width="1.27982" stroke-linecap="round" stroke-linejoin="round"></path>
<path d="M8.2466 10.89C9.59017 10.89 10.6794 9.80087 10.6794 8.45729C10.6794 7.11372 9.59017 6.02454 8.2466 6.02454C6.90302 6.02454 5.81384 7.11372 5.81384 8.45729C5.81384 9.80087 6.90302 10.89 8.2466 10.89Z" stroke="currentColor" stroke-width="1.27982" stroke-linecap="round" stroke-linejoin="round"></path><path d="M14.768 13.1563C15.3681 12.1512 15.7281 11.0211 15.8197 9.854C15.9113 8.68693 15.7322 7.51446 15.2962 6.428C14.8603 5.34154 14.1793 4.37043 13.3064 3.59039C12.4335 2.81034 11.3922 2.24243 10.2637 1.93093C9.13529 1.61943 7.95014 1.57275 6.80067 1.79453C5.65121 2.01632 4.5685 2.50057 3.63693 3.20955C2.70537 3.91852 1.95013 4.83306 1.43009 5.88187C0.910042 6.93068 0.639244 8.08543 0.638802 9.25609C0.636842 10.6296 1.00845 11.9778 1.71385 13.1563" stroke="currentColor" stroke-width="1.27982" stroke-linecap="round" stroke-linejoin="round"></path><path d="M18.7042 30.341C20.0947 31.5775 21.8908 32.2605 23.7515 32.2605C25.6122 32.2605 27.4082 31.5775 28.7988 30.341C27.4073 29.1065 25.6116 28.4248 23.7515 28.4248C21.8913 28.4248 20.0957 29.1065 18.7042 30.341V30.341Z" stroke="currentColor" stroke-width="1.27982" stroke-linecap="round" stroke-linejoin="round"></path> <path d="M23.7558 26.2895C25.0993 26.2895 26.1885 25.2003 26.1885 23.8567C26.1885 22.5131 25.0993 21.424 23.7558 21.424C22.4122 21.424 21.323 22.5131 21.323 23.8567C21.323 25.2003 22.4122 26.2895 23.7558 26.2895Z" stroke="currentColor" stroke-width="1.27982" stroke-linecap="round" stroke-linejoin="round"></path><path d="M30.2791 28.5588C30.9681 27.4049 31.3388 26.089 31.3537 24.7452C31.3685 23.4014 31.0268 22.0776 30.3634 20.9088C29.7 19.7401 28.7386 18.7681 27.5772 18.0918C26.4158 17.4156 25.0959 17.0593 23.752 17.0593C22.4081 17.0593 21.0882 17.4156 19.9268 18.0918C18.7654 18.7681 17.804 19.7401 17.1406 20.9088C16.4773 22.0776 16.1356 23.4014 16.1504 24.7452C16.1652 26.089 16.536 27.4049 17.2249 28.5588" stroke="currentColor" stroke-width="1.27982" stroke-linecap="round" stroke-linejoin="round"></path> </g> <defs> <clipPath id="clip0_7608_14910"> <rect width="31.9954" height="31.9954" fill="white" transform="translate(0 0.972412)"></rect>

 </clipPath>
  </defs>
 </svg>