<svg xmlns="http://www.w3.org/2000/svg" width="32" height="33" viewBox="0 0 32 32" fill="currentColor" fill-opacity="0"><g clip-path="" stroke="currentColor" stroke-width="1.28" stroke-linecap="round" stroke-linejoin="round"><path d="M1.715 21.658A15.358 15.358 0 0121.658 1.715m8.362 8.008A15.358 15.358 0 019.279 29.807M5.44 15.998a10.558 10.558 0 0119.04-6.271m2.075 6.271a10.56 10.56 0 01-19.06 6.248"></path><path d="M15.997 21.655a5.657 5.657 0 100-11.314 5.657 5.657 0 000 11.314z"></path><path d="M13.838 16.247l1.279 1.282 3.048-3.048m6.319-7.567v2.818H21.67M7.495 25.057V22.24h2.817"></path></g><defs><clipPath id="clip0_1740_6853"><path fill="#fff" d="M0 0h31.995v31.995H0z"></path></clipPath></defs></svg>