<svg xmlns="http://www.w3.org/2000/svg" xmlns:xlink="http://www.w3.org/1999/xlink" width="56" height="56" viewBox="0 0 56 56">
  <defs>
    <linearGradient id="linear-gradient" x1="0.5" x2="0.5" y2="1" gradientUnits="objectBoundingBox">
      <stop offset="0" stop-color="#03d0fa"/>
      <stop offset="1" stop-color="#006eff"/>
    </linearGradient>
    <clipPath id="clip-upload-assets">
      <rect width="56" height="56"/>
    </clipPath>
  </defs>
  <g id="upload-assets" clip-path="url(#clip-upload-assets)">
    <g id="Group_138" data-name="Group 138" transform="translate(0 -49.032)">
      <path id="Path_52" data-name="Path 52" d="M46.658,69.6a19.248,19.248,0,0,0-37.866,3.29,10.5,10.5,0,0,0,1.75,20.858h8.749v-3.5H10.542a7,7,0,0,1,0-14,1.75,1.75,0,0,0,1.75-1.75,15.748,15.748,0,0,1,31.2-3.062,1.75,1.75,0,0,0,1.487,1.4,8.749,8.749,0,0,1-1.19,17.411h-7v3.5h7A12.249,12.249,0,0,0,46.658,69.6Z" transform="translate(0 0)" fill="url(#linear-gradient)"/>
      <path id="Path_53" data-name="Path 53" d="M188.034,249.52l-7,7,2.467,2.467,4.025-4.007V271.76h3.5V254.979l4.007,4.007,2.467-2.467-7-7A1.75,1.75,0,0,0,188.034,249.52Z" transform="translate(-161.237 -172.765)" fill="url(#linear-gradient)"/>
    </g>
  </g>
</svg>
