<svg xmlns="http://www.w3.org/2000/svg" xmlns:xlink="http://www.w3.org/1999/xlink" width="568" height="268" viewBox="0 0 568 268">
  <defs>
    <clipPath id="clip-types-of-documents-assets-attached-to-personal-will-management">
      <rect width="568" height="268"/>
    </clipPath>
  </defs>
  <g id="types-of-documents-assets-attached-to-personal-will-management" clip-path="url(#clip-types-of-documents-assets-attached-to-personal-will-management)">
    <rect id="Rectangle_8" data-name="Rectangle 8" width="67" height="65" rx="10" transform="translate(19 6)" fill="#fdf8ea"/>
    <rect id="Rectangle_9" data-name="Rectangle 9" width="88" height="86" rx="10" transform="translate(19 85)" fill="#c6d8f1"/>
    <path id="Rectangle_10" data-name="Rectangle 10" d="M10,0H116a10,10,0,0,1,10,10V79a0,0,0,0,1,0,0H0a0,0,0,0,1,0,0V10A10,10,0,0,1,10,0Z" transform="translate(0 189)" fill="#f0ebdc"/>
    <rect id="Rectangle_11" data-name="Rectangle 11" width="101" height="97" rx="10" transform="translate(126 6)" fill="#eee5c7"/>
    <rect id="Rectangle_12" data-name="Rectangle 12" width="67" height="65" rx="10" transform="translate(140 116)" fill="#e2f1ff"/>
    <rect id="Rectangle_13" data-name="Rectangle 13" width="92" height="66" rx="10" transform="translate(145 189)" fill="#c6d8f1"/>
    <rect id="Rectangle_14" data-name="Rectangle 14" width="67" height="65" rx="10" transform="translate(254 6)" fill="#d0ffe9"/>
    <rect id="Rectangle_15" data-name="Rectangle 15" width="99" height="86" rx="10" transform="translate(238 91)" fill="#d5eaf1"/>
    <rect id="Rectangle_16" data-name="Rectangle 16" width="99" height="90" rx="10" transform="translate(349 6)" fill="#e5e6f2"/>
    <rect id="Rectangle_17" data-name="Rectangle 17" width="79" height="77" rx="10" transform="translate(362 110)" fill="#d9e3ee"/>
    <rect id="Rectangle_18" data-name="Rectangle 18" width="67" height="65" rx="10" transform="translate(259 190)" fill="#f0ebdc"/>
    <path id="Rectangle_19" data-name="Rectangle 19" d="M10,0H187a10,10,0,0,1,10,10V67a0,0,0,0,1,0,0H0a0,0,0,0,1,0,0V10A10,10,0,0,1,10,0Z" transform="translate(359 201)" fill="#f0ebdc"/>
    <rect id="Rectangle_20" data-name="Rectangle 20" width="87" height="95" rx="10" transform="translate(469 85)" fill="#cfe0f2"/>
    <rect id="Rectangle_21" data-name="Rectangle 21" width="87" height="65" rx="10" transform="translate(469 6)" fill="#dce7ff"/>
    <text id="Insurance" transform="translate(141 60)" fill="#4a4a4a" font-size="14" font-family="Poppins-SemiBold, Poppins" font-weight="600"><tspan x="0" y="0">Insurance</tspan></text>
    <text id="Investments" transform="translate(401 241)" fill="#4a4a4a" font-size="18" font-family="Poppins-SemiBold, Poppins" font-weight="600"><tspan x="0" y="0">Investments</tspan></text>
    <text id="Fixed_Deposits" data-name="Fixed
Deposits" transform="translate(399 46)" fill="#4a4a4a" font-size="14" font-family="Poppins-SemiBold, Poppins" font-weight="600"><tspan x="-18.501" y="0">Fixed</tspan><tspan x="-30.842" y="21">Deposits</tspan></text>
    <text id="Important_Passwords" data-name="Important
Passwords" transform="translate(288 130)" fill="#4a4a4a" font-size="12" font-family="Poppins-SemiBold, Poppins" font-weight="600"><tspan x="-30.966" y="0">Important</tspan><tspan x="-32.91" y="18">Passwords</tspan></text>
    <text id="Bank_Accounts" data-name="Bank
Accounts" transform="translate(513 127)" fill="#4a4a4a" font-size="14" font-family="Poppins-SemiBold, Poppins" font-weight="600"><tspan x="-17.962" y="0">Bank</tspan><tspan x="-33.691" y="21">Accounts</tspan></text>
    <text id="Crypto_Currencies" data-name="Crypto
Currencies" transform="translate(58 223)" fill="#4a4a4a" font-size="14" font-family="Poppins-SemiBold, Poppins" font-weight="600"><tspan x="-24.367" y="0">Crypto</tspan><tspan x="-38.899" y="21">Currencies</tspan></text>
    <text id="Heirs_Nominees" data-name="Heirs &amp;
Nominees" transform="translate(63 123)" fill="#4a4a4a" font-size="14" font-family="Poppins-SemiBold, Poppins" font-weight="600"><tspan x="-25.039" y="0">Heirs &amp;</tspan><tspan x="-35.973" y="21">Nominees</tspan></text>
    <text id="Wealth_Distribution" data-name="Wealth
Distribution" transform="translate(191 218)" fill="#4a4a4a" font-size="12" font-family="Poppins-SemiBold, Poppins" font-weight="600"><tspan x="-21.876" y="0">Wealth</tspan><tspan x="-35.484" y="18">Distribution</tspan></text>
    <text id="Legal_Will" data-name="Legal 
Will" transform="translate(174 144)" fill="#4a4a4a" font-size="12" font-family="Poppins-SemiBold, Poppins" font-weight="600"><tspan x="-17.688" y="0">Legal </tspan><tspan x="-11.148" y="18">Will</tspan></text>
    <text id="Digital_Documents" data-name="Digital
Documents" transform="translate(515 33)" fill="#4a4a4a" font-size="12" font-family="Poppins-SemiBold, Poppins" font-weight="600"><tspan x="-19.77" y="0">Digital</tspan><tspan x="-35.262" y="18">Documents</tspan></text>
    <text id="Real_Estate" data-name="Real
Estate" transform="translate(402 143)" fill="#4a4a4a" font-size="14" font-family="Poppins-SemiBold, Poppins" font-weight="600"><tspan x="-15.498" y="0">Real</tspan><tspan x="-22.036" y="21">Estate</tspan></text>
    <text id="Stock_Equity" data-name="Stock
Equity" transform="translate(293 217)" fill="#4a4a4a" font-size="14" font-family="Poppins-SemiBold, Poppins" font-weight="600"><tspan x="-19.747" y="0">Stock</tspan><tspan x="-21.994" y="21">Equity</tspan></text>
    <text id="Legal_Will-2" data-name="Legal 
Will" transform="translate(174 144)" fill="#4a4a4a" font-size="12" font-family="Poppins-SemiBold, Poppins" font-weight="600"><tspan x="-17.688" y="0">Legal </tspan><tspan x="-11.148" y="18">Will</tspan></text>
    <text id="Living_Will" data-name="Living
Will" transform="translate(53 34)" fill="#4a4a4a" font-size="12" font-family="Poppins-SemiBold, Poppins" font-weight="600"><tspan x="-17.718" y="0">Living</tspan><tspan x="-11.148" y="18">Will</tspan></text>
    <text id="Property" transform="translate(288 43)" fill="#4a4a4a" font-size="12" font-family="Poppins-SemiBold, Poppins" font-weight="600"><tspan x="-26.052" y="0">Property</tspan></text>
  </g>
</svg>
