<svg xmlns="http://www.w3.org/2000/svg" xmlns:xlink="http://www.w3.org/1999/xlink" width="314" height="142" viewBox="0 0 314 142">
  <defs>
    <clipPath id="clip-wellness-checker">
      <rect width="314" height="142"/>
    </clipPath>
  </defs>
  <g id="wellness-checker" clip-path="url(#clip-wellness-checker)">
    <rect id="Rectangle_3" data-name="Rectangle 3" width="314" height="142" rx="15" fill="#faf9f6"/>
    <text id="Manage_notifications" data-name="Manage notifications" transform="translate(21 15)" fill="#46cbe6" font-size="20" font-family="Poppins-SemiBold, Poppins" font-weight="600"><tspan x="0" y="21">Manage notifications</tspan></text>
    <text id="Emergency_Alerts" data-name="Emergency Alerts" transform="translate(57 96)" fill="#46cbe6" font-size="16" font-family="Poppins-Medium, Poppins" font-weight="500"><tspan x="0" y="17">Emergency Alerts</tspan></text>
    <text id="Wellness_checker" data-name="Wellness checker" transform="translate(57 57)" fill="#46cbe6" font-size="16" font-family="Poppins-Medium, Poppins" font-weight="500"><tspan x="0" y="17">Wellness checker</tspan></text>
    <g id="Group_141" data-name="Group 141" transform="translate(26.159 1.159)">
      <rect id="Rectangle_4" data-name="Rectangle 4" width="19" height="19" rx="2" transform="translate(245.841 60.841)" fill="#46cbe6"/>
      <g id="Group_140" data-name="Group 140" transform="translate(249.925 66.495)">
        <path id="Path_54" data-name="Path 54" d="M6.232,12.211a.535.535,0,0,1-.759,0L2.444,9.18a.8.8,0,0,1,0-1.138l.379-.379a.8.8,0,0,1,1.138,0L5.853,9.554l5.112-5.112a.8.8,0,0,1,1.138,0l.379.379a.8.8,0,0,1,0,1.138Z" transform="translate(-2.208 -4.207)" fill="#fff"/>
      </g>
    </g>
    <g id="Group_142" data-name="Group 142" transform="translate(26.159 36.159)">
      <rect id="Rectangle_4-2" data-name="Rectangle 4" width="19" height="19" rx="2" transform="translate(245.841 60.841)" fill="#46cbe6"/>
      <g id="Group_140-2" data-name="Group 140" transform="translate(249.925 66.495)">
        <path id="Path_54-2" data-name="Path 54" d="M6.232,12.211a.535.535,0,0,1-.759,0L2.444,9.18a.8.8,0,0,1,0-1.138l.379-.379a.8.8,0,0,1,1.138,0L5.853,9.554l5.112-5.112a.8.8,0,0,1,1.138,0l.379.379a.8.8,0,0,1,0,1.138Z" transform="translate(-2.208 -4.207)" fill="#fff"/>
      </g>
    </g>
    <g id="Group_144" data-name="Group 144" transform="translate(22.996 61)">
      <path id="Path_56" data-name="Path 56" d="M3.153,8.012A7.873,7.873,0,0,0,4.97,10.351l-.663.663c-1.469-1.469-2.432-2.6-2.432-4.858V5.688A1.875,1.875,0,0,0,0,3.813V6.237A7.757,7.757,0,0,0,2.294,11.7l1.487,1.487V16h3.75V10.924s-.046-.585-1.463-2.263a2.464,2.464,0,0,0-2.915-.65ZM12.219,2.7A2.6,2.6,0,0,0,9.658,0,2.452,2.452,0,0,0,8,.63,2.309,2.309,0,0,0,6.413,0a2.6,2.6,0,0,0-2.56,2.7c0,1.71,1.273,2.7,4.147,5.1C11.408,5.12,12.219,4.064,12.219,2.7Zm1.906,2.989v.469c0,2.257-.963,3.389-2.432,4.858l-.663-.663a7.873,7.873,0,0,0,1.817-2.339,2.464,2.464,0,0,0-2.915.65c-1.417,1.678-1.463,2.263-1.463,2.263V16h3.75V13.188L13.706,11.7A7.757,7.757,0,0,0,16,6.237V3.813A1.875,1.875,0,0,0,14.125,5.688Z" transform="translate(0 0)" fill="#46cbe6"/>
    </g>
    <g id="Group_145" data-name="Group 145" transform="translate(24.329 98)">
      <path id="Path_57" data-name="Path 57" d="M14,7.255a.667.667,0,0,1-.667-.667,6.956,6.956,0,0,0-2.05-4.95A.667.667,0,0,1,12.226.7a8.278,8.278,0,0,1,2.441,5.893A.667.667,0,0,1,14,7.255Zm-13.333,0A.667.667,0,0,1,0,6.588,8.279,8.279,0,0,1,2.441.7a.667.667,0,0,1,.943.943,6.954,6.954,0,0,0-2.05,4.95.667.667,0,0,1-.667.667Zm12.919,4.021A4.465,4.465,0,0,1,12,7.859V6A4.67,4.67,0,0,0,8,1.387V.667a.667.667,0,0,0-1.333,0v.72A4.67,4.67,0,0,0,2.667,6V7.859a4.47,4.47,0,0,1-1.592,3.422,1.166,1.166,0,0,0,.759,2.053h11a1.167,1.167,0,0,0,.753-2.058ZM7.333,16a2.5,2.5,0,0,0,2.449-2h-4.9A2.5,2.5,0,0,0,7.333,16Zm0,0" transform="translate(0)" fill="#46cbe6"/>
    </g>
  </g>
</svg>
